/* XPM */
static char *f94e31364ed44b64c7a9b773b1f5caa3oh5U5Dt2t58ytAuS[] = {
/* columns rows colors chars-per-pixel */
"32 32 225 2 ",
"   c #030203",
".  c #0A0300",
"X  c #0C0A04",
"o  c #0D0D0C",
"O  c #03070A",
"+  c #140300",
"@  c #1B0300",
"#  c #140B04",
"$  c #1A0C02",
"%  c #140D08",
"&  c #1A0F0B",
"*  c #14120E",
"=  c #1B140D",
"-  c #191207",
";  c #090E11",
":  c #0D1215",
">  c #131414",
",  c #1B1711",
"<  c #1D1A15",
"1  c #131618",
"2  c #131A1D",
"3  c #1B1C1C",
"4  c #220C01",
"5  c #22130A",
"6  c #2A1A0B",
"7  c #391809",
"8  c #231A14",
"9  c #2B1C11",
"0  c #241E1A",
"q  c #271B17",
"w  c #1D251A",
"e  c #23211C",
"r  c #2B201C",
"t  c #3D2E1C",
"y  c #372517",
"u  c #3F2813",
"i  c #181E22",
"p  c #1E2123",
"a  c #1C2729",
"s  c #252524",
"d  c #2C2620",
"f  c #2C2923",
"g  c #2D2C2B",
"h  c #252C2A",
"j  c #302521",
"k  c #332B25",
"l  c #362D28",
"z  c #3A2E29",
"x  c #2A332A",
"c  c #36312B",
"v  c #3C342B",
"b  c #39362B",
"n  c #3C3631",
"m  c #3D3A34",
"M  c #313936",
"N  c #412209",
"B  c #52240B",
"V  c #432918",
"C  c #47321B",
"Z  c #562C13",
"A  c #6E3B1D",
"S  c #773D1C",
"D  c #412F22",
"F  c #423429",
"G  c #4C3B2B",
"H  c #453927",
"J  c #583A26",
"K  c #443A34",
"L  c #443D38",
"P  c #453935",
"I  c #643D23",
"U  c #394136",
"Y  c #34413A",
"T  c #3A433B",
"R  c #3C463B",
"E  c #79411E",
"W  c #57442D",
"Q  c #44413B",
"!  c #4C443D",
"~  c #494538",
"^  c #564838",
"/  c #6A4429",
"(  c #784728",
")  c #634737",
"_  c #754C34",
"`  c #68553B",
"'  c #7B5239",
"]  c #75533A",
"[  c #3B3C40",
"{  c #3C4145",
"}  c #4C4640",
"|  c #444C44",
" . c #4C4C42",
".. c #4A4F4A",
"X. c #534B45",
"o. c #5B4E4B",
"O. c #534946",
"+. c #4B554A",
"@. c #4C564A",
"#. c #55534C",
"$. c #5C524D",
"%. c #595547",
"&. c #4D5753",
"*. c #5B5450",
"=. c #525D52",
"-. c #5D5953",
";. c #565551",
":. c #514F50",
">. c #6B5947",
",. c #775A45",
"<. c #635C56",
"1. c #645E58",
"2. c #685A55",
"3. c #5B645A",
"4. c #5B6358",
"5. c #6B645E",
"6. c #67655C",
"7. c #78675C",
"8. c #79604C",
"9. c #5A5E61",
"0. c #636D62",
"q. c #696863",
"w. c #726B66",
"e. c #766B67",
"r. c #6F766B",
"t. c #7C756D",
"y. c #76756A",
"u. c #7D7C7B",
"i. c #797974",
"p. c #6C7B76",
"a. c #884C28",
"s. c #88593B",
"d. c #9B5D37",
"f. c #925329",
"g. c #A3653C",
"h. c #835C46",
"j. c #84634C",
"k. c #8A644C",
"l. c #8B6243",
"z. c #9B6646",
"x. c #856956",
"c. c #9B6E53",
"v. c #8B7359",
"b. c #9B755A",
"n. c #A66A46",
"m. c #B3754D",
"M. c #A77758",
"N. c #B47D56",
"B. c #A76F4F",
"V. c #877667",
"C. c #977964",
"Z. c #837A75",
"A. c #806F65",
"S. c #A57B64",
"D. c #A87F63",
"F. c #7B8075",
"G. c #7E867B",
"H. c #7D897D",
"J. c #BE855C",
"K. c #9A836B",
"L. c #8D837E",
"P. c #84847B",
"I. c #938878",
"U. c #A6846D",
"Y. c #A3886D",
"T. c #BC8A66",
"R. c #A88D77",
"E. c #B58D71",
"W. c #A9957D",
"Q. c #BD9071",
"!. c #C38964",
"~. c #CB966C",
"^. c #C99973",
"/. c #C89977",
"(. c #D39D7A",
"). c #D2A27C",
"_. c #7B8483",
"`. c #8A8A84",
"'. c #958C85",
"]. c #95928C",
"[. c #9A958A",
"{. c #9B9B92",
"}. c #999B97",
"|. c #8A9287",
" X c #B49A84",
".X c #A29B95",
"XX c #A7978A",
"oX c #9BA398",
"OX c #A4A39E",
"+X c #A6A799",
"@X c #BDAA9B",
"#X c #B5A699",
"$X c #BCA88D",
"%X c #ACACA4",
"&X c #ABA9A8",
"*X c #B2B9AD",
"=X c #B5B6AC",
"-X c #B7BAB2",
";X c #AFB0A7",
":X c #CE9F81",
">X c #C8A286",
",X c #D8A987",
"<X c #C6AA97",
"1X c #D9AE93",
"2X c #C9B59E",
"3X c #E4B08C",
"4X c #C8B5A7",
"5X c #D5BBAB",
"6X c #CABAAD",
"7X c #BAC1B6",
"8X c #FFC19C",
"9X c #C8C4BD",
"0X c #D7C6B8",
"qX c #D2C0AE",
"wX c #E5CBBC",
"eX c #E6D7BE",
"rX c #FFD8BE",
"tX c #CACAC8",
"yX c #D6D9CE",
"uX c #D9DCD3",
"iX c #E3DDC8",
"pX c #F1DFCB",
"aX c #DEE3D8",
"sX c #F3E5D3",
"dX c #E8EAE1",
/* pixels */
" .+.=.U 4.Y ..+.| [ Q | } Q  .*.+.=.@.=.0.H.H.r.=.+.@.@.=.=.=.=.",
"7Xi.@.x =.U { | ....;.;.#. .! Q | +.| R +.3.0.4.0.3.3.4.=.@.R Y ",
"*Xr.~ R 3.| +.| | =.-.-.-.5.<.X.3.0.F.|.oX-X7X-X7X%XoX_.H.H.H.H.",
"4.@.=.=.@.| @.@.6.w.0.@.*.y.t.5.r.P.oX9XaXdXdXdXaXyX7X7X*X7X7X7X",
"F.H.oXoXy.P.L.F.P.I.F.6.-.w.w.-.6.q.F.].{.`.`.].}.%X;X;X+X%X{.P.",
"G.H.7XaX*X-XoXw.5.t.t.5.<.6.1.#.#.! X.<.<.#.5.Z.].[.].Z.t.i.w.*.",
"U U F.aX*X[.<.b ~ X.<.%. .} X.*.! L X.5.q.1.t..X].[.'.w.q.e.5.$.",
"| U r.dX+Xr.%.` ^ ~ ~ U y e c :.! ~ o.w.2.! O.w.$.e.L.L.Z.t.$.c ",
"R =.~ aX*X@.W ~ H t w - y | m e o.2.O.q r O.2.} 2.e.Z.Z.L.e.P r ",
"{ =.R 7XI.H H t W t 6 - 8 c m m P O.O.P P o.o.P O.5.5.5.2.o.F j ",
"Y R U oXW.@.W C C u 6 w - 8 x Q + 8 q j F z r 8 F <.2.o.O.P r r ",
"R U U oX2XF.` ` C u u H z e s n q & 8 j l l k k j $.5.2.o.P q q ",
"F.Y x P.iXW.` ` ` W W %.^ U h x 0 8 8 d k k b K b -.5.<.*.P j g ",
"H.Y w 0.aX2XY.Y.K.` W W H w p w     . * < w = < Q #.X.Q } } P L ",
"&.x w ~ iXeX$XW.K.v.` C 6 , * X X X * = < e w * c m d e m } Q Q ",
"a a x Y 0XeXW.K.Y.Y.8.C 6 < * X # - X .   , < * * < X * m ! n l ",
"a h h 0 4XsXR._ S.<XC.V 5 & % & $ $ $ 8 . i   O   > * % P H V.C.",
"a i 3 r 5XsXR.,.h.S.C.) V 4 + 4 4 6 y - . ,   : O O * = F y >.) ",
"a 2 i 0 &X4XC.h.S.S.S.j.V @ 4 q W ,.V.9 . X o ; :   > 0 z 9 ^ u ",
"i i s & A.C.b.>X1XD.M.s.7 7 ) ) h.R.2Xt . . > . >   i g k r 7.G ",
": 2 i ; e.C.E.pX1X!.c.A B ,.c.h./ C.>XC + # < O 1   i s 0 q V.2.",
"2 : *   A.XXD.1X,X:XM.s.S B.c.S ( M.E.C @ $ * o 1 : i 1 > * w.5.",
"i 1 *   x.C.k.S.!.:X!.z.g.n.B.n.T.T.U.J @ 4 . > i a i 1 s > ;.-.",
"> i 0 . 2.C.k.D.D.(.J.n.m.m.!.3X3X~.z.A + 5 . r s [ h i [ s :.;.",
"> 3 & # G C.U.k.z.B.B.g.g.d.f.g.a.J.B./ 7 + 5 <.q.p.{ 9._.tX&Xu.",
"0 0 8 5 F x.C.k.s.s.a.a.d.d.a.f.g.J.!.l.N @ D '.`._.9.9.u.tX&X}.",
"# * 9 y G >.j.l.s.s.a.S a.a.a.f.J.!.^.l.N C Z.&X}.].}._.u.&Xu.].",
"'.I.[.XXXXv.>./ J ,.S A S S a.g.J.~./.' N x.6X=X&XOXtX&X].].9.`.",
"4X&X#X4X#XC.,.) J I Z B A a.s.J.~.~.).c.I A.4X9X}.u.u.i..XL.O.2.",
"4X@X<X6XwXwX5X5XS.k.J B ' c.c.B.).~.).).x.J A.9XOXZ.p q .Xe.j q ",
"@X<X<X#X<X4X5X5XwX1Xx._ k.c.B.M.3X)./.$XC.P } L.9XtXn j 6XA.D 7 ",
"XX4X5X4X4X5X0XiXiX5X Xj.h.k.U.>X).).Q.v.S.A.P P '.dX:.P 0X>.D P "
};
