/* XPM */
static char *_eca81c2f57b4a88cfe15b6f40b760c5T1lsPPITQRe8nxvN[] = {
/* columns rows colors chars-per-pixel */
"64 64 228 2 ",
"   c #060505",
".  c #090705",
"X  c #0A0906",
"o  c #070708",
"O  c #080709",
"+  c #0C0B0A",
"@  c #120C07",
"#  c #120E0C",
"$  c #0E100F",
"%  c #14110E",
"&  c #1B130D",
"*  c #151212",
"=  c #1A1514",
"-  c #1D1816",
";  c #161519",
":  c #1C1A1A",
">  c #18181C",
",  c #22150D",
"<  c #231A14",
"1  c #2C1D14",
"2  c #221E1C",
"3  c #2B1F19",
"4  c #301D13",
"5  c #25211E",
"6  c #2C231C",
"7  c #34241A",
"8  c #3C261B",
"9  c #3E2A1D",
"0  c #1D1D22",
"q  c #231F21",
"w  c #1E2226",
"e  c #1F2229",
"r  c #252223",
"t  c #2A2624",
"y  c #2E2A26",
"u  c #23252A",
"i  c #2A272A",
"p  c #25292D",
"a  c #2C2A2C",
"s  c #342B24",
"d  c #3B2D23",
"f  c #392D27",
"g  c #322D2C",
"h  c #3F3027",
"j  c #36312E",
"k  c #3C332C",
"l  c #252A34",
"z  c #2A2D31",
"x  c #2D3138",
"c  c #353232",
"v  c #3B3533",
"b  c #3E3835",
"n  c #33343A",
"m  c #393639",
"M  c #35393E",
"N  c #3D3A3C",
"B  c #432718",
"V  c #432A1C",
"C  c #4C2C1C",
"Z  c #562E1D",
"A  c #56321F",
"S  c #442E21",
"D  c #4B2E20",
"F  c #443123",
"G  c #4C3325",
"H  c #44362C",
"J  c #48372D",
"K  c #4C3A2D",
"L  c #543322",
"P  c #593624",
"I  c #5C3926",
"U  c #513729",
"Y  c #553B2B",
"T  c #5C3D2B",
"R  c #443A34",
"E  c #433D3B",
"W  c #493E38",
"Q  c #563E31",
"!  c #653928",
"~  c #633D2A",
"^  c #5C402E",
"/  c #46413D",
"(  c #4C423D",
")  c #5D4535",
"_  c #564439",
"`  c #65412D",
"'  c #6B422E",
"]  c #644532",
"[  c #6B4632",
"{  c #654836",
"}  c #6D4A35",
"|  c #664A39",
" . c #6C4C39",
".. c #734532",
"X. c #734B35",
"o. c #794E34",
"O. c #754938",
"+. c #734F39",
"@. c #7C5237",
"#. c #74523D",
"$. c #7C533B",
"%. c #292F40",
"&. c #2D3347",
"*. c #313546",
"=. c #3C3B44",
"-. c #32384B",
";. c #393C4C",
":. c #333C57",
">. c #393F55",
",. c #343D58",
"<. c #413D44",
"1. c #3F404A",
"2. c #3B4156",
"3. c #3B425A",
"4. c #464142",
"5. c #4B4542",
"6. c #4E4945",
"7. c #43434C",
"8. c #4B454D",
"9. c #4E4A4A",
"0. c #544942",
"q. c #534B46",
"w. c #534D4B",
"e. c #56524D",
"r. c #5A534E",
"t. c #444654",
"y. c #464957",
"u. c #4C4A54",
"i. c #43495C",
"p. c #514F54",
"a. c #4D505B",
"s. c #545253",
"d. c #5C5553",
"f. c #5D5955",
"g. c #54545B",
"h. c #5C5959",
"j. c #675448",
"k. c #6C564B",
"l. c #7A5641",
"z. c #765947",
"x. c #7D5A44",
"c. c #635856",
"v. c #635C56",
"b. c #635D5A",
"n. c #65605C",
"m. c #6A625D",
"M. c #75655C",
"N. c #4A4F61",
"B. c #4D5365",
"V. c #595962",
"C. c #615E63",
"Z. c #6B6562",
"A. c #686667",
"S. c #726A65",
"D. c #776866",
"F. c #736D6B",
"G. c #76716C",
"H. c #7A746D",
"J. c #6F6C72",
"K. c #797575",
"L. c #83553B",
"P. c #84573C",
"I. c #8A5A3E",
"U. c #925B3E",
"Y. c #835B43",
"T. c #865945",
"R. c #8B5E42",
"E. c #925E48",
"W. c #8C6246",
"Q. c #89644C",
"!. c #926245",
"~. c #94664A",
"^. c #9A6648",
"/. c #946A4C",
"(. c #9C6B4B",
"). c #8A6855",
"_. c #976B54",
"`. c #8E715B",
"'. c #9A7157",
"]. c #A26E4D",
"[. c #A96D4D",
"{. c #A6714F",
"}. c #A56E51",
"|. c #A37453",
" X c #AB7654",
".X c #AB7855",
"XX c #AC7C59",
"oX c #B47957",
"OX c #B17D55",
"+X c #B47D5A",
"@X c #806D60",
"#X c #877566",
"$X c #977766",
"%X c #837B77",
"&X c #A87963",
"*X c #AD7B68",
"=X c #AF805E",
"-X c #BB825C",
";X c #B8855D",
":X c #89837B",
">X c #AB8267",
",X c #BB8766",
"<X c #BB8963",
"1X c #BA8E75",
"2X c #C18C5E",
"3X c #C38C63",
"4X c #C78B66",
"5X c #C48C6A",
"6X c #CB936A",
"7X c #CA9568",
"8X c #D19869",
"9X c #D39D6B",
"0X c #CA9877",
"qX c #D99C76",
"wX c #DAA473",
"eX c #D9A474",
"rX c #E3AD78",
"tX c #E9B47E",
"yX c #8B8682",
"uX c #958F8C",
"iX c #D8A683",
"pX c #EBB787",
"aX c #EBB788",
"sX c #ECBA95",
"dX c #F4C18B",
"fX c #F8C799",
"gX c #FBCAA5",
"hX c #FED5A8",
/* pixels */
":.:.:.:.:.:.:.:.:.:.:.:.:.:.:.:.2.2.:.2.3.:.:.:.:.:.:.:.2.:.2.2.2.:.3.3.3.3.3.2.:.:.:.:.:.:.:.:.:.:.:.:.:.:.:.:.:.:.:.:.:.:.:.:.",
":.:.:.:.:.:.:.:.:.:.:.:.:.:.:.:.2.3.3.3.:.:.3.2.:.:.3.&.2.2.3.V.3.3.A.K.J.N.3.:.:.:.:.:.:.:.:.:.:.:.:.:.:.:.:.:.:.:.:.:.:.:.:.:.",
":.:.:.:.:.:.:.:.:.:.:.:.:.:.:.:.2.K.:Xm.3.B.B.3.3.3.2.N 6.g.y.h.J.%XG.yXuXA.2.2.>.:.>.,.:.:.:.:.:.:.:.:.:.:.:.:.:.:.:.:.:.:.:.:.",
":.:.:.:.:.:.:.:.:.:.:.:.:.:.:.:.y.:Xv.M.yXyXA.N.h.A.9./ e.f.h.e.A.G.n.n.G.6.f.C.u.:.a.C.u.t.3.>.:.:.:.:.:.:.:.:.:.:.:.:.:.:.:.:.",
":.:.:.:.:.:.:.:.:.:.:.:.:.:.:.:.t.r.( v.:XM.m.S.n.n.e.e.n.n.m.H.G.e.r.h.1./ Z.n.u.u.a.Z.Z.f.9.p.,.,.:.:.:.:.:.:.:.:.:.:.:.:.:.:.",
":.:.:.:.:.:.:.:.:.:.:.:.:.:.:.,.4./ / ( m.( r.f.f.v.n.m.G.G.e.v.( / n.f./ / n.n.W ( 5.r.b.E b w.h.V.2.:.:.:.:.:.:.:.:.:.:.:.:.:.",
":.:.:.:.:.:.:.:.:.:.:.:.:.:.:.y.m.j.( q./ k ( ( f.n.n.e.e.n.E 6./ e.%XH.E y N / <.v R S.uXf.6.s.n.G.A.a.3.2.:.:.:.:.:.:.:.:.:.:.",
":.:.:.:.:.:.:.:.:.:.:.:.:.>.>.9.r.e.( ( R k f.r.e.( 9.6.N j y j v j ( / j y 5 N <.E E v.b.q.c.D.:XG.S.n.a.2.:.:.:.:.:.:.:.:.:.:.",
":.:.:.:.:.:.:.:.:.:.:.:.:.y.c.( v.( ( ( b e.f.n.( / j v j - - 2 : 5 / / b b j b r.:Xq.( q.<.H w.G.H.S.Z.A.3.:.:.:.:.:.:.:.:.:.:.",
":.:.:.:.:.:.:.:.:.:.:.:.:.p.m.0./ R k R j b 6.E b t : 5 w 5 2 y 5 g j g y N / 6.r.6.( f.b.c c v e.K.G.m.G.i.:.:.:.:.:.:.:.:.:.:.",
":.:.:.:.:.:.:.:.:.:.:.:.:.2.q.q.H ( k k y 5 y 6 - w $ $ j y 5 y / / : y r.e.G.H.e.2 2 j R <.<.5.Z.d.5.q.r.f.B.3.:.:.:.:.:.:.:.:.",
":.:.:.:.:.:.:.:.:.:.:.:.:.=.( _ k j k ( b 6 b ( 5 = $ - g 5 y j d.e.- y / ( :XG.b % * - t R k 5.4.j 5.n.Z.S.:XB.:.:.:.:.:.:.:.:.",
":.:.:.:.:.:.:.:.:.:.:.:.:.=.( H k d ( n.( R ( S.v $ % 5 y y / e./ r - t v E r.f.c j r = = g b.C.v w.Z.%XZ.S.Z.e.3.:.:.:.:.:.:.:.",
":.:.:.:.:.:.:.:.:.:.:.:.n h s 7 d s k ( ( / R _ 6 & % % % < v 6.6.5 v v y 6 y j v.G.5.y t Z.@X<.v r.d.c.5.( R b 1.:.:.:.:.:.:.:.",
":.:.,.:.:.:.:.:.:.:.:.:.*./ R R H s 6 H ( ( d 6 7 9 6 , $ $ - 5 y 5 y v y - - t j b c a j F.c - t <.R v / e.v E u.3.:.:.:.:.:.:.",
":.:.:.:.:.:.:.:.:.:.:.:.:.:.;.=./ k s H H _ 7 7 G F 9 3 & % $ $ * 5 j j g = = - % : - : q 2 = = 6 3 2 <.w.6.b 6.C.3.:.:.:.:.:.:.",
":.:.:.:.:.:.:.:.:.:.:.:.:.:.:.*.f f h H F S 9 G Y ^ ^ 6 6 v - $ = 5 E v q # = = * 2 = q q & 2 2 t y r N v h.E t 7.,.:.:.:.:.:.:.",
":.:.:.:.:.:.:.:.:.:.:.:.:.:.:.>.H d J K _ G ^ [ x.{ ( R R f.y b 9.g g v 2 & = O = 2 g i i i t q j E t 2 b w.w.m *.,.:.:.:.:.:.:.",
":.:.:.:.:.:.:.:.:.:.:.:.:.:.:.-.W _ j.| } o.o.$.Q.{ _ v.6.e.j j w./ g 6.g = * O # - q 3 c g c q j w.t 2 w.<.E <.:.:.:.:.:.:.:.:.",
":.:.:.:.:.:.:.:.:.:.:.:.:.:.:.:.8.z.z.l././.I.Q.x.R H R k / / 5 y t t q = $ . . + - q q 2 2 g c 8.<.g j b.w.4.<.>.:.:.:.:.:.:.:.",
":.:.:.:.:.:.:.:.,.:.:.:.,.,.,.3.S.>Xx./.|.(.W.Q.) ^ k j y y j 2 - 3 2 + . + O   + : g t - * * q E g 2 q 5.w.4.N :.:.:.:.:.:.:.:.",
":.:.:.:.:.:.:.:.:.:.:.:.,.,.,.<.#XM.=X'.|.W./.x.H F H y 6 y y 5 2 = % % + O     # t j i * * % % * # = t g t i x :.:.:.:.:.:.:.:.",
":.:.:.:.:.:.:.:.:.:.:.:.,.,.>.c.#X=X=X=X=X!./.z.K ^ H y - y v 5 % % % # + + O O * : > * + # * ; * * t i 2 = 6 n :.:.:.:.:.:.:.:.",
":.:.:.:.:.:.:.:.:.:.:.:.:.:.:.<.R _ ;X;X=X=X|.x.{ ) d < $ 5 j 5 $ X X X o O o o O + o o o O * * # * 2 - = * 2 n :.:.:.:.:.:.:.:.",
":.:.:.:.:.:.:.:.:.:.:.:.:.:.:.<.6 ^ x.2X2X2X;X/.@.{ 7 $ X $ = X X   .   . + o o o o o o   o O + + % % % % = r c :.:.:.:.:.:.:.:.",
":.:.:.:.:.:.:.:.:.:.:.:.:.:.:.<.| | ) =X2X9X7XOX{.@.< $ $ $ $ X         . X o X +   o o o + + O     X + % = < m :.:.:.:.:.:.:.:.",
":.:.:.:.:.:.:.:.:.:.:.:.:.:.i.k.#.#.| x.OX7X9X2XOX@., $ % % $ X X       X + + o O O   O o O   O O     + $ % 3 =.:.:.:.:.:.:.:.:.",
":.:.:.:.:.:.:.:.:.:.:.:.:.3.M.| F F Y { @.OX7X7X2X/.9 % X @ $ @ X X X X $ % $ $ + +   . O O   O + + X + $ @ t >.:.:.:.:.:.:.:.:.",
":.:.:.:.:.:.:.:.:.:.,.,.C.).T.l.{ ^ G I @.=X9X9X2X/.^ < $ $ $ $ O # + O & S d # X X .         X + X + $ O @ a ,.:.:.:.:.:.:.:.:.",
":.:.:.:.:.:.:.:.:.:.,.D.&X_.E.l.z.#.x.>X2X9XrXwX;XI.^ s , % % $ @ % 1 D ` (.5X{ X X X         X   X + X . * n ,.:.:.:.:.:.:.:.:.",
":.:.:.:.:.:.:.:.:.,.3.&X*X*X}.T.>XiXaXfXdXdXtXrX2Xx.{ d < & , , , 4 ! ! ! T.[.5X6 .           X   X X X $ u -.:.:.:.:.:.:.:.:.:.",
":.:.:.:.:.:.:.:.:.:.,.c.&X*XE.&XaXfXhXhXhXfXtXwX2X/.) d , , 9 9 B ! ! ! ! T.^.qXG             X     X % q -.:.:.:.:.:.:.:.:.:.:.",
":.:.:.:.:.:.:.:.:.:.:.,.<.O.~ 0XfXhXhXhXfXdXrX9X<XW.K 7 1 V ` ' ~ O.! ! L.^.oX6XD .         . . . . # > -.,.:.,.:.:.:.:.:.:.:.:.",
":.:.:.:.:.:.:.:.:.:.:.:.y.j.T.0XsXhXfXfXfXpXwX2X=XX.G S L X.@.o.O.! ! ! ! oX4X[.4 X         X + X # ; &.:.:.:.:.:.:.:.:.:.:.:.:.",
":.:.:.:.:.:.:.:.:.:.,.>.@X$X).&X0XaXpXpXdXrX8X2X].] Y ^ Y.(.!.@.L.Z Z ! O.*X,XT.B X       . X # # : %.:.:.:.:.:.:.:.:.:.:.:.:.:.",
":.:.:.:.:.:.:.:.:.:.,.>.M.*X).T.'.6XwXwXrXwX9X<X].} | ).<X<X].L.L.Z ! ! E.5XoX! 4 X         @ @ q -.:.:.:.:.:.:.:.:.:.:.:.:.:.:.",
":.:.:.:.:.:.:.:.:.:.:.:.a.$XQ.O.l.'.4X8XeXeXeX7X=X'.`.<XqX3X].U.L.! &XoX-XqXE.! 4 . . . + O # 2 -.:.:.:.:.:.:.:.:.:.:.:.:.:.:.:.",
":.:.:.:.:.:.:.:.:.:.,.<.D.@Xk.j.+.~.<X6X9X9XeX7X<X>X<X<X4XOX^.<X5X0XfXsXqX[.! ! 4 X . . X O - &.:.:.:.:.:.:.:.:.:.:.:.:.:.:.:.:.",
":.:.:.:.:.:.:.:.:.:.,.V.*X).l.| +.~.=X5X7X9X9X<X=X=X=XXXOX].].iXgXgXgXsXoXO.L.! 4 @   X O & x ,.:.:.:.:.:.:.:.:.:.:.:.:.:.:.:.:.",
":.:.:.:.:.:.:.:.:.:.:.N.).$Xx.l.#.W..X=X;X<X;X;X|.~.~./.^.^.U.{.iXqX[.U...O.O.Y 4 @ . O * l :.:.:.:.:.:.:.:.:.:.:.:.:.:.:.:.:.:.",
":.:.:.:.:.:.,.:.:.:.:.2.z.).x. .#.l.~.(.(.].]./.R.@.P.I.I.I.@.' ! ~ ~ O.' } } P 7 & @ @ q :.:.:.:.:.:.:.:.:.:.:.:.:.:.:.:.:.:.:.",
":.:.:.:.:.:.:.:.:.:.:.g.)._.$.X.#.#.l.$.$.O.$.$.X...X.@.o.o.' I ! ! ~ ! ` [ } ^ 7 & # - -.:.:.:.:.:.:.:.:.:.:.:.:.:.:.:.:.:.:.:.",
":.:.:.:.:.:.:.:.:.:.3.$X1X&X#.{  . .{ ~ ~ ~ ! ~ ~ ~ ! ` ~ ` ! A L I ! ! ` ` [ ^ 8 & 5 M :.:.:.:.:.:.:.:.:.:.:.:.:.:.:.:.:.:.:.:.",
":.:.:.:.:.:.:.:.:.:.N.*X1X_. .) { ] ] T Y L L L P A A A P P Z A L P I T ^ [ ^ G 7 , c :.:.:.:.:.:.:.:.:.,.:.:.:.:.:.:.:.:.:.:.:.",
":.:.:.:.:.:.:.:.:.:.,.k.x.j.T Y ~ T Y Y L L L C C Z C Z A A A A P L P P ^ [ ^ F 6 6 =.:.:.:.:.:.:.,.:.:.:.:.:.:.:.:.:.:.:.:.:.:.",
",.:.:.:.:.:.,.:.:.:.,.<.K F S U U U U D D S V V C B B B C P L P I L P I ` ` ^ V 1 d >.:.:.:.:.:.:.:.:.:.:.:.:.:.:.:.:.:.:.:.:.:.",
":.:.:.:.:.:.:.:.:.:.:.,.;.m f S F S S S V 8 V 8 B B B C A ` ` I I T I ~ [ ` ^ V 7 H y.:.:.:.:.:.:.:.:.:.:.:.:.:.:.:.:.:.:.:.:.:.",
":.:.:.:.:.:.:.:.:.:.:.:.,.,.:.=.v h d S 9 9 B 8 B B C D ` @.$...~ ~ ~ ..[ [ ^ V 8 H d.:.:.:.:.:.:.:.:.:.:.:.:.:.:.:.:.:.:.:.:.:.",
":.:.:.:.:.:.:.:.:.:.:.:.:.:.:.:.:.:.&.*.h 9 V V V S L Y $.~.R.$.o.X.......} T S 9 5 / y.:.:.:.:.:.:.:.:.:.:.:.:.:.:.:.:.:.:.:.:.",
":.:.:.:.:.:.:.:.:.:.:.:.:.:.:.:.:.:.3.:.( G G L L L T [ !.].~.I.@.o.o.X.o.X.] U 7 5 5 9.:.:.:.:.:.:.:.,.:.:.:.:.:.:.:.:.:.:.:.:.",
":.:.:.:.:.:.:.:.:.:.:.:.:.:.:.:.:.:.:.:.1._ Q Y Y T ` L.(.|.].^.R.P.L.L.L.$.l.K 5 s.p v 2.3.:.:.:.:.:.:.:.:.:.:.:.:.:.:.:.:.:.:.",
",.:.:.:.:.:.:.:.:.:.:.:.:.:.:.:.:.:.:.:.2.9.{ ) ` ] X.~.+X+XOX[.^.^.W.I.T.W.Q.k a A.c w 1.:.:.:.:.:.:.:.:.:.:.:.:.:.:.:.:.:.:.:.",
":.:.:.:.:.:.:.:.:.:.:.:.:.:.:.:.:.:.:.:.2.=.{ ] ] } Y. X+X-XoXoX{.].^.!./.'.M.m p s.e.6 b 2.2.:.:.:.:.:.:.:.,.:.:.:.:.:.:.:.:.:.",
":.:.:.:.,.,.:.:.:.:.:.:.:.:.:.:.:.:.:.:.2.6 ) } } +.W. X+X-X-XoXOX X{. X|.D.C.=.r 6 k.a z 1.2.2.:.:.:.:.:.:.:.:.:.:.:.:.:.:.:.:.",
":.:.:.:.,.,.:.:.:.:.:.:.:.:.:.:.:.:.2.3.%.$ / +.#.x./..X+X2X+X-X-X-X-X|.k.C.A.8.y k.j.e z N 3.2.:.:.:.:.:.:.:.:.:.:.:.:.:.:.:.:.",
":.:.:.:.,.,.:.:.:.:.:.:.:.:.:.:.:.:.:.2.l $ 6 #.$.$.!.|.oX+X-X2X4X6X|._ =.V.J.g.r.H.a u z x 1.2.:.:.:.,.:.:.:.:.:.:.:.:.:.:.:.:.",
":.:.:.:.:.:.:.:.:.:.:.:.:.:.:.:.:.:.:.:.> $ % ) z.l.W.(. X2X4X6X6X.XJ q n g.J.K.#XM w p z z =.2.:.:.:.,.:.:.:.:.:.:.:.:.:.:.:.:.",
":.:.:.:.:.:.:.:.:.:.:.:.:.:.:.:.:.:.:.l $ $ X s #.l.W.(.[.+X2X4X'.f 0 q i <.J.%XM w w z p w p 1.:.:.:.,.:.:.:.:.:.:.:.:.:.:.:.:.",
":.:.:.:.:.:.:.:.:.:.:.:.:.:.:.:.:.:.2.> $ $ o %  .#.$.W.].oX3X_.s ; ; ; q <.h.n w z x p p w p M :.,.,.,.:.:.:.:.:.:.:.:.:.:.:.:.",
":.:.:.:.:.:.:.:.:.:.:.:.:.:.:.:.3.3.l $ ; + o X Y #.X.@.!..XR.q * ; $ ; q n z 0 p n z p p w p z -.,.,.:.:.:.:.:.:.:.:.:.:.:.:.:.",
":.:.:.:.:.:.:.:.:.:.:.:.:.:.:.:.:.:.w $ + o + o 9  .X.#.R.z.2 * ; ; ; 0 i l 0 l M M x p w w w u x :.:.:.:.:.:.:.:.:.:.:.:.:.:.:.",
":.:.:.:.:.:.:.:.:.:.:.:.:.:.:.:.:.&.$ $ $ o + + < ^ } #.{ < ; a > > 0 p q 0 z *.M M p e e p u u u *.:.:.:.:.,.:.:.:.:.:.:.:.:.:.",
":.:.:.:.:.:.:.:.:.:.:.:.:.:.:.:.2.l + ; o o + + ; d T ) s m c 0 > 0 p r 0 z n M M z e p z p u u u a =.:.:.:.:.:.:.:.:.:.:.:.:.:.",
":.:.:.:.:.:.:.:.:.:.:.:.:.:.:.:.:.0 + ; o o + + + - t - f.yXV.0 0 p u u z z m n p p p z z p u w u u m :.:.:.:.:.:.:.:.:.:.:.:.:."
};
