/* XPM */
static char *f874c004788f46e5cb36d5fd05c2a949dqU8ep9PMZKhUQHR[] = {
/* columns rows colors chars-per-pixel */
"32 32 189 2 ",
"   c None",
".  c #501D0F",
"X  c #4D1B10",
"o  c #521D10",
"O  c #6A1D16",
"+  c #5B2619",
"@  c #61271B",
"#  c #73231B",
"$  c #7A2B1F",
"%  c #7D341A",
"&  c #77351C",
"*  c #5E382D",
"=  c #4E3732",
"-  c #4F3B34",
";  c #533D37",
":  c #533F3A",
">  c #7B2920",
",  c #663927",
"<  c #7D3A22",
"1  c #72441B",
"2  c #6D483A",
"3  c #7A4838",
"4  c #634C44",
"5  c #784B40",
"6  c #7C5343",
"7  c #6F5A52",
"8  c #852D1D",
"9  c #873C1E",
"0  c #832B23",
"q  c #8C2E24",
"w  c #833C23",
"e  c #8A362B",
"r  c #963528",
"t  c #8E3B34",
"y  c #973A32",
"u  c #A13C2E",
"i  c #A33E32",
"p  c #94461F",
"a  c #894529",
"s  c #884424",
"d  c #934522",
"f  c #914A2E",
"g  c #9B4B2A",
"h  c #934B28",
"j  c #9B532C",
"k  c #9D5A2A",
"l  c #824634",
"z  c #954435",
"x  c #974636",
"c  c #9C5D38",
"v  c #9F5430",
"b  c #A6462F",
"n  c #A45229",
"m  c #AD5B2C",
"M  c #A05A2C",
"N  c #A44235",
"B  c #AA4233",
"V  c #AD4C3F",
"C  c #B24D3E",
"Z  c #AC5C34",
"A  c #A95238",
"S  c #B35538",
"D  c #8F633E",
"F  c #AA632D",
"G  c #A26C2A",
"H  c #B5632D",
"J  c #BA6B2D",
"K  c #AC792B",
"L  c #A76735",
"P  c #BB6C33",
"I  c #B96C3C",
"U  c #AD7A3A",
"Y  c #BC723B",
"T  c #B9743A",
"R  c #C07C3F",
"E  c #C97E34",
"W  c #994A41",
"Q  c #855645",
"!  c #885C41",
"~  c #915F4C",
"^  c #A74E42",
"/  c #A95742",
"(  c #B35344",
")  c #B65B4A",
"_  c #A95A55",
"`  c #B95A50",
"'  c #9A6245",
"]  c #96644F",
"[  c #996C55",
"{  c #9E6F5C",
"}  c #956550",
"|  c #B76748",
" . c #BA7748",
".. c #B76159",
"X. c #937E78",
"o. c #A77763",
"O. c #B4746E",
"+. c #C06748",
"@. c #C27A44",
"#. c #C3794B",
"$. c #C16D5E",
"%. c #C47568",
"&. c #C77871",
"*. c #B3843E",
"=. c #C5843D",
"-. c #CE813C",
";. c #CC883A",
":. c #D18A3B",
">. c #D2983B",
",. c #D1953F",
"<. c #CAA23C",
"1. c #D1AB3F",
"2. c #B48941",
"3. c #BD8D42",
"4. c #BF9642",
"5. c #BF8153",
"6. c #9F8170",
"7. c #AA8767",
"8. c #B88165",
"9. c #B98C6F",
"0. c #A58478",
"q. c #B48C7B",
"w. c #C78040",
"e. c #C88948",
"r. c #D28B42",
"t. c #CE9844",
"y. c #CA9247",
"u. c #D29347",
"i. c #D3954B",
"p. c #D69C4C",
"a. c #D99E4C",
"s. c #CA8B56",
"d. c #CD915A",
"f. c #D49858",
"g. c #CDA546",
"h. c #DAA34D",
"j. c #DDAA4D",
"k. c #DDB54F",
"l. c #DDBD4F",
"z. c #DEA553",
"x. c #DFAC52",
"c. c #DDBF58",
"v. c #E0B04C",
"b. c #E2AF51",
"n. c #E2B354",
"m. c #E7BA55",
"M. c #E3B45A",
"N. c #E6BC5C",
"B. c #EABF58",
"V. c #D29F6F",
"C. c #CE9878",
"Z. c #D29A74",
"A. c #DAAE6E",
"S. c #D8A964",
"D. c #DBB06D",
"F. c #CDA07F",
"G. c #D8AB7A",
"H. c #DBB675",
"J. c #D7B578",
"K. c #E3B563",
"L. c #E5BC63",
"P. c #E6BD69",
"I. c #E3BF7D",
"U. c #DFC156",
"Y. c #EAC059",
"T. c #EBC66A",
"R. c #E7C279",
"E. c #A58C81",
"W. c #B88F81",
"Q. c #B69487",
"!. c #C18782",
"~. c #C48A83",
"^. c #C49682",
"/. c #CB978A",
"(. c #D2968D",
"). c #CB9D9A",
"_. c #D09996",
"`. c #C5A581",
"'. c #D6AA9A",
"]. c #DDABA3",
"[. c #DFB2A6",
"{. c #C4B5B0",
"}. c #E0B8AB",
"|. c #E2B8B0",
" X c #DEC789",
".X c #DCCA9B",
"XX c #E1C68D",
"oX c #E5D29A",
"OX c #E5D6AA",
/* pixels */
"                            ~.C.O.                              ",
"                          g  .e.I g                             ",
"                        E.w i.a.:.H l                           ",
"                        X.o a d d % *                           ",
"                        Q.w  . .F d Q                           ",
"                        o.m i.:.E J f                           ",
"                        [ F t.>.>.;.j                           ",
"                        ' w.n.k.v.u.j                           ",
"                      {.c p.D.v.v.t.k 6.                        ",
"                      E.A r.D.D.h.=.j Q                         ",
"                    q.L R f.G.V.s.=.P j [                       ",
"                  9. .p.M.I.I.H.S.M.x.t.T '                     ",
"                  e.p.K.P.T.L.L.N.N.N.x.r.n 3                   ",
"                8.Z -.x.K.K.c.M.N.M.M.z.=.p ,                   ",
"                o.& m T r.i.u.y.p.h.a.:.H & ,                   ",
"                F.G G <.U.c.g.y.g.k.l.1.K 1 '                   ",
"                '.M h R d.s.| v Z Y @.Y g ! 7.                  ",
"                ^.h q C %.C.F.^.^.C.| B q 5 6.                  ",
"                q.f 8 C Z.oXOX.X X XJ.| > 5                     ",
"                  a 0 ) G. XA. .e.A.J.5.t 6                     ",
"                  ~ x %.}.}.(.~./.].].~.x l                     ",
"                  j x &.|.]._.)._.].].(.W @                     ",
"                  a t ` $....._ _ ` ( ( t @ {                   ",
"                  w $ u V z 0 # > r i i > + [                   ",
"                  < > b ( N 0 # # r B u # + }                   ",
"                W.< % P #.^ y 0 q B S S $ X ~                   ",
"                q.< $ S +.) ^ W / ( ) S 9 o ]                   ",
"                C.Z T i.z.f.p.x.b.j.j.i.J % 6                   ",
"                8.Y p.Y.T.T.B.m.m.B.B.b.r.d ,                   ",
"                { a L *.y.3.3.3.2.2.U U Z < 2                   ",
"                  7 4 : ; - - = - : = ; - :                     ",
"                                                                "
};
