/* XPM */
static char *_7cf6f44592a40a8816e3941ea5a3e53HU5WGG2we5kHuszT[] = {
/* columns rows colors chars-per-pixel */
"64 64 216 2 ",
"   c #333C57",
".  c #393E53",
"X  c #383F58",
"o  c #3D4354",
"O  c #3C435B",
"+  c #494C5B",
"@  c #444958",
"#  c #525158",
"$  c #474D62",
"%  c #4D5163",
"&  c #4E546A",
"*  c #56596A",
"=  c #5E606F",
"-  c #5E6372",
";  c #60606D",
":  c #656875",
">  c #676C79",
",  c #6B6C7B",
"<  c #6F707E",
"1  c #75767F",
"2  c #706C70",
"3  c #BB9D1F",
"4  c #AB8026",
"5  c #AA832A",
"6  c #AC9A2A",
"7  c #B49C25",
"8  c #B99B22",
"9  c #AEAB37",
"0  c #BCA92D",
"q  c #F69201",
"w  c #F79801",
"e  c #FA9C03",
"r  c #F89705",
"t  c #D9BF1E",
"y  c #FAA204",
"u  c #F9AD01",
"i  c #FDA60B",
"p  c #FCAC0B",
"a  c #F7A40A",
"s  c #EEB206",
"d  c #EDB208",
"f  c #F5B503",
"g  c #FDB403",
"h  c #FDBC03",
"j  c #FDB40C",
"k  c #FBBD0B",
"l  c #F4BC0B",
"z  c #FCA513",
"x  c #FEAC15",
"c  c #F7A818",
"v  c #FAB216",
"b  c #FDB41B",
"n  c #FBB918",
"m  c #C8B322",
"M  c #D7B82F",
"N  c #FBAF20",
"B  c #FDBC23",
"V  c #FBB527",
"C  c #FDBE35",
"Z  c #FDC302",
"A  c #FFCC05",
"S  c #FDCA0A",
"D  c #FCC40A",
"F  c #FED304",
"G  c #FEDB04",
"H  c #FCD50C",
"J  c #EFC011",
"K  c #FCC517",
"L  c #FED31A",
"P  c #FCD919",
"I  c #FCE50A",
"U  c #FEF51E",
"Y  c #FCE71A",
"T  c #FDC324",
"R  c #FEC529",
"E  c #F7C527",
"W  c #FAD825",
"Q  c #FDC737",
"!  c #FCD335",
"~  c #FCEC22",
"^  c #FBE837",
"/  c #FEFC3B",
"(  c #F1AD4A",
")  c #EFAE52",
"_  c #F3B559",
"`  c #CFBC73",
"'  c #ECBA70",
"]  c #DECA52",
"[  c #F9C648",
"{  c #FED343",
"}  c #FDD64A",
"|  c #FBC459",
" . c #FED554",
".. c #FBDC5B",
"X. c #FCE84D",
"o. c #FEFA4B",
"O. c #FCF040",
"+. c #F5EA56",
"@. c #FBC76C",
"#. c #FBCA67",
"$. c #FED264",
"%. c #FED964",
"&. c #FDDB6A",
"*. c #EAC777",
"=. c #FBC772",
"-. c #FAC976",
";. c #EDD776",
":. c #FDDC72",
">. c #FDD579",
",. c #FDE164",
"<. c #FEE174",
"1. c #F2ED75",
"2. c #777985",
"3. c #7F828F",
"4. c #83848F",
"5. c #838692",
"6. c #868895",
"7. c #95959D",
"8. c #939092",
"9. c #AE9C87",
"0. c #BFA080",
"q. c #A8A399",
"w. c #9A9AA3",
"e. c #A6A5AB",
"r. c #ABB2AB",
"t. c #ACACB4",
"y. c #A9AAB6",
"u. c #BAB9B6",
"i. c #B7B6B9",
"p. c #B5B6AC",
"a. c #D9B587",
"s. c #D4B595",
"d. c #D0AA87",
"f. c #E0BC92",
"g. c #C5BAB3",
"h. c #BDC2BF",
"j. c #DDC38D",
"k. c #CDC298",
"l. c #FEC686",
"z. c #FDCC82",
"x. c #FAC98A",
"c. c #FDD483",
"v. c #FEDB83",
"b. c #FDD48D",
"n. c #FBDD8C",
"m. c #F5D681",
"M. c #E8CE9C",
"N. c #FEC791",
"B. c #FDC890",
"V. c #FED593",
"C. c #FBD69D",
"Z. c #FBDB9B",
"A. c #F3D499",
"S. c #EAD69D",
"D. c #FAE18A",
"F. c #F8EC87",
"G. c #FDF58A",
"H. c #FEE49A",
"J. c #FEEC9D",
"K. c #FDF19A",
"L. c #CCC7B8",
"P. c #D5CEAF",
"I. c #FFD9A2",
"U. c #F9D9A4",
"Y. c #E6CDB2",
"T. c #E5D2B9",
"R. c #FCE2A5",
"E. c #FFECAA",
"W. c #FCE5A9",
"Q. c #F8E8B7",
"!. c #F3EFB3",
"~. c #B9BAC1",
"^. c #C0BFC4",
"/. c #C2C1C4",
"(. c #CACCCD",
"). c #D9D1CA",
"_. c #CCCDD1",
"`. c #D3D4D4",
"'. c #DBDCDD",
"]. c #D7D8D8",
"[. c #CECFCE",
"{. c #EAD9C5",
"}. c #EADAC9",
"|. c #EBD6C1",
" X c #E5DED6",
".X c #EDE5CD",
"XX c #F4E6CC",
"oX c #F9E9C9",
"OX c #FDF9C9",
"+X c #E3E2DF",
"@X c #EDE4DB",
"#X c #EBE1D5",
"$X c #F9EDD9",
"%X c #DCDDE2",
"&X c #E0DEE1",
"*X c #DDE2E4",
"=X c #DAE9E7",
"-X c #E2E3E5",
";X c #ECE6E4",
":X c #EDE9E6",
">X c #E5E5E9",
",X c #EBEBEC",
"<X c #E9E7ED",
"1X c #F1E7E4",
"2X c #F3EDEB",
"3X c #F4EAE6",
"4X c #F4F2EC",
"5X c #F8F2EF",
"6X c #ECEEF0",
"7X c #E5EFF0",
"8X c #EFF1F5",
"9X c #EEF1F9",
"0X c #F3F3F4",
"qX c #F3F4F9",
"wX c #F8F7F7",
"eX c #E4F0EC",
/* pixels */
"                                                                                                                                ",
"                                                                                                                                ",
"                                                                                                                                ",
"                                                                                                                                ",
"                                                                                                                                ",
"                                                                                                                                ",
"                                                                                                                                ",
"                                                                                                                                ",
"                                                                                                                                ",
"                                                                                                                                ",
"                                                                                                                                ",
"                                                                                                                                ",
"                                                                                                                                ",
"                                                          X                                                                     ",
"                                                    & 7.t.e.6.* , w.i.8.% .                                                     ",
"                                          O 3.e.^. X<X<X1X&X1X1X<X2X2X<X3X_.7.%                                                 ",
"                                      X 5.&X,X2XwX5X5X2X1X1X1X@X@X@X#X#X#X@X0X2Xw.                                              ",
"                                      X i.2X0XwXwX5X5X2X2X1X@X@X#X}.}.}.}.}.4X4X].                                              ",
"                                        t.:X2X2X5X5X2X2X3X1X}.|.}.}.}.{.{.{.2X2X).X                                             ",
"                                        e.:X2X2X5X5X5X2X1X}.T.Y.Y.T.{.|.|.{.2X3X).X                                             ",
"                                        q.XXXXXX$X$X$XoXB.' _ _ ( ( ( | #.@.Q.XX).@ .                                           ",
"                                        5 n K R V.V.V.x.N e e y p y r V C [ A.U.A.Y. X'.]./.y.$                                 ",
"                                        4 j K R V.V.B.l.N q e e i y a N C [ U.I.N.d.|.<X2X].6X&X&                               ",
"                                        4 g j R V.B.N.l.N q w e q q r z x V U.U.M.` 9.i.i.i.<X<X`.                              ",
"                                        4 g l R x.N.N.l.B w w e q r z x b c R.oXT..       . ^.-X<X$                             ",
"                                        5 K R ! >.x.B.l.B e e e e x b b v a H.E.T..         7.>X<X2.                            ",
"                                        9 W E ! z.z.z.z.B i y e i x b b a c H.H.M.X         @ <X<Xw.                            ",
"                                        9 U ~ ! c.z.c.>.z i B v z i b p y x Z.Z.j..           '.6X^.                            ",
"                                        9 Y U W >.c.v.>.z y T T R B b p j b U.Z.j..           ^.qX%X@                           ",
"                                        9 Y l v -.c.c.:.i e v T R R v p j v I.I.j..           w.&X%X&                           ",
"                                        6 f f v -.-.c.@.a y y T R T i p p N I.I.f..           2.%X`.2.                          ",
"                                        6 F Z v =.-.-.#.a e e n R v i a i b I.I.f.X           2.%X%X3.                          ",
"                                        7 G G L @.@.@.| j u y a B p i i y n C.I.f..           , >X6Xe.                          ",
"                                        7 G G L @.@.#.| j g g p p i i p g I b.C.a..           > qXqXy.                          ",
"                                        7 H F L @.@.#.| j h h h u u u f I I b.V.a..           > 9X9Xy.                          ",
"                                        8 F F L @.@.$. .j h h g h h Z h Z I c.b.*..           : 9X9X~.                          ",
"                                        8 A F L $.$.%. .j g g g h h Z h f H >.m.' o         X 2.9X9X~.                          ",
"                                      . 3 A H ^ %.%...{ k g h g p g h h h K &.:.;.@           /.9X<Xt.                          ",
"                                      . 3 P / o.<.%. .{ k h h j p p p D ^ o.,.&.m.+         * wX9X8X2.                          ",
"                                      . 0 / / o.<.:. .{ D Z Z g g h h D ~ o.,.v.n.+       > u.>X0X,X*                           ",
"                                      o m ~ / o.:.:...} D Z Z Z Z Z Z S S P :.D.D.# @ = i.8X_.^._.~.O                           ",
"                                      o m G I ^ :.:.&.} S Z Z Z Z Z A S F S &.m.H.d.d.L.8XqX(.^.w.O                             ",
"                                      o m G Y %.E } &. .S Z Z Z Z Z Z A A D :.H.E.M.s.u.L.,X/.1                                 ",
"                                      o t ^ J.D.d f k E D h Z h Z Z Z D d l U.E.E.U.s.u.u.7.$                                   ",
"                            o       O o ] J.E.D.d d f Z h h h g g k D k f l S. X!.W.g.e.1 o                                     ",
"                                      $ L.Q.E.D.d d d D K B B K B B R Q E K ;.'.'..X1 O                                         ",
"                                      $ r.+XoXD.d J ~ ^ X.G.!.G.X.J.OXOX` M [ %X>X`.$                                           ",
"                                    o * r.h.,X.X;.;.+.+.+.+.1.F.} X.F.T.k.P.P.<X-Xr.% X                                         ",
"                                      - r.r.(.8X7X-X+X*X=X=X=XeXqX0X0XeX*X*X'.>Xh.r.*                                           ",
"                                      - r.r.r.*X9X9X=X=X=X=X=X7XwXwXqX6X*X*X*X`.r.y.-                                           ",
"                                    O < h.(.].=X,X,X,X`.[.[.[.'.eX,X,X:X,X0X+Xp.9.q.>                                           ",
"                                      O - w.~.(.-X6X0X`.(.[.].`.].,X@X@X#X].q.8.2 % O                                           ",
"                                              O ; < 6.6.5.5.5.5.3.3.3.2.< * O                                                   ",
"                                                  X             O                                                               ",
"                                                                                                                                ",
"                                                                                                                                ",
"                                                                                                                                ",
"                                                                                                                                ",
"                                                      O                                                                         ",
"                                                                                                                                ",
"                                                                                                                                ",
"                                                                                                                                ",
"                                                                                                                                ",
"                                                                                                                                "
};
