/* XPM */
static char *_31d8bdb85f84c92a1c5dd2d9c1e0abfIsPzQKbiVNlyzAVT[] = {
/* columns rows colors chars-per-pixel */
"64 64 229 2 ",
"   c #060505",
".  c #090705",
"X  c #0A0906",
"o  c #070708",
"O  c #080709",
"+  c #0C0B0A",
"@  c #120C07",
"#  c #120E0C",
"$  c #0E100F",
"%  c #14110E",
"&  c #1B130D",
"*  c #151212",
"=  c #1A1514",
"-  c #1D1816",
";  c #161519",
":  c #1C1A1A",
">  c #18181C",
",  c #22150D",
"<  c #231A14",
"1  c #2C1D14",
"2  c #221E1C",
"3  c #2B1F19",
"4  c #301D13",
"5  c #25211E",
"6  c #2C231C",
"7  c #372116",
"8  c #34241A",
"9  c #3C261B",
"0  c #3E2A1D",
"q  c #1D1D22",
"w  c #231F21",
"e  c #1E2226",
"r  c #1F2229",
"t  c #252223",
"y  c #2A2624",
"u  c #2E2A26",
"i  c #23252A",
"p  c #2A272A",
"a  c #25292D",
"s  c #2C2A2C",
"d  c #342B24",
"f  c #3B2D23",
"g  c #392D27",
"h  c #322D2C",
"j  c #3F3027",
"k  c #36312E",
"l  c #3C332C",
"z  c #252A34",
"x  c #2A2D31",
"c  c #2D3138",
"v  c #353232",
"b  c #3B3533",
"n  c #3E3835",
"m  c #33343A",
"M  c #393639",
"N  c #35393E",
"B  c #3D3A3C",
"V  c #432718",
"C  c #432A1C",
"Z  c #4C2C1C",
"A  c #562E1D",
"S  c #56321F",
"D  c #442E21",
"F  c #4B2E20",
"G  c #443123",
"H  c #4C3325",
"J  c #44362C",
"K  c #48372D",
"L  c #4C3A2D",
"P  c #543322",
"I  c #593624",
"U  c #5C3926",
"Y  c #513729",
"T  c #553B2B",
"R  c #5C3D2B",
"E  c #443A34",
"W  c #433D3B",
"Q  c #493E38",
"!  c #563E31",
"~  c #653928",
"^  c #633D2A",
"/  c #5C402E",
"(  c #46413D",
")  c #4C423D",
"_  c #5D4535",
"`  c #564439",
"'  c #65412D",
"]  c #6B422E",
"[  c #73442E",
"{  c #644532",
"}  c #6B4632",
"|  c #654836",
" . c #6D4A35",
".. c #664A39",
"X. c #6C4C39",
"o. c #734532",
"O. c #734B35",
"+. c #794E34",
"@. c #754938",
"#. c #734F39",
"$. c #7C5237",
"%. c #74523D",
"&. c #7C533B",
"*. c #292F40",
"=. c #2D3347",
"-. c #313546",
";. c #3C3B44",
":. c #32384B",
">. c #393C4C",
",. c #333C57",
"<. c #393F55",
"1. c #343D58",
"2. c #413D44",
"3. c #3F404A",
"4. c #3B4156",
"5. c #3B425A",
"6. c #464142",
"7. c #4B4542",
"8. c #4E4945",
"9. c #43434C",
"0. c #4B454D",
"q. c #4E4A4A",
"w. c #544942",
"e. c #534B46",
"r. c #534D4B",
"t. c #56524D",
"y. c #5A534E",
"u. c #444654",
"i. c #464957",
"p. c #4C4A54",
"a. c #43495C",
"s. c #514F54",
"d. c #4D505B",
"f. c #545253",
"g. c #5C5553",
"h. c #5D5955",
"j. c #54545B",
"k. c #5C5959",
"l. c #675448",
"z. c #6C564B",
"x. c #7A5641",
"c. c #765947",
"v. c #7D5A44",
"b. c #635856",
"n. c #635C56",
"m. c #635D5A",
"M. c #65605C",
"N. c #6A625D",
"B. c #75655C",
"V. c #4A4F61",
"C. c #4D5365",
"Z. c #595962",
"A. c #615E63",
"S. c #6B6562",
"D. c #686667",
"F. c #726A65",
"G. c #776866",
"H. c #736D6B",
"J. c #76716C",
"K. c #7A746D",
"L. c #6F6C72",
"P. c #797575",
"I. c #83553B",
"U. c #84573C",
"Y. c #8A5A3E",
"T. c #925B3E",
"R. c #835B43",
"E. c #865945",
"W. c #8B5E42",
"Q. c #925E48",
"!. c #8C6246",
"~. c #89644C",
"^. c #926245",
"/. c #94664A",
"(. c #9A6648",
"). c #946A4C",
"_. c #9C6B4B",
"`. c #8A6855",
"'. c #976B54",
"]. c #8E715B",
"[. c #9A7157",
"{. c #A26E4D",
"}. c #A96D4D",
"|. c #A6714F",
" X c #A56E51",
".X c #A37453",
"XX c #AB7654",
"oX c #AB7855",
"OX c #A5775A",
"+X c #B47957",
"@X c #B17D55",
"#X c #B47D5A",
"$X c #806D60",
"%X c #877566",
"&X c #977766",
"*X c #837B77",
"=X c #A87963",
"-X c #AD7B68",
";X c #AF805E",
":X c #BB825C",
">X c #B8855D",
",X c #89837B",
"<X c #AB8267",
"1X c #BB8766",
"2X c #BB8963",
"3X c #C18C5E",
"4X c #C38C63",
"5X c #C78B66",
"6X c #C48C6A",
"7X c #CB936A",
"8X c #CA9568",
"9X c #D19869",
"0X c #D39D6B",
"qX c #CA9877",
"wX c #D99C76",
"eX c #DAA473",
"rX c #D9A474",
"tX c #E3AD78",
"yX c #E9B47E",
"uX c #8B8682",
"iX c #958F8C",
"pX c #D8A683",
"aX c #EBB787",
"sX c #EBB788",
"dX c #ECBA95",
"fX c #F4C18B",
"gX c #F8C799",
"hX c #FBCAA5",
"jX c #FED5A8",
/* pixels */
",.,.,.,.,.,.,.,.,.,.,.,.,.,.,.,.,.,.,.,.,.,.,.,.,.,.,.5.5.5.5.5.5.,.,.,.,.,.,.,.,.,.,.,.,.,.,.,.,.,.,.,.,.,.,.,.,.,.,.,.,.,.,.,.",
",.,.,.,.,.,.,.,.,.,.,.,.,.,.,.,.,.,.,.,.,.,.,.,.,.4.d.L.P.A.5.5.Z.5.4.4.:.4.,.,.,.,.,.,.5.a.5.4.,.,.,.,.,.,.,.,.,.,.,.,.,.,.,.,.",
",.,.,.,.,.,.,.,.,.,.,.,.,.,.,.,.,.,.,.,.4.5.,.4.4.i.S.iXuXJ.P.P.Z.a.f.8.W s.5.5.,.C.C.C.D.,XP.4.,.,.,.,.,.,.,.,.,.,.,.,.,.,.,.,.",
",.,.,.,.,.,.,.,.,.,.,.,.,.,.,.,.4.4.4.d.A.s.,.p.N.m.q.L.M.N.J.F.t.M.h.f.( q.A.j.C.F.,X,XN.M.,Xu.,.,.,.,.,.,.,.,.,.,.,.,.,.,.,.,.",
",.,.,.,.,.,.,.,.,.,.,.,.,.,.,.5.p.8.h.S.S.d.p.0.M.N.( 7.k.f.y.F.K.N.M.M.h.q.M.M.B.B.B.,XM.) y.u.,.,.,.,.,.,.,.,.,.,.,.,.,.,.,.,.",
",.,.,.,.,.,.,.,.,.,.,.,.,.5.k.j.r.n ( m.y.0.7.Q S.N.( ( h.m.W 8.n.t.J.J.D.n.M.g.y.y.) M.) E ) 7.4.,.,.,.,.,.,.,.,.,.,.,.,.,.,.,.",
",.,.,.,.,.,.,.,.,.,.5.4.d.D.J.M.y.8.h.iXG.b v 2.W b s n K.*Xe.( 8.W M.e.t.M.M.y.) e.b ( ` ) g.N.4.,.,.,.,.,.,.,.,.,.,.,.,.,.,.,.",
",.,.,.,.,.,.,.,.,.,.5.d.M.F.K.,XH.b.e.m.b.W Q 2.B y u k ( 8.l b v u k W 8.e.) y.g.g.b n ) ) e.l.q.4.4.,.,.,.,.,.,.,.,.,.,.,.,.,.",
",.,.,.,.,.,.,.,.,.,.5.H.S.F.J.H.r.b W w.2.y.*Xg.b k b b ( ( 5 : 2 - : k b v ( t.n.h.e.n ) ( w.y.` g.u.,.,.,.,.,.,.,.,.,.,.,.,.,.",
",.,.,.,.,.,.,.,.,.,.a.F.N.J.P.f.b b b m.b.2.e.y.e.( B u h v h 5 y 2 5 5 : - 5 b W 8.n k E n ( ) e.N.p.4.,.,.,.,.,.,.,.,.,.,.,.,.",
",.,.,.,.,.,.,.,.1.C.k.t.e.7.h.S.7.2.2.E l 2 < y.P.H.t.t.u - ( ( s t s k $ $ 5 - 5 u 5 u g l ) n e.e.4.,.,.,.1.,.,.,.,.,.,.,.,.,.",
",.,.,.,.,.,.,.,.C.,XF.S.M.8.k 6.6.k E y < * * b J.,X8.( u - t.h.u u 2 k - * = 5 w.n 6 n ( b g l ) ) :.,.,.,.,.,.,.,.,.,.,.,.,.,.",
",.,.,.,.,.,.,.4.f.S.F.G.*XF.e.b N.b.g = = 5 k k g.y.( b y - 5 ( t.( 5 h 5 $ % l N.) E w.n.) g b E ) B ,.,.,.,.,.,.,.,.,.,.,.,.,.",
",.,.,.,.,.,.,.3.E E Q w.h.y.y.b 2.J.S.p u 7.J.n.l 6 6 u b b 5 8.8.n - & % % & 6 e.E E ) ) l d f 8 d j m ,.,.,.,.,.,.,.,.,.,.,.,.",
",.,.,.,.,.,.5.f.E b r.2.b E Q y : k H.v s v W k y - : u k u y u 2 = # % & 6 7 8 6 j Q ) E 6 d J E J ( :.,.,.,.,.,.,.,.,.,.,.,.,.",
",.,.,.,.,.,.5.M.8.b 7.y.2.2 2 t = = 2 w : = - % - - = u k k 2 = % % % % 6 G H H 7 8 ` J J f j ( 3.>.<.,.,.,.,.,.,.1.,.,.,.,.,.,.",
",.,.,.,.,.,.,.9.y W k.b M w h y 2 : * w w * 2 # = = # w b W 5 = $ < k u u L / / H 0 G l J G d d m ,.,.,.,.,.,.,.,.,.,.,.,.,.,.,.",
",.,.,.,.,.,.,.=.B r.r.b 2 p W k 2 y y p u v 2 = + - % : b h k 8.( 5 h.( E _ | %.| / H / L L d E >.,.,.,.,.,.,.,.,.,.,.,.,.,.,.,.",
",.,.,.,.,.,.,.,.2.W 6.r.2 p y.h y k h v w w < # O * = h 8.h ) r.k k t.( n.e._ ).$.$.$. .| ..` ) >.,.,.,.,.,.,.,.,.,.,.,.,.,.,.,.",
",.,.,.,.,.,.,.,.2.6.r.m.h h 2.7.v s - 2 y w > + . . # = t y y y 5 8.( l E G J v.).v.).).v.c.c.8.,.,.,.,.,.,.,.,.,.,.,.,.,.,.,.,.",
",.,.,.,.,.,.,.<.B 6.s.6.2 2 s B w * % : y v 2 +   o + . # 2 2 - 5 k u u d E L / !.!.).;Xc.c.,XJ.5.1.,.,.,.,.,.,.,.,.,.,.,.,.,.,.",
",.,.,.,.,.,.,.,.m y y u u - % % * * % ; y k w #   o . + % & = 2 5 u u 5 d E L L v.).!..X;X;X).%X5.1.,.,.,.,.,.1.,.,.,.,.,.,.,.,.",
",.,.,.,.,.,.,.,.m 2 - 2 u p = % - * # + ; > : * o O X X # # # = 5 n u - u J L L %.).)..X;X<X).,Xh.4.,.,.,.,.,.,.,.,.,.,.,.,.,.,.",
",.,.,.,.,.,.,.,.m 5 % - - : = % * * O     O + + o o o X X . . @ 5 k 5 $ < G _ | v._.@X@X3X>X..L ( 4.,.,.,.,.,.,.,.,.,.,.,.,.,.,.",
",.,.,.,.,.,.,.,.m 5 = % # $ $ + O O O O   O o o O O + o     .   $ $ $ $ $ d | v.(.:X>X>X>X)./ 6 m ,.,.,.,.,.,.,.,.,.,.,.,.,.,.,.",
",.,.,.,.,.,.,.,.M < = % $ X     O O + O     o O O O O o . .     $ $ $ $ $ , O.|.@X9X0X3X).O...l.0.,.,.,.,.,.,.,.,.,.,.,.,.,.,.,.",
",.,.,.,.,.,.,.,.B 6 % $ X   . X O O O O O   O + O + + + . . . O $ $ $ % $ , $.@X3X0X3X;Xv.%.%.%.z.a.,.,.,.,.,.,.,.,.,.,.,.,.,.,.",
",.,.,.,.,.,.,.,.<.u + # # X + X O   O O     + + + # * + O O O + $ $ $ $ % 0 ).>X8X3X>XU.} U G G l.z.a.,.,.,.,.,.,.,.,.,.,.,.,.,.",
",.,.,.,.,.,.,.,.,.s + X + + X X O O       . . + # f H , O + # O $ $ $ $ < / _.3X0X0X:X$.~ Y Y ..x.E.`.Z.1.1.1.,.,.,.,.,.,.,.,.,.",
",.,.,.,.,.,.,.,.,.m % . + + X   O         . . + ..6X+X^ C 1 # # @ $ % & d / W.>XeXyX0X2X.XE.x.c.E.Q.(.-XG.1.1.1.,.,.,.,.,.,.,.,.",
",.,.,.,.,.,.,.,.,.:.i $ + X X X .           . 4 6XXXE.~ ~ P 4 , , , & < d _ !.3XeXyXsXgXgXsXpX-XE. X-X-X&X5.,.,.,.,.,.,.,.,.,.,.",
",.,.,.,.,.,.,.,.,.,.:.r % X     .             Y wXQ.I.~ ~ ~ I C 0 0 , , f _ ).3XeXyXgXjXjXjXdXdX=XQ.-X-Xb.1.,.,.,.,.,.,.,.,.,.,.",
",.,.,.,.,.,.,.,.,.1.1.=.> # .   . .         . F 7X+X(.@.~ ^ o.[ ' ' 0 1 9 / v.2X9XtXfXgXjXjXjXhXqX^ @.0.,.,.,.,.,.,.,.,.,.,.,.,.",
",.,.,.,.,.,.,.,.,.1.1.1.=.> # . . .         . 4 }.6X}.I.^ ~ ~ o.$.$.#.P 0 H O.;X3XeXyXgXgXgXhXfXpXz.X.u.,.,.,.,.,.,.,.,.,.,.,.,.",
",.,.,.,.,.,.,.,.,.,.,.,.1.*.q # # X       . X V E.-X+X^ ~ ~ A I.$.W._.U./ T ' ;X3X0XtXsXfXsXsXqX=X`.&X`.<.,.,.,.,.,.,.,.,.,.,.,.",
",.,.,.,.,.,.,.,.,.,.,.1.1.1.=.w # @ .     . @ 4 ~ +X5XI.~ ~ A I.Y.|.2X2X).|  .).4X0XeXrXeXrXqX[.R.`.-XN.<.,.,.,.,.,.,.,.,.,.,.,.",
",.,.,.,.,.,.,.,.,.,.,.,.,.,.1.:.2 # . O .   . 4 ~ Q.7X5X+X-X~ +.T.{.3X0X2X;X].;X8XrXrXrX7X4X[.x.x.~.&XV.1.1.,.,.,.,.,.,.,.,.,.,.",
",.,.,.,.,.,.,.,.,.,.,.,.,.,.,.1.-.< @ . .   . 4 ^ E.}.wXdXdXwXqX>X(.>X3X2X<X;X2X0XrX0X7X9X2X/.X.X.z.$XG.5.1.,.,.,.,.,.,.,.,.,.,.",
",.,.,.,.,.,.,.,.,.,.,.,.,.,.,.,.1.c * O . . X 3 U @.o.+XdXhXgXjXaX(.|.;X;X;X;X;X6X0X7X8X6X;X).x.X.x.`.-XA.,.,.,.,.,.,.,.,.,.,.,.",
",.,.,.,.,.,.,.,.,.,.,.,.,.,.,.,.1.,.a * @ . # 4 T @.I.~ T.+XqXtX|.Y.^.(.^.).!.[.>X2X2X>X;XoXE.#.x.c.].`.i.,.,.,.,.,.,.,.,.,.,.,.",
",.,.,.,.,.,.,.,.,.,.,.,.,.,.,.,.1.,.,.w + X & 3 P  . .] ] ] [ [ ] +.Y.Y.Y.I.$.W.).[._._._./.E.X.l.x.`.c.<.,.,.,.,.,.,.,.,.,.,.,.",
",.,.,.,.,.,.,.,.,.,.,.,.,.,.,.,.,.,.1.-.< # & D /  .| ' ^ ^ U U ~ ] +.+.$.+.o.O.$.$.$.$.&.x.#.x.@.x.'.`.j.1.,.,.,.,.,.,.,.,.,.,.",
",.,.,.,.,.,.,.,.,.,.,.,.,.,.,.,.,.,.,.,.-.< & f / |  .U U U U I I ~ ~ ' ' ~ ^ ' ^ ^ ^ ^ { } X.X.} @.&X-X&Xa.,.,.,.,.,.,.,.,.,.,.",
",.,.,.,.,.,.,.,.,.,.,.,.,.,.,.,.,.,.,.,.1.v < 4 H ' ' / U U I P S S S S S S S S S P I T R ^ { { ^ @.`.pX-Xa.,.,.,.,.,.,.,.,.,.,.",
",.,.,.,.,.,.,.,.,.,.,.,.,.,.,.,.1.1.1.1.1.<.3 4 D / } ' / I I S S S S S Z A Z Z Z H P Y I R R _ ! R x.c.l.<.1.,.,.,.,.,.,.,.,.,.",
",.,.,.,.,.,.,.,.,.,.,.,.,.,.,.,.1.1.1.1.1.2.D 3 C / ' ' S S I S S I S Z Z V Z V V C F D H H Y Y K D D E 2.1.,.,.,.,.,.,.,.,.,.,.",
",.,.,.,.,.,.,.,.,.,.,.,.,.,.,.,.,.,.1.1.1.2.E 4 0 / ' ] ' U S / / ' ' S Z V V V V V 9 0 D D D D D g B >.,.,.,.,.,.,.,.,.,.,.,.,.",
",.,.,.,.,.,.,.,.,.,.,.,.,.,.,.,.,.,.1.1.1.j.J f C /  .} [ ' ' ]  .$.$.' Z Z V V V 0 0 C f D j b ;.,.,.,.,.,.1.,.,.,.,.,.,.,.,.,.",
",.,.,.,.,.,.,.,.,.,.,.,.,.,.,.,.,.,.,.,.5.W 5 f G /  .O.o.[ O.O.I.W./.&.U H Z C C C f G N :.,.,.1.,.,.,.,.,.,.,.1.,.,.,.,.,.1.,.",
",.,.,.,.1.,.,.,.,.,.1.,.,.,.,.,.,.,.,.,.q.5 5 0 Y ' O.+.+.+.$.$.W./._.^. .U Y P H H H ) ,.,.,.,.,.,.,.,.,.,.,.,.,.,.,.,.,.,.,.,.",
",.,.,.,.,.,.,.,.,.,.,.,.,.,.,.,.,.,.4.4.v s f.5 L %.$.$.$.I.U.W./.{.XX_.$.' R T T R ` 3.,.,.,.,.,.,.,.,.,.,.,.,.,.,.,.,.,.,.,.,.",
",.,.,.,.,.,.,.,.,.,.,.,.,.,.,.,.,.4.4.9.5 b S.x b ~.!.Y.Y.^.(.(.{.oX#X@X_.#.{ ' _ ..q.,.,.,.,.,.,.,.,.,.,.,.,.,.,.,.,.,.,.,.,.,.",
",.,.,.,.,.,.,.,.,.,.,.,.,.,.,.,.,.,.4.M 5 y.f.u M B.[.(.^._.{.}.@X#X3X#XXXY. .{ { ..2.,.,.,.,.,.,.,.,.,.,.,.,.,.,.,.,.,.,.,.,.,.",
",.,.,.,.,.,.,.,.,.,.,.1.1.,.,.,.,.,.3.i h z.y e ;.A.G.OXXXXXoX+X#X:X3X#XoX~.#. .X._ t :.,.,.,.,.,.,.,.,.,.,.,.1.,.,.,.,.,.,.,.,.",
",.,.,.,.,.,.,.,.,.,.,.,.,.,.,.,.4.4.B s e l.z.u 9.D.A.l..X#X1X:X:X3X:X+XoX).x.X.x.K * =.,.,.,.,.,.,.1.,.,.,.,.,.,.,.,.,.,.,.,.,.",
",.,.,.,.,.,.,.,.,.,.,.,.,.,.,.,.4.u.M x i x J.h.j.L.Z.;.! OX5X5X:X#X+X+X|.~.&.x.%.6 * z ,.,.,.,.,.,.,.,.,.,.,.,.,.,.,.,.,.,.,.,.",
",.,.,.,.,.,.,.,.,.,.,.,.,.,.,.,.4.3.a x a e n %XP.L.s.m i J oX5X7X5X:XoX_.!.x.x._ * * q :.4.,.,.,.,.,.,.,.,.,.,.,.,.,.,.,.,.,.,.",
",.,.,.,.,.,.,.,.,.,.,.,.,.,.,.,.3.x e a x e e N *XL.2.p w q G [.5X3X#XXX_.E.&.x.8 . * * z 5.,.,.,.,.,.,.,.,.,.,.,.,.,.,.,.,.,.,.",
",.,.,.,.,.,.,.,.,.,.,.,.,.1.,.1.N a e r a c a e m k.;.q ; ; ; u {.5X@X{.!.&.%.X.= . $ $ > 4.5.,.,.,.,.,.,.,.,.,.,.,.,.,.,.,.,.,.",
",.,.,.,.,.,.,.,.,.,.,.,.,.1.1.:.x a e a a x m a w p m w ; * ; ; 3 E.XX^.$.X.%.T . o + $ $ *.,.,.,.,.,.,.,.,.,.,.,.,.,.,.,.,.,.,.",
",.,.,.,.,.,.,.,.,.,.,.,.,.1.,.h a e e e a c m N z w i a q ; ; ; ; < %.!.%.X.X.C o + o $ $ r ,.,.,.1.,.,.,.,.,.,.,.,.,.,.,.,.,.,.",
",.,.,.,.,.,.,.,.,.,.,.,.,.1.-.p i r r a r x m ;.-.x w i a w ; > x > < ..&.X./ < + + o + $ $ =.,.,.,.,.,.,.,.,.,.,.,.,.,.,.,.,.,.",
",.,.,.,.,.,.,.,.,.,.,.,.,.>.s i r a a a a i x m ;.m x q i a q > q m b h _ T f - $ o o O ; O z ,.,.,.,.,.,.,.,.,.,.,.,.,.,.,.,.,.",
",.,.,.,.,.,.,.,.,.,.,.,.<.m i i r i x x a a a z c m c x q i a q q m.uXg.- y > + o + o o ; + q ,.,.,.,.,.,.,.,.,.,.,.,.,.,.,.,.,."
};
