/* XPM */
static char *d811a94959b445cade73b1d2488efa5cpvtzsm0wA50EfMC8[] = {
/* columns rows colors chars-per-pixel */
"32 32 217 2 ",
"   c #050101",
".  c #0C0301",
"X  c #0D0906",
"o  c #0D0C0A",
"O  c #140300",
"+  c #1A0500",
"@  c #140B04",
"#  c #1B0D04",
"$  c #120D09",
"%  c #1A0E0C",
"&  c #1D1007",
"*  c #15120D",
"=  c #1C130C",
"-  c #1C180F",
";  c #001213",
":  c #131312",
">  c #1A1412",
",  c #1D1A15",
"<  c #1C1D1C",
"1  c #171918",
"2  c #210A02",
"3  c #230F09",
"4  c #210700",
"5  c #2B1401",
"6  c #23140C",
"7  c #29150E",
"8  c #25190E",
"9  c #2B1A0C",
"0  c #251203",
"q  c #301B09",
"w  c #381C08",
"e  c #2B1610",
"r  c #241B13",
"t  c #2B1C14",
"y  c #2E1D1A",
"u  c #251A16",
"i  c #321E19",
"p  c #3C220D",
"a  c #2B2116",
"s  c #25221C",
"d  c #2C221B",
"f  c #362314",
"g  c #32241C",
"h  c #38251C",
"j  c #33291F",
"k  c #3D2A1C",
"l  c #3B2015",
"z  c #211F20",
"x  c #152725",
"c  c #172F31",
"v  c #232323",
"b  c #2B2222",
"n  c #2C2A24",
"m  c #262C2A",
"M  c #2E2B29",
"N  c #332522",
"B  c #3B2622",
"V  c #352B23",
"C  c #3B2B23",
"Z  c #342D2C",
"A  c #3B2D2C",
"S  c #3B3226",
"D  c #3D332A",
"F  c #39382B",
"G  c #3C3A36",
"H  c #3A3534",
"J  c #422817",
"K  c #4F301C",
"L  c #412C26",
"P  c #42342C",
"I  c #42392F",
"U  c #4C392E",
"Y  c #593C25",
"T  c #573F2C",
"R  c #523821",
"E  c #453B33",
"W  c #4B3C34",
"Q  c #433B3B",
"!  c #4B3D3C",
"~  c #493533",
"^  c #533B35",
"/  c #503C3B",
"(  c #3B463E",
")  c #57402E",
"_  c #5D402E",
"`  c #4A4037",
"'  c #44413F",
"]  c #4D433A",
"[  c #4C4A39",
"{  c #52463E",
"}  c #59433D",
"|  c #54463B",
" . c #644A39",
".. c #6C533F",
"X. c #2B4041",
"o. c #374643",
"O. c #4C4544",
"+. c #534446",
"@. c #5A4442",
"#. c #554B42",
"$. c #594B44",
"%. c #564A4A",
"&. c #5D4C4B",
"*. c #504748",
"=. c #5A5047",
"-. c #5D534A",
";. c #595A4D",
":. c #565547",
">. c #404F52",
",. c #445252",
"<. c #5A5651",
"1. c #5C5C54",
"2. c #545955",
"3. c #634D46",
"4. c #674F4B",
"5. c #62554E",
"6. c #68564F",
"7. c #645B4D",
"8. c #685848",
"9. c #624F51",
"0. c #645353",
"q. c #6B5754",
"w. c #655B53",
"e. c #6A5D54",
"r. c #615F5A",
"t. c #6A5A5B",
"y. c #735B55",
"u. c #745D58",
"i. c #735A46",
"p. c #5E605D",
"a. c #6A6156",
"s. c #67615A",
"d. c #6E635A",
"f. c #65695F",
"g. c #73645C",
"h. c #7B645E",
"j. c #72685F",
"k. c #776756",
"l. c #7A725B",
"z. c #6F5F60",
"x. c #626663",
"c. c #6B6A66",
"v. c #6B6B67",
"b. c #726463",
"n. c #746B62",
"m. c #786E64",
"M. c #716E6C",
"N. c #7B6F6A",
"B. c #7A6665",
"V. c #6F7164",
"C. c #727165",
"Z. c #7C7266",
"A. c #7C7269",
"S. c #74726C",
"D. c #7D7D78",
"F. c #806456",
"G. c #806C65",
"H. c #827666",
"J. c #80766D",
"K. c #8B756B",
"L. c #82796F",
"P. c #897967",
"I. c #957969",
"U. c #847A73",
"Y. c #897F76",
"T. c #837670",
"R. c #907971",
"E. c #9D836E",
"W. c #8B8274",
"Q. c #8D837A",
"!. c #93847D",
"~. c #958779",
"^. c #9C927F",
"/. c #97907D",
"(. c #A18A77",
"). c #858584",
"_. c #938D82",
"`. c #998C84",
"'. c #918988",
"]. c #9F9186",
"[. c #9E9493",
"{. c #9D9A91",
"}. c #8E9897",
"|. c #AE9B8C",
" X c #A59688",
".X c #BC9D85",
"XX c #A39B90",
"oX c #AC9C93",
"OX c #A49B96",
"+X c #BEA28C",
"@X c #ADA39A",
"#X c #AAA097",
"$X c #B5A294",
"%X c #BBA492",
"&X c #B2A19A",
"*X c #BCAA9C",
"=X c #AD9EA1",
"-X c #B4AAA1",
";X c #BBAEA3",
":X c #B4AAA9",
">X c #BEB4AB",
",X c #BCB7B1",
"<X c #C1A38B",
"1X c #C6AB95",
"2X c #C2AD9D",
"3X c #C8AE9A",
"4X c #CCAE96",
"5X c #C6B09F",
"6X c #CCB19B",
"7X c #C3B2A4",
"8X c #CAB5A4",
"9X c #CCB9AB",
"0X c #D3BBA9",
"qX c #C8BEB5",
"wX c #D5C5B7",
"eX c #D4C7B9",
"rX c #D6CCC3",
/* pixels */
"w.a.d.j.A.Q._._.Q.Y.J.j.e.a.a.t.e.a.a.5.;.=.<.1.;.s.1.v.D.v.2.p.",
"Q.`.XXoX-XqXrXrXrXqX#XY.n.A.U.Q.j.A.W.A.Z.n.n.N.s.S.M.v.S.x.2.1.",
"@X;X,X-X@X@X@XoX-XOXQ.a.=.w.j.m.w.g.Z.m.d.d.N.U.OX,X:X'.).D.M.M.",
"n.A.Y.Y.Q.Q.Q.A.U._.Q.N.d.n.n.a.5.e.a.=.] ` -.b.U.{.).<.! Q M z ",
"a.j.C.A.U.U.n.w.n.Q.`.W.A.Z.j.w.6.k.h.6.} U / &.T.OX'.t.*.O.H A ",
"n.J.U.U.U.A.e.] W 1.a.#.W #.$.{ ~ 3.h.G.u.6.4.5.0.N.b.%.%.+.Q Q ",
"C #.n.A.A.A.n.d.W -.=.S d D ] W L } y.h.B.u.e.q.+.q.0.9.t.9.+.+.",
"V =.A.A.d.w.-.w.w.A.d.I r V V g y.u.u.y.4.@.@.} / +.+.9.z.9.! +.",
"D V =.J.n.w.=.#.w.{ ` D & a I d 4.F.u.^ L ~ ~ B B.3.&.t.z.z.t.~ ",
"a V 5.U.d.#.E j ] D S a @ = S W q.y.4.L e i B C / %.@./ t.:X=X+.",
"E ] 5.-.E E E j d j V E #.W S W L ~ U L L i i N N / +.z ! [.[.Q ",
"] #.=.` D ] $.D ` S s W A.=.r t h h L ~ ~ i t g i z A A b Q *.Q ",
"F ] =.#.{ a.-.a w.` r d ] V # d g.@.P C r # - V d @ u H Z z H *.",
"e.w.5.] S E I @ I I S P W C F -.a.$.I S j - r j d o * s Z Q ' m ",
"A.a.$.V & r S V V V E ] W ] -.-.I I I I D j s , u * * , v G H : ",
"F D ` H r j { -.a.P r 6 * S E 6 { W S a r r 8 - * X , M v z M v ",
";.p.a F V t 3.t i h 7 # t g d D S C j a 6 & @ @ - r d M n s , , ",
"V.;.* F S 6 W 7 O 7 e i P V r a r t t 9 = & 8 r & - r d y , = > ",
"V.[ - I ` 8 B 7 O 3 t g P d $ & = 8 t - @ @ & r t g V V n d r a ",
"[ [ a D I # 6 2 2 y 7 = r = . @ % - , = @ . @ r - a j a t 8 8 6 ",
"k./.l.7.| k h C e i % O .     :   . $ X X # r V t S U J f f h f ",
"^.eX*Xl.8.} P U % e % . $ .   < : o o o X * r t + a k k q q q 5 ",
"l.^.W.l.K.y.e e 3 y u % > o o u m z : o @ $ # # k.~.(.(.E.E.E.I.",
"7.l.W.^.wXoXL B i L b > : o o x v 1 o o * , r 6 ~.*XwX8X4X4X4X<X",
"8.7./.l.[ /...8 7 N N % . $ , : : o z X * * . e.9X8X5X1X+X+X.X(.",
"S :.^.l.& ^.&X{ % e y % . . X X o   X $ @ + S ].9X8X2X1X+X<X<X4X",
":.F /.{.C `.eX`.7 3 3 7 # O . @ * .   = . # Z.wX9X8X6X6X1X1X4X4X",
"f.n f.{.a.T.&X!.^ e + 4 6 + O @ # @ . & . 8 $XwX9X9X9X8X6X4X4X1X",
"m o.p.p.<.r.T.g.K.^ 4 + 2 4 O O . # . + + U 7X8X8X8X8X2X2X%X%X%X",
"x X.2.x.x.n 0.|.oXy.l 4 2 2 + O O 2 5 q J y.2X8X;X2X*X*X$X$X|.|.",
"X.c ,.}.).. %.oX XK. .J w w p 5 p J ) )  .k.P.2X*X*X*X*X*X$X|.|.",
"c ; o.).x.o %.P R.I.F._ K Y Y R  .Y i.8.8.T k (.2X2X7X7X7X7X;X*X"
};
