/* XPM */
static char *eae270ce194b4d6391a04dd83638961aRAGVeW1Iqeu4i3hG[] = {
/* columns rows colors chars-per-pixel */
"64 64 251 2 ",
"   c #372728",
".  c #35221B",
"X  c #5C0505",
"o  c #59171B",
"O  c #630101",
"+  c #6E0203",
"@  c #660A0A",
"#  c #720101",
"$  c #7B0404",
"%  c #7C0A0C",
"&  c #75090B",
"*  c #7D1112",
"=  c #781519",
"-  c #6E1414",
";  c #59241A",
":  c #64261E",
">  c #792F16",
",  c #581F25",
"<  c #771722",
"1  c #621A23",
"2  c #5E2322",
"3  c #542423",
"4  c #4F3434",
"5  c #612222",
"6  c #652A29",
"7  c #67342A",
"8  c #673837",
"9  c #783B36",
"0  c #74322B",
"q  c #57423B",
"w  c #43473E",
"e  c #65453A",
"r  c #764536",
"t  c #7C4527",
"y  c #28324F",
"u  c #27314E",
"i  c #2B3451",
"p  c #2D3C5B",
"a  c #2D3A57",
"s  c #333C57",
"d  c #353E59",
"f  c #3A3C52",
"g  c #3E354D",
"h  c #4F394F",
"j  c #6D3944",
"k  c #2B415D",
"l  c #3A4259",
"z  c #3C464D",
"x  c #444959",
"c  c #545857",
"v  c #524A47",
"b  c #684A46",
"n  c #764846",
"m  c #6F5651",
"M  c #5B625B",
"N  c #756857",
"B  c #505566",
"V  c #5D6272",
"C  c #646763",
"Z  c #747973",
"A  c #706D6A",
"S  c #86080A",
"D  c #811112",
"F  c #891618",
"G  c #97191A",
"H  c #8F0B0E",
"J  c #A70302",
"K  c #B50302",
"L  c #B90807",
"P  c #A71718",
"I  c #B71817",
"U  c #B10F10",
"Y  c #8E3113",
"T  c #AC310E",
"R  c #8B1520",
"E  c #851821",
"W  c #9A1B22",
"Q  c #8A2728",
"!  c #992727",
"~  c #882E33",
"^  c #8C3434",
"/  c #9B3334",
"(  c #963637",
")  c #90332D",
"_  c #A92929",
"`  c #BC2B2C",
"'  c #B62626",
"]  c #B7352B",
"[  c #A53334",
"{  c #AC3333",
"}  c #A7373A",
"|  c #B43332",
" . c #B73737",
".. c #AE2F32",
"X. c #AD1F21",
"o. c #CD0203",
"O. c #C80808",
"+. c #D20204",
"@. c #D4090B",
"#. c #CD1314",
"$. c #C61C1B",
"%. c #C91A1B",
"&. c #D51719",
"*. c #CD1110",
"=. c #E81C1B",
"-. c #F31D1D",
";. c #C73402",
":. c #DB201D",
">. c #CB2F10",
",. c #E8201E",
"<. c #C22523",
"1. c #C62928",
"2. c #D23534",
"3. c #E82A2B",
"4. c #F52626",
"5. c #E92E31",
"6. c #E42E32",
"7. c #E83436",
"8. c #F83636",
"9. c #FA352F",
"0. c #B64B10",
"q. c #884738",
"w. c #984A35",
"e. c #944F30",
"r. c #B85935",
"t. c #AE522E",
"y. c #B06F33",
"u. c #A15724",
"i. c #C94F11",
"p. c #E85304",
"a. c #D2660E",
"s. c #F47904",
"d. c #F46F10",
"f. c #C45838",
"g. c #CD4F2A",
"h. c #FF4F37",
"j. c #D67729",
"k. c #CD6C2F",
"l. c #EB6F27",
"z. c #943743",
"x. c #DD3B40",
"c. c #CA3C40",
"v. c #F13B44",
"b. c #964947",
"n. c #875646",
"m. c #8F5650",
"M. c #AA5454",
"N. c #B04F4B",
"B. c #956953",
"V. c #AD6F4E",
"C. c #937266",
"Z. c #B86967",
"A. c #A87677",
"S. c #B0766D",
"D. c #AC5F64",
"F. c #CC474A",
"G. c #D84648",
"H. c #CA5A56",
"J. c #F94647",
"K. c #E6514A",
"L. c #CA7448",
"P. c #C96F57",
"I. c #C7686B",
"U. c #D07172",
"Y. c #EA7274",
"T. c #DF6659",
"R. c #F38202",
"E. c #E8AE0E",
"W. c #FD8625",
"Q. c #F68936",
"!. c #D1AC2C",
"~. c #E8B623",
"^. c #E4D02D",
"/. c #998977",
"(. c #AE8E70",
"). c #AB8A5C",
"_. c #D58D51",
"`. c #E89051",
"'. c #D0B24E",
"]. c #E9AB56",
"[. c #CF926E",
"{. c #EA8E71",
"}. c #D4AC71",
"|. c #E7A67A",
" X c #EBAC75",
".X c #E3CB6B",
"XX c #E3D85F",
"oX c #787C85",
"OX c #6D7280",
"+X c #BA7E81",
"@X c #CF7D85",
"#X c #E37D83",
"$X c #7E828D",
"%X c #7C8087",
"&X c #85888A",
"*X c #878B95",
"=X c #969796",
"-X c #9B9A89",
";X c #A39F9A",
":X c #B3988E",
">X c #9FA29C",
",X c #A4A29D",
"<X c #ABA193",
"1X c #B7AD91",
"2X c #A7A5A1",
"3X c #A8A7A2",
"4X c #ABAAA5",
"5X c #AEAEA9",
"6X c #B3ABA9",
"7X c #B3B2AC",
"8X c #B8B9AD",
"9X c #BAB6B1",
"0X c #BCBAB5",
"qX c #B9B8B5",
"wX c #AEB0AC",
"eX c #CA9A98",
"rX c #D28F94",
"tX c #E99094",
"yX c #CEB090",
"uX c #EFB28A",
"iX c #D299A9",
"pX c #D7ABAB",
"aX c #CABBAA",
"sX c #C2BEBA",
"dX c #C5B8B6",
"fX c #D7B9B8",
"gX c #CAA8A9",
"hX c #E8A7AD",
"jX c #BDC2BF",
"kX c #D5CB93",
"lX c #C5C2BD",
"zX c #C8C3BB",
"xX c #CDC5B1",
"cX c #E6D3AC",
"vX c #E5BEC0",
"bX c #DEBFC0",
"nX c #BBC5C5",
"mX c #C6C5C2",
"MX c #C9C6C3",
"NX c #CDCBC5",
"BX c #D7C8C7",
"VX c #D5D3CB",
"CX c #D8D5CE",
"ZX c #DCD8C7",
"AX c #DAD7D5",
"SX c #CEDBDB",
"DX c #E6DAD9",
"FX c #E6C8C6",
"GX c #E9E8CD",
"HX c #E8EEEE",
"JX c #D5E4E5",
/* pixels */
"s s s s s s s s s s s s s s s s s s s s l y l 4 , o o o : 5 6 6 j j j h h h h g f f s p p a a s s s s s s s s s s s s s s s s s ",
"s s s s s s s s s s s s s s s s s s d s y x =X2 Q - O + & D G G W _ [ } .._ _ X.P P G G E z.j g s s s s s s s s s s s s s s s s ",
"s s s s s s s s s s s s s s s s l a i l $X0X0X2 ( - O + & * F Q ! ! / [ [ _ _ I I L L K o.9.=.1 k s s s s s s s s s s s s s s s ",
"s s s s s s s s s s s s s s s s a k $X0XNXlX9X2 ^ = O + % S F G ! ! / } { _ _ I I L K K K 7.:.< k s s s s s s s s s s s s s s s ",
"s s s s s s s s s s s s s s s a V jXVXmXsX0X0X2 ( * O & & D F W ! [ / [ { ..' I I L L K O.v.=.< k s s s s s s s s s s s s s s s ",
"s s s s s s s s s s s s s s d y $XCXjXlXlXsX0X2 ^ * O @ & S F E W ! / / [ _ X.I I O.O.*.>.l.3.< k f s s s s s s s s s s s s s s ",
"s s s s s s s s s s s s s s d i $XVXmXlXlXsXqX2 / = @ D Y T >.g.g.g.r.F.g.t.g.g.i.T 0.T T h.5.= k d s s s d s s s s s s s s s s ",
"s s s s s s s s s s s s s s s y *XVXlXlXlXsX0X2 } G J O.-.9.h.J.v.J.J.G. .] X.P P U J W H x.5.= k d s s s s s s s s s s s s s s ",
"s s s s s s s s s s s s s s l u *XVXmXmXlXlX0X2 G.%.| @XT.hXCXtXtXDXY.bXZ.fXBXD.I.sXM.SX~ 7.5.E k s s s s s s s s s s s s s s s ",
"s s s s s s s s s s s s s s d u *XCXmXmXlXsX0X2 x.c.7XA.SXmXU.DXdXAXiXDXrXAXHXgXiXNX+X3XD.6.8.< k s s s s s s s s s s s s s s s ",
"s s s s s s s s s s s s s s d u *XCXmXMXlXlXqX2 x.c.dXiX:XfXDXgXdXvXbXDXAXAXMXdXqX6X3X:X6Xx.5.F k s s s s s s s s s s s s s s s ",
"s s s s s s s s s s s s s p l y *XAXMXMXlXlX0X2 x.F.9XD.AXsXiXDXDXFXHXAX@XHXdXBXdXqXJX+XqXI.4.< k d s s s s s s s s s s s s s s ",
"s s s s s s s s s s s s s s d u *XVXmXMXlXlX0X6 x.F.nX:X:X6XH.cX@Xv.FXpXZ.dX:X+X+X+X/.S G G.4.E k s s s s s s s s s s s s s s s ",
"s s s s s s s s s s s s s s d i $XCXmXNXlXlX0X2 x.1.D.} =.4.h.9.8.J.v.g.1.X._ P U H J G P G.4.R p s s s s s s s s s s s s s s s ",
"s s s s s s s s s s s s s s d i *XCXNXMXlXlX0X5 G.L J >.g.j.j.L.L.P.P.P.P.L.f.g.1.1.1.$.*.5.,.E p s s s s s s s s s s s s s s s ",
"s s s s s s s s s s s s s s d u *XCXMXMXlXlXsX5 G.y.y.w.) Q ! W ! [ { } } ` ' %.#.O.+.o.o.5.-.F p d s s s s s s s s s s s s s s ",
"s s s s s s s s s s s s s s d i *XCXmXMXmXsX0X1 N.e.@ $ S S G P _ _ { { | ` ' $.#.*.o.O.o.5.-.R k s s s s s s s s s s s s s s s ",
"s s s s s s s s s s s s s s d u *XCXNXMXmXsX0X5 / & # % S H G P _ [ {  .] 1.<.$.#.@.O.o.o.7.-.R k p s s s s s s s s s s s s s s ",
"s s s s s s s s s s s s s s d u *XCXNXMXlXlX0X5 / * + $ D H G W _ _ { { ] ` ` %.#.@.o.o.o.5.-.R p s s s s s s s s s s s s s s s ",
"s s s s s s s s s s s s s s d i *XCXmXMXlXlX0X5 / * + & $ S J P X._ ..| ..` <.$.#.@.+.o.o.5.-.R k s s s s s s s s s s s s s s s ",
"s s s s s s s s s s s s s s l y *XCXzXmXlXsX0X5 / * + $ ^ M.D.M._ _ _ { ` ` <.$.#.@.O.o.+.3.-.F k s s s s s s s s s s s s s s s ",
"s p d s s s s s s s s s s s d y *XCXmXmXlXlX0X5 / * # m.$X/.N A M._ { | | ` <.$.#.@.@.o.+.5.-.R p s s s s s s s s s s s s s s s ",
"s s s s s s s s s s d s s s d y *XCXmXzXmXsX0X5 / * & m b B.B.e m...{ { | ` <.%.&.@.o.o.+.5.-.R k s s s s s s s s s s s s s s s ",
"s s s s s s s s s s p s s s d u *XVXmXlXlXlX0X5 / * # 0 q e.t.q.m t.{  .` ` <.%.&.+.+.+.+.5.-.W k s s s s s s s s s s s s s s s ",
"s s s s s s s s s s s s s s d i *XVXmXlXlXsX0X5 / D + F t i.d.a.r.M.{ { | ` <.%.*.2.Z.m.{ 5.-.W k d s s s s s s s s s s s s s s ",
"s s s s s s s s s s s s s s d u &XVXmXlXsXsXqX: / * + % e.a.R.R.a.M. .{ ` ` 1.%.%.C.C e 8 v.-.W k s s s s s s s s s s s s s s s ",
"s s s s s s s s s s s s s s d y oXVXlXsXsX0X0X5 / % + $ ^ 0.s.s.l.r.M... .` <.$.&.w.> 0.: G.-.W k d s s s s s s s s s s s s s s ",
"s s s s s s s s s s s s s p d y $XVXlXlX0XdXqX5 / D + $ ~ 0.s.s.d.y.A. .` ` <.%.#.1.0.a.0.V.-.G k s s s s s s s s s s p s s s s ",
"s s s s s s s s s s s s s s d y $XVXmXsXsX0XqX: / D + $ Q w._.yXaX1XyXI.` ` <.%.@.&.t.a.i.r.6.G k s s s s s s s s s s s s s s s ",
"s s s s s s s s s s s s s s d y oXVXsXsXsXqX9X5 / D # $ E }.kXGX.XyX.X}.| ` <.%.#.@.t.0.k.(.H.G k s s s s s s s l s s s s s s s ",
"s s s s s s s s s s s s s s l y $XNXsXsX0X9X0X5 / * # $ % _..XyXyXiX{.'.I.' <.$.#.@.M.}.1X1X]./ a s s s s s s s a s s s s s s s ",
"s s s s s s s s s s s s s s d y $XNXsX0X0X9X9X5 / * + $ $ V.`.iXiXpXeX/.A.2.<.%.#.+.f.}.[.eX[.m s s s s s s s s s s s s s s s s ",
"s s s s s s s s s s s s s s d y &XNX0X0XqX8X8X6 / * # % S b.(.[.|.[._.f.m.M.1.$.#.+.1.V.S.yXV.7 p d s s s s s s s s s s s s s s ",
"s s s s s s s s s s s s s s d y &XMX0X0X0XwX8X8 / * + $ S ~ q.j.`.{.|.[.L.m.M.:.*.@.&.e.r.[._.r p d s s s s s s s s s s s s s s ",
"s s s s s s s s s s s s s s d i &XmX0X9X7X7X8XC.M.S # % S ! B._. X XuX X`.k.n N.=.+.%.e.k.}.].q.p d s s s s s s s s s s s s s s ",
"s s s s s s s s s s s s s s d i +XmX9X0X7X7X*X).B.X X X O 0 r V.V.V.V.y.u.u.Y 4 Q H F t u.V.y.e p d s s s s s s s s s s s s s s ",
"s s s s s s s s s s s s s s d y %XqXwXwX7X7X2Xm.(.0 X @ & 9 Y 0.k.j.j.j.k.k.i.Y b #.! Y 0.j.s.u.a s s s s s s s s s s s s s s s ",
"s s s s s s s s s s s s s s d i $XnXqXwX7X5XqXC.S.q.$ $ F q.0.d.W.W.Q.Q.W.d.d.i.8 1.' Y ;.W._.m p s s s s s s s s s s s s s s s ",
"s s s s s s s s s s s s s s s y %XlX7X7X7X4X7Xy._.q.6 S H r / p.d.d.d.Q.`.Q.l.4.> w.&.6 T (.yXA a s s s s s s s s s s s s s s s ",
"s s s s s s s s s s s s p p l y oXjXwXwX7X5X7XS. Xi.> 8 H n > p.d.W.}.aX1X<X(.V.Y 9 =.Y 7 (.uX-Xs s s s s s s s s s s s s s s s ",
"s s s s s s s s s s s s s s l y $X0XwXwX5X4X7Xy.Q.a.T - 0 ! e i.l.<XaX}..X|.}.C.N v <.I q (.}.m p s s s s s s s s s s s s s s s ",
"s s s s s s s s s s s s s s l i oX0X5X6X4X4XwXa.W.a.p.T 7 G r Y C.(.uXGXGXcXxX1Xt.b ( @.} U.#Xj a d s s s s s s s s s s s s s s ",
"s s s s s s s s s s s s s s l y oX0X4X5X5X,XwXr.`.j.t.;.7 ! ^ r C.S.VXyXXXE.[.K.8.5.| #.$.eXVXV i d s s s s s s s s s s s s s s ",
"s s s s s s s s s s s s s s s y oX9X4X5X5X,X5X(.kX(.B.n.e 0 _ m C.[.cX]. XT.#XtXrX:X2.#.O.I.tX^ p d s s s s s s s s s s s s s s ",
"s s s s s s s s s s s s s s l i oX7X5X4X,X,X7X).cXkX(./.9 n ! b.P.Y.#XY.hXhXFXBXfXsXA.1.*.F.Z.r a s s s s s s s s s s s s s s s ",
"s s s s s s s s s s s s s s s y oX0X4X4X5X,XwX-XkX!.k.G.5.c./ { T.fXbXvXFXDXcXhX#XU.c. .#.N.V.A p s s s s s s s s s s s s s s s ",
"s p s s s s s s s s s s s s s y oX7X4X3X3X,XwXS.{.P.I.iXaXrX} ! F.pXCXDXfXhX#XI.I.a.w.9 $.G.t.Y p s s s s s s p s s s s s s s s ",
"s s s s s s s s s s s s s s l y oX7X3X4X3X,X7XS.hXpXgXeX@XI.F./  .#XhXY.Y.Y.iX}.^.!./.v ~ v.w.> p d s s s s s s s s s s s s s s ",
"s s s s s s s s s s s s s s s i oX7X3X4X,X,X5X<XBXrXI.H.!.t.m.z.} F.H.T.].XXXX^.E._./.> 8 J.N.  d d s s s s s s s s s s s s s s ",
"s s s s s s s s s s s s s s l i oX7X3X3X3X,X7XM.T.T.).'.E.(.m b.{ b./.8X X^.].].}.8X).;.; H.-.< p d s s s s s s s s s s s s s s ",
"s s s s s s s s s s s s s s s y oX7X3X3X,X,X4Xn yX'.!.!.[.:Xi.n.w.b.r.[.xXcXGXFXxX[.p.;.> D.3.H k s s s s s s s s s s s s s s s ",
"s s s s s s s s s s s s s p l y oXwX3X3X3X,X5X0 [.1XyXyX}.l.p.w.M.b.b.l.`.].].W.s.p.p.;.D C 6.F k s s s s s s s s s s s s s s s ",
"s s s s s s s s s s s s s s d i oXwX3X3X,X,XwX7 l.a.j.s.p.p.0.8 n } m.r.l.d.s.s.p.0.Y ; . N 3.D d d s s s s s d s s s s s s d s ",
"s s s s s s s s s s s s s s d i Z 7X3X3X,X>X4Xv r.i.T Y > 4 8 n / _ C.w.l.k.r.q.e 4 4 3 = 7.&.F p s s s s s s s s s s s s s s s ",
"s s s s l s s s s s s s s s d i %X7X3X3X3X,X4X8 m.2 . 4 8 0 Q W ! ! M.N r e v b n ) X.L L 6.&.= k s s s s s s s s s s s s s s s ",
"s s s s p s s s s s s s s s l i %X7X3X3X,X,XwXo b.6 @ - & % D F ! Q / M.n b.{ ' I L K J J 6.:.< k d s s s s s s s s s s s s s s ",
"s s s s s s s s s s s s s s s i %X7X2X3X2X;X5X; ^ & O @ & D F R W ! / [ ..' ' I U L L K K 5.,.< k s s s s s s s s s s s s s s s ",
"s s s s s s s s s s s s s s l i $X7X2X3X2X;X6X3 ^ - O + % D F G ! ! / } { _ _ X.I L L K K 6.=.< k s s s s s s s s s s s s s s s ",
"s s s s s s s s s s s s s s s a x =X7X2X2X,XwX3 ~ = O @ & D F G ! ! / } [ ..' I I U L K K 8.-.< k s s s s s s s s s s s s s s s ",
"s s s s s s s s s s s s s s s s i l &X4X2X=X7X3 ^ & O + % H G G ! _ } { ..' X.I L K K J J ' G 4 s s s s s s s s s s s s s s s s ",
"s s s s s s s s s s s s s s s s d s a V >X,X=X3 ) = X @ @ @ - : 5 2 6 2 6 2 8 8 8 b b m m Z M z s s s s s s s s s s s s s s s s ",
"s s s s s s s s s s s s s s s s s s s i x >X&X  m C v v v c c M M C A A Z Z Z Z Z Z &X,X>X7X=Xx s s s s s s s s s s s s s s s s ",
"s s s s s s s s s s s s s s s s s s s d a x %XC wXAX=XoX-XZ C M C B c c c x z l z d f x l l l p s s s s s s s s s s s s s s s s ",
"s s s s s s s s s s s s s s s s s s s p d p a B OXZ V V x i f s s d s a a a s a s p s a p s s s s s s s s s s s s s s s s s s s "
};
