/* XPM */
static char *_5dfa1701e0545e2866bc83a9df228c0tgrg3so9oGu4qSca[] = {
/* columns rows colors chars-per-pixel */
"32 32 67 1 ",
"  c None",
". c #222222",
"X c #232323",
"o c gray14",
"O c #252525",
"+ c gray15",
"@ c #272727",
"# c gray16",
"$ c #2D2D2D",
"% c gray18",
"& c #2F2F2F",
"* c #343434",
"= c gray21",
"- c #373737",
"; c gray22",
": c #444444",
"> c #4C4C4C",
", c #4E4E4E",
"< c gray31",
"1 c #505050",
"2 c #555555",
"3 c #565656",
"4 c gray34",
"5 c #585858",
"6 c gray35",
"7 c #5B5B5B",
"8 c #5D5D5D",
"9 c gray38",
"0 c #626262",
"q c gray39",
"w c #646464",
"e c #686868",
"r c DimGray",
"t c gray42",
"y c #6D6D6D",
"u c gray44",
"i c #717171",
"p c gray45",
"a c #747474",
"s c gray46",
"d c #767676",
"f c #777777",
"g c #797979",
"h c gray48",
"j c #7B7B7B",
"k c #7C7C7C",
"l c gray49",
"z c #7E7E7E",
"x c #818181",
"c c gray51",
"v c #838383",
"b c #848484",
"n c gray53",
"m c #898989",
"M c gray54",
"N c gray55",
"B c #8D8D8D",
"V c #8E8E8E",
"C c gray56",
"Z c #909090",
"A c gray57",
"S c #929292",
"D c #939393",
"F c gray58",
"G c #959595",
"H c gray59",
"J c #989898",
/* pixels */
"                                ",
"                                ",
"            OOOOOOOOO           ",
"           *=========%          ",
"          .;222222225;.         ",
"          :2tttyttwq5;O         ",
"         #fHHSHSHHMp8;O         ",
"         #fSNNNMMSMf5;O         ",
"         #fNzhhzzNMf5;O         ",
"         #fNhxxxhNMf8;.         ",
"         #fNzSHNzNMf8;O         ",
"         #fNzSbhhSMh5;O         ",
"         #fNzSq<hNMf5;O         ",
"         #fNzMt8hSMf8;O         ",
"         #fNhhhhzNMf5;O         ",
"         #fNzxftzNMf8;.         ",
"         #fNzSq<hSMf5;O         ",
"         #fNzNq<hNMf8;O         ",
"         #fMzSq<hSMf8;O         ",
"         #hMzSfwhNbf5;.         ",
"         #fNzSSNzNMf5;O         ",
"         #fNzSHNzSMf5;O         ",
"         #fNzSHNzNNf8;O         ",
"         #fNzMNbhNMf8;.         ",
"         #fNzhhzzNMf5=O         ",
"         #fNxbbbbNMp<=          ",
"         #fJHHHHHHMp%           ",
"         Oqppypyypt5%           ",
"          OO#O#O#O#O            ",
"           OOO.OO.OO            ",
"                                ",
"                                "
};
