/* XPM */
static char *ab8fe7ea18b448e0c645bc1105350126W7reriqdJeepcP5z[] = {
/* columns rows colors chars-per-pixel */
"64 96 171 2 ",
"   c None",
".  c #0F1D0D",
"X  c #1B1513",
"o  c #241D19",
"O  c #1B250E",
"+  c #132612",
"@  c #162B13",
"#  c #182D15",
"$  c #193115",
"%  c #1F3D1B",
"&  c #243717",
"*  c #25351D",
"=  c #223D1C",
"-  c #3A2E29",
";  c #393028",
":  c #4C3E34",
">  c #22421E",
",  c #25481F",
"<  c #2B4A1F",
"1  c #32431B",
"2  c #304E1F",
"3  c #254520",
"4  c #2A4C22",
"5  c #334E22",
"6  c #364E2A",
"7  c #2D5427",
"8  c #2E5924",
"9  c #2C5428",
"0  c #2E5C2A",
"q  c #325525",
"w  c #335C26",
"e  c #3F5A25",
"r  c #315729",
"t  c #3B562F",
"y  c #335D2B",
"u  c #385E2C",
"i  c #375831",
"p  c #386527",
"a  c #36612B",
"s  c #3B652C",
"d  c #3E692D",
"f  c #3F6930",
"g  c #4F463A",
"h  c #54453D",
"j  c #405530",
"k  c #475C35",
"l  c #476228",
"z  c #436D2E",
"x  c #496D2D",
"c  c #46702E",
"v  c #49722E",
"b  c #4B782E",
"n  c #517C2F",
"m  c #456E30",
"M  c #4C653A",
"N  c #477030",
"B  c #4B7531",
"V  c #4F7832",
"C  c #517431",
"Z  c #537C33",
"A  c #597F35",
"S  c #5C4D42",
"D  c #5D5346",
"F  c #614B40",
"G  c #655549",
"H  c #69574B",
"J  c #6A594D",
"K  c #4C7141",
"L  c #577944",
"P  c #53754B",
"I  c #577C4E",
"U  c #5A7E4C",
"Y  c #578034",
"T  c #5C8435",
"R  c #5F8934",
"E  c #618736",
"W  c #628937",
"Q  c #638639",
"!  c #658C38",
"~  c #688F39",
"^  c #66903A",
"/  c #6A913A",
"(  c #6B913A",
")  c #6A903A",
"_  c #6B933B",
"`  c #699039",
"'  c #6C923A",
"]  c #6C933A",
"[  c #6C933B",
"{  c #6D933B",
"}  c #6D933B",
"|  c #6A943B",
" . c #6D943B",
".. c #6E943A",
"X. c #6E943B",
"o. c #6E953B",
"O. c #6F953B",
"+. c #6F953C",
"@. c #6F963C",
"#. c #6C933A",
"$. c #70953B",
"%. c #70963B",
"&. c #70963A",
"*. c #769739",
"=. c #72943C",
"-. c #70963C",
";. c #71973C",
":. c #75973D",
">. c #71963B",
",. c #769839",
"<. c #71983C",
"1. c #72983C",
"2. c #73993C",
"3. c #73993D",
"4. c #72993C",
"5. c #729B3D",
"6. c #74993D",
"7. c #749A3C",
"8. c #749A3D",
"9. c #759B3D",
"0. c #769B3D",
"q. c #769B3E",
"w. c #779C3D",
"e. c #769C3E",
"r. c #779D3E",
"t. c #779C3E",
"y. c #749A3D",
"u. c #789D3D",
"i. c #7A9F3D",
"p. c #799D3E",
"a. c #799E3E",
"s. c #799F3E",
"d. c #789E3F",
"f. c #7A9F3E",
"g. c #799E3E",
"h. c #7BA03F",
"j. c #7AA03E",
"k. c #7CA13F",
"l. c #7CA13E",
"z. c #7DA23F",
"x. c #7CA23F",
"c. c #7EA33F",
"v. c #7FA43F",
"b. c #7DA23F",
"n. c #759A41",
"m. c #759A41",
"M. c #7D9E40",
"N. c #6F9453",
"B. c #6F9453",
"V. c #7D9D57",
"C. c #7D9D57",
"Z. c #7CA140",
"A. c #7DA240",
"S. c #7EA340",
"D. c #7FA340",
"F. c #7FA440",
"G. c #7FA541",
"H. c #7EA340",
"J. c #80A541",
"K. c #81A641",
"L. c #82A741",
"P. c #83A741",
"I. c #82A740",
"U. c #81A641",
"Y. c #83A841",
"T. c #84A841",
"R. c #84A941",
"E. c #85A942",
"W. c #84A942",
"Q. c #86AA42",
"!. c #84A941",
/* pixels */
"                                                                      d.~ k.Y.~ T T ` Y z a q. .d. .T v V A.=.A.r.+.Z ~ W u i   ",
"                                                                    ~ m.q.P.$.d.v.T Z Z s s | _ ! Z Y W R _ A.Y.j.~ ~ m.R z 8   ",
"                                                                = $ N R r.j.E Y.0.!  .~ Z r z A E z N E v.{ d.k.{ ! Y R E V m 5 ",
"                                                                _ N z z W ! W { W _ v.d.E a s N m s y Z _ $.Q.$.k.Q._ C V W k._ ",
"                          V q.*.T b s p                          .Z Z V d q.P.q.~ _ q.E z z :.q.R V s s R $.q.Z r.=.! ~ P._ 5.! ",
"        J.B.I I P       *.5._ ~ { E V B d                       ~ ~ k.R Y Y C V A E Z V q.0.{ ~ } T V B d ~ ~ 5.~ W ~ R +.A.Q.A.",
"    Z ! m.Q m.B z d   q } d.P.P.q.Y q.{ d w                     T T W ! d.! 2.B z d V A { r.I.T.m.Y m.+.z d _ r.q. .~ d._ A.T.~ ",
"  Y Q.{ M.m.) Z R Z w T =.5.Q.d.! Y { R V $._ Z z w w           k.! Q. .d. ._ Z R Z a R $.5.T.d.W R $.E V $._ A m z b =.q.P.$.d.",
"  Y { v.Q.d.~ _ k.Z s V 5.m.d.$.q.~ Z $.$.2.! $.A v c y         0.E  .I.Q.k.~ _ d.Z s C 5.m.d.$.d.~ Z $. .2.W 2.Y v z z $.j.R P.",
"{ A.~ k.A.! R A ! E m a R P.{ q.P.{ Z d.r.P.k.{ Y 2.~ s y       { k.~ k.k.~ R A ! R m a T P. .d.I.{ A d.r.I.k. .Y =.~ a V ! E _ ",
"~ +.t.T.$.v.I.R V C s s $. .R ~ $.E _ _ j.T.d.! W q.Y m r       ~ $.r.T.+.F.P.R V V s s +.+.R ~  .E ~ ~ k.T.d.! W q.T z a =.P.5.",
"Q } 5.q.Y P.2.! f.$.Y a { ~ P.q.~ { J. .d.d.$.$.R Y R z d @     z T 2.q.Y F.=.~ A.+.Y y } ) P.=.~ { P.$.d.d. .$.R Y R V Y T C V ",
"m.Q.d.~ ~ ~ W  .A.q.Y a Z ! W R E Z ! $.I.{ v.I.~ A Z N y @     z z Y _ ~ ! E { A.q.Y a Y ! W R E Z ! $.Q._ k.I.~ Z A ~ m.~ 5.N ",
" .r.{ d.P.r.{ ! $.Y N V j.q.~ A d s Y 2.$.Y 2.{ ! J.k._ s $     R Z s +.I.d.{ ~  .A m V d.q.~ A z s Y 2.$.Y 2.{ W ~ Y._ j.+.{ Z ",
"V Z $._ =. .$.{ A Z j.r.} ) ) T Z Z z R _ d.` ! ~ d.2.Z a       k.Z s N 2.{ $.{ Y Z d.r. ._ { Y Z Z z R _ r.~ ! ~ R  .P.Q.k.~ { ",
"  Z { R ~ R ~ m Z A _ m.Q.P.5.R d.{ z s ` I.0.w.{ W Z z s       ! R z u W R ~ z Y A ~ d.Q.P.q.R d. .z a ~ P.r.q.+.A.~ k.v.! E Z ",
"  L c z d Z T z d Y W +.Y.5.R A ~ W b u N $.5.~ Q A W N u       V Z s s s A T z d Y W  .P.r.E Y ~ W V y B $.2.! ! 2.t.T.$.k.P.R ",
"      y c 2.j.~ W d d Z =.5.v.{ V Z z s m V Z E N N V a =       d. .Y s m q.d.~ W d d Z $.2.k.{ Z Z z s z V Z W W _ q.d.Y P.=.~ ",
"      { f._  ._ ! C Z c z r.v._ ~ { W a y s Z { Y m a w         k.0.Y q.m.{  .~ ! Z Z c c r.A._ _  .E a y s Z { R B m z Y _ W _ ",
"      ~ q.F.Q.r.R d.r.z s T _ E d.v.{ z c R $.q.W q.N c s #      .A z ~ q.P.Q.r.R d.r.z s Y _ E d.k.{ z c E 5.2.W 5.N N z Y { ~ ",
"    W r.~ P.A.W Y ! ! Z s B _ ~ 5.+.V a E I. .v.$.! Y ! Z w     Y Z { t._ P.j.E A W ! Z s B } ~ $.$.V a E P.{ k.=.~ Y ! Z s ~ ' ",
"    f.+.k.k.$.A.d.V Z x s N =.q.E C V m ~  .P.T.0.E 0.0.V d >   Y R k.=.j.k. .P.q.Z Z v s N =.q.E Z V z ~ { P.T.5.W =.5.B s z z ",
"    Q ! k.$._ P.{ ~ +.! d s W Y V W x :.f.~ k.d.! ! Z W Y s 0   s m ! ! k.2.~ P.{ ~ { W f a T Y V ! v =.k.~ A.d.~ W A W R s d z ",
"    P.Y.$.! W _ R 5.P.+.B a T C d d s ! ! I.T.{ Q.k.T Z Z s r   = e P.P. .! W { R 0.P.$.V a R V s s s ! ~ v.P.{ Q.k.T Z C s y q ",
"    f.v._ P.k. .! $.0.Z a s s s 9 = & =.q.2.{ R j.~ ~ P.2.V 0     1 m.v.{ T.k.$.!  .q.Z s T j._ T z s z _ r.| T A.^ ` I.2.V y h ",
"    n E ~ 5.$.$.q.! Z V d M G h ;   O P.P.q. .{ ~ R 5.k._ N 9       Z T _ $.2.$.q.~ Z Z k. .$.W 5.C Z v z $. ._ ! E 0.k._ v 9   ",
"    N ! +.~ q.Q W N W V s * o o        .$.! A.J.0.{ ~ ~ V s r       x W $.W q.R W N E Y r.d.Q.A._ W d.R a V F.P.r. .~ ` V s w   ",
"      V N z z Y Z d s s %             x Y q.! 5.{ _ W A T z r         b N m m Y Z s Z q.~ P.T.{ R W  .Y z y W m. .` W Y T d q   ",
"        4 w a z s y < @               2 Y ~ A R Y ! z A N s #           3 s v v s a A 5.$.k.0.$.t.Y A A s f V T A ~ z Y B a #   ",
"            D J S :                     < d d s Z C s u a #             2 W j._ _ v z d ~ I.W I.j.! W R B 0 s s Z V s a y #     ",
"              o o                           3 t k j 6 @               l A.{ q.!  .Z Z V d W T 2.! ~ P.m.R a z W R m s w =       ",
"                                              h J F :                 Y =.A.Q.k.~ _ k.Y s Z k. .! { d.~ B T ~ m.W 5.Y c z 7     ",
"                                                                                                                                ",
"                                                                                                                                ",
"                                                                                                                                ",
"                                                        V Q A.~ { N z s                                                         ",
"                          V q.*.T V s p               Y F.} 5.!  .V Z V a                 V q.*.T b s p                         ",
"        C.B.U I P       *.5.{ ~ | R V B d             Y +.A.Q.A.~ _ j.E Y V K I P       *.2.{ ~ ) R V V d                       ",
"    Z ! d.! $.V z p   q { d.P.P.q.R q. .z 9           j.~ A.T.~ T T E ~ d.! 5.N z d   q { d.I.T.r.Y m. .d w                     ",
"  A E.$.d. .{ n E A w T $.5.Q.d.Q Y { R V =.| n s 8 N q.5.P.=.d.k.! Q.$.d. .{ Z E A w T $.5.Q.d.W T  .W V $._ V c w 8           ",
"  Y { A.Q.d.~ { A.Z s Z =.r.d.$.q.~ Z =. .=.W 5.Y N c s =.k.R P.0.E  .I.Q.k.~ _ d.Z s Z 5.m.d.$.d.~ Z $. .2.W 2.Y v z s         ",
"{ P.~ k.F.~ E Z W T z a R P.} q.I._ A d.r.P.v. .Y =.~ s V ^ E _ $.k.~ k.A.! R A ! T z u R G. .d.I.{ Z d.r.I.k. .A 5.! s r       ",
"! =.r.T. .F.P.R V Z s s +.+.R ~  .R ~ ~ f.T.d.! Q q.Y m y =.P.5.~ $.r.T.$.I.P.R V Z s s =.+.R ~ $.E ~ _ k.T.i.! W q.T z y       ",
"Q { 5.q.Y F.=.~ k.=.Y y } ) P.5._ { J.$.d.d. .$.R A R V Y R V V z T 2.q.Y F.$.~ j.+.Y y } ) F.=.~ { P.$.d.d. .$.R A R z s @     ",
"q.I.d.~ _ ! W  .k.0.Y a A W Q R E Z !  .Q.{ k.I.~ Z A ~ d.! q.N z z T ~ ~ ~ W { k.q.T a A ! Q R E Z ! $.T._ k.I._ A Y N a +     ",
"$.0.{ d.P.r.{ ~  .A v V d.5.~ A z d Y 2.$.Y 2.{ ! ! P.} d.+.} Z R Z s } P.r.{ ~  .A z V d.5.~ A z s A 2.$.Y 2. .W P.k.~ s $     ",
"V Z $._ 0.{ $.' A Z j.r.{ _ { T Z V z T ` d.` ! ~ R  .A.Q.j.! ~ k.Z s B 2.{ $.{ Y Z d.r.{ _ { T Z Z z R _ 0.` ! ~ d.5.Z a       ",
"  Z { T ~ R ` z Y Z _ d.P.P.5.R k. .z s _ I.0.0. .P.~ k.A.~ R A ! R z y W T ~ z Y A _ r.T.T.5.R d. .z a _ I.0.q.{ W V m s       ",
"  q v z s Z R z s Y R +.Y.5.E Y ! W V y V $.2.! `  .r.Q.$.I.P.R V Z s a s A Y z d Y W  .P.r.E Y ~ W V y B $.2.~ E Z W N y       ",
"      p z q.d.~ W z d Z =.5.P. .Z Z z s z V Z W W { 2.q.Y v.$.~ j.=.Y s m q.Z.~ W d d Z $.2.k.{ Z Z z s z V Z W v B V s =       ",
"      { d.{  ._ ! Z C c z d.A._ ~ { W a y s Y | T V c z Y _ E _ k.q.Y q.m.{  .~ ! Z Z c c r.A._ _ _ E a y s Z { Y z a w         ",
"      ~ q.P.Q.r.E d.r.z s Y _ E d.v.{ z z E $.2.W 5.v c z Y { ~  .Y z ~ q.P.Q.r.R d.r.z s Y _ E r.v.{ z c W $.2.W q.N N s #     ",
"    | r._ I.A.W Y W ~ Z s N  .! =. .V a E P. .k.=.~ T ! Z s _ _ A Z { t._ P.Z.W A W ! Z s B } ~ $.$.V a E P.{ v.=.~ Y ! Z w     ",
"    Z.=.j.k. .k.d.V Z N s v 2.0.W V V c ~  .P.Q.5.W $.q.b s m m Y R k.=.j.v. .F.q.Z Z v s N =.q.W V V m ~ { J.Q.5.W =.5.V s >   ",
"    Q W k.2._ P.{ ~  .! z s E Y V W N =.k.~ k.d.! ! Z E Y s s m s f R W k.$.~ P.{ ~ { W f a T Y V W v =.k.~ k.d.~ W A Q R s y   ",
"    P.P.$.! R { R 0.P.=.B a Y V s z s E ! I.P._ Q.k.T Z C d T q.W V m m Y W W { R 0.P.$.V a R V s d s ! ! I.P.{ Q.k.T Z C s r   ",
"    f.k._ P.k. .! { 5.Z s Y k._ R m s N _ q. .R v.! _ T._ $. . .T 5.B B d T j. .W $.q.Z s T j._ R z s N _ q.{ T v.~ ` I.2.V 0   ",
"    n E _ 5.2.=.q.! Z A k.{ =.E =.Z V c z  . . .! E 2.q.W k.r.P.m.W W =.Z s W 2.q.~ Z Z k. .$.W 5.V C v z  .+._ ~ R 0.k._ v 9   ",
"    N ~  .! q.E E B E Y d.m.Q.F.{ E d.R s V k.v.r. .! ~ +._ P.P.5.R { } Z d z W W N W Y r.d.Q.A._ Q d.R a V F.P.q.{ ! ` V s r   ",
"      b v z z Y Z s Z q._ F.Y. .T W { Y z y W q. .' ! d.k.{ k.q.{ $.Z T A s s Y Z d V q._ k.Q. .R W  .Y z y W q._ _ W Y Y z r   ",
"        4 a v v d a A q.$.k.5.$.r.Y Z Z s f Z T Y ! s E E P.A._ Q.d.R A Z m m N d a A r.$.k.0.$.q.A A Z s s Z T A ~ d Y B a $   ",
"        5 R k._ { N d d ~ v.W Q.j.! ! W B y s s Z V v d.k.5.~ T d.! ~ P.R ! k._ { N z s ~ I.W Y.d.~ W R B y s s Z V d a y @     ",
"      A P._ 2.~ +.V A V d R R $.! ~ Y.m.R a s W E z d N R =.r.$._ R 5.{ P.{ 5.! +.V Z Z d R Y q.~ ~ P.d.W a s W T N s w =       ",
"      n  .k.Q.k.~ _ A.Y a A k. .~ | r.~ B T ~ 5.~ q.A v z z j.k.2.:.~ Y =.A.Q.A.~ ~ A.Y a A j.{ ! _ r.~ B T ~ 5.~ 5.Y N m 8     ",
"      d.~ k.P.~ Y T ' Y z y 5.$.d. .R N V A.=.A.r. .A ~ R s N d.{ ~ ! d.~ k.Q.~ Y Y { T N a 5. .d.{ Y B V A.5.j.r. .Z ~ E s y   ",
"    { r.q.P.$.d.I.T Z Z s s _ _ ! Z Y E R _ A.Y.k.~ ! d.T z a V Y E { r.q.P.$.d.I.T C Z a f { { ! Z A Q Q _ A.P.k.~ ! f.T z y   ",
"    Y W r.j.E Y.0.!  .~ Z r z A Q z N E v. .q.k.{ ! Y R E B z z z N N Y q.k.R P.i.! $.! Z y d A E z N R F. .q.k.{ ! A R E x s   ",
"    0.Q.0.! W { W { k.d.E s s N m a y Z _ $.Q. .k.Q.{ C V ! A._ { v z c W ! E { W ` v.d.T a s N z s y Z _ =.Q. .k.T.{ Z Z z a   ",
"    *.k.2.j.Y.5._ _ q.E z z q.r.R V s s R $.q.A r.=.! ~ P.{ 5.! $.Z Z V s 5.P.:._ ` r.W z d *.q.R Z s s R +.q.Y r.2.! k.Z.~ s   ",
"    v A ~ W Z V Z W A b q.0._ ~ } T V V d ~ ~ 5.~ W ~ R +.A.Q.k.~ ~ d.E Y Y Z Z Z W Z V q.q.{ ~ _ E V V d ~ ~ 5.! ! ~ d.5.Y a   ",
"    V ~ d.! $.N z d V Y { d.I.T.m.Y d.+.z s _ r.q. .~ d.~ v.T.~ T T W ~ m.~ 5.N z d V A { d.T.T.5.Y q. .z s _ d.r.$.~ ^ Y m a   ",
"  R Q. .d. . .Z E Z a R $.2.T.d.W T } E V $.{ A z z B 5.q.P.$.d.k.! Q.$.d. .) Z R Z a R $.5.T.d.W T { R C 5.{ Z m d v A Y B a   ",
"  Y  .P.Y.j.^ { Z.A a Z =.d.d.$.r.~ Z =.$.$.W 2.Y v z s $.k.E P.r.R } J.Q.f.~ ~ Z.Z s V 5.r.d. .t.~ Z =. .$.! 2.Y v z z Z s 4   ",
"{ A.~ j.F.~ R A W R m y E P.{ r.P._ A d.r.Y.k.$.A 5.~ s b ~ W {  .k.~ A.J.! R A W R m u R P.{ q.P.{ Z d.q.I.k.$.Y 2.! s u 4     ",
"! $.d.T.=.v.P.R V Z s s  . .R ~  .E ~ _ j.Q.i.W W q.T z y +.I.2.~ $.r.Q. .k.T.R V Z s s } +.R ~ } R { _ f.Q.d.W W q.T z 0       ",
"Q { 5.q.Y F.=.! d.+.Y y _ _ P.5.~ { P. .d.d.{ $.R A T V Y R C V z T 2.q.T J.=.~ k.} Y y { { P.=.~ { P. .i.d.$.$.T Y R z s @     ",
"m.T.k.~ ~ ~ W { A.q.T a A ! Q T E Z ! $.Q._ k.I._ Z A ~ Z.~ 2.B z z Y ~ ~ ! W  .A.q.Y a A ! W R Q Z ~ +.Y._ k.I.{ Z Y b y +     ",
"$.q.{ m.I.0.{ ~  .A z V d.q.~ A d d Y 2.$.Y 2.{ W ~ Y.{ m. ._ Z R A s  .I.i.{ !  .Y N C d.5.~ A d d A =. .Y 2.{ ! I.k.~ s @     ",
"V Z $.~ 0.{ $.{ A Z j.r.{ _ { T Z Z z R _ d._ ! ~ R { A.Q.k.~ _ k.Z s N 2. .$.{ A V A.r.{ _ { T Z Z z R _ d._ ! ~ d.0.Z y .     ",
"  Z  .R ! R ! c Y Z _ d.P.Y.5.R j. .z a ~ I.q.q.} A._ j.v.! E Z ! E z y E R ~ m Y A _ d.P.P.q.R k. .d s _ v.0.0.{ E V z l       ",
"  L c z d A T z d Y W  .P.r.R Y ~ E V y B  .0.! ! 2.q.P. .I.P.R V Z s s s Z T z s Y W 5.Y.q.R Y ~ W C y B $.5.~ E A ! N w       ",
"      a z q.d.~ W d d Z $.$.A. .Z Z z s z V Z W W _ q.q.Y P.=.! k. .Y s z q.r.~ W z d V $.2.A.$.V Z z s z V Z E N N B s =       ",
"      { d._  .~ ! Z Z z c r.k._ _ { W a y s Z { R B m m Y _ W _ v.q.T =.M._ { ~ ! Z Z z z r.v.^ _ _ W s y s Z { Y m s y         ",
"      ~ q.P.Q.r.T d.r.z s T _ Q d.k.{ z c W $.0.W 5.N v z Y { ~ =.Y z ! q.P.Q.r.R d.r.z s Y _ Q d.v.{ z z R $.0.W :.N c s #     ",
"    E d.~ P.k.E Y W ! Z s B } ~ $. .V a E I.{ k.=.~ Y ! Z a ` ' Y Z  .d._ P.Z.R A W ~ Z s N } ~ $.$.V a E I.{ k.=.~ Y ! Z w     ",
"    f.*.k.k. .P.i.Z Z v s N =.q.E Z Z z ~ { P.T.5.W =.5.B s z c Y T k.5.d.A.+.v.q.Z Z N s N =.q.W V Z z _ { J.T.q.R =.q.V s >   ",
"    Q ! k.5._ I._ ~ $.W s s W Y V W v :.k.~ k.d.~ W A W R s s z d m W ! k.=._ P.{ ~ $.W d s R Y V Q c $.A.~ A.d.! W A R Y s 0   ",
"    P.T.$.W R { E 0.P.$.V a T V s z s Q ! J.P.{ Q.A.T Z C s y r = e Y.Y. .! W  .E 2.I.$.V a T V s z s ! W P.P._ Q.A.T Z Z d r   ",
"    d.k._ I.k. .!  .q.Z a s s s 9 = & $.q.q.| T A.~ ` I.2.V y h X 1 f.k.{ T.k. .W +.q.Z a a z a 9 = & $.q.0._ R k._ _ T.2.V y   ",
"    V R _ 2.2.$.q.~ Z V s M G h ;   O v.I.r. ._ ~ R 0.k._ v 9     # C E ~ 5.2.=.q.~ C V z M G h ;   O I.I.q. ._ ~ E $.k._ v 9   ",
"    N ! $.! 0.E Q N E V s * o o       &. .W F.P.q.{ ! ` V s q       x ! $.! =.W W N Q V s * o o       &.{ W v.I.t.{ ~ ~ V s q   ",
"      V B z z Y Z s z s %             x Y q.W q.{ _ W Y T d q         v V z z Y A d z s =             x Y q.W q.{ ~ ! Y Y z r   ",
"        4 w a s s y < @               2 A ~ A R A ! z A B a #           4 y a s a 0 < @               5 Y ~ A R A Q z A N a $   ",
"            D J h g                     4 f s s C V s u a #                 D J S :                     < z s a Z Z s u a $     ",
"              o o                           3 t k j 6 @                       o o                           3 t k j 6 #         ",
"                                              h H D g                                                         h J F :           "
};
