/* XPM */
static char *_49a2c8f63704ee0ec6aee05c62ce899uK9Kc9WNSHR6oTN0[] = {
/* columns rows colors chars-per-pixel */
"32 32 148 2 ",
"   c #422B0C",
".  c #473317",
"X  c #47331B",
"o  c #4A361C",
"O  c #4E391F",
"+  c #50381E",
"@  c #4C3720",
"#  c #4D3A24",
"$  c #4F3C29",
"%  c #523D25",
"&  c #513E2C",
"*  c #564026",
"=  c #55412E",
"-  c #5A432D",
";  c #564230",
":  c #5B4632",
">  c #5E4936",
",  c #5F4B39",
"<  c #654E37",
"1  c #664E37",
"2  c #604A37",
"3  c #604B38",
"4  c #604B39",
"5  c #604B3A",
"6  c #614B3A",
"7  c #604B3B",
"8  c #614C38",
"9  c #604C39",
"0  c #614C39",
"q  c #624D39",
"w  c #614C3A",
"e  c #614D3A",
"r  c #604C3B",
"t  c #624D3A",
"y  c #634D3A",
"u  c #624D3B",
"i  c #634E3A",
"p  c #634E3B",
"a  c #634F3B",
"s  c #644F3A",
"d  c #644F3B",
"f  c #654F3B",
"g  c #674F3A",
"h  c #624D3C",
"j  c #634E3C",
"k  c #624E3D",
"l  c #634E3D",
"z  c #644F3C",
"x  c #654F3C",
"c  c #654F3D",
"v  c #634E3B",
"b  c #6A4F39",
"n  c #65503B",
"m  c #65503C",
"M  c #65503D",
"N  c #65513D",
"B  c #66503C",
"V  c #66503D",
"C  c #66513D",
"Z  c #67513D",
"A  c #65503E",
"S  c #66513E",
"D  c #66503F",
"F  c #66513F",
"G  c #67513F",
"H  c #67523F",
"J  c #66503E",
"K  c #68503B",
"L  c #68503C",
"P  c #68503D",
"I  c #68513D",
"U  c #68533D",
"Y  c #69513E",
"T  c #68523E",
"R  c #68533E",
"E  c #68533F",
"W  c #6C543D",
"Q  c #6D553F",
"!  c #6E553F",
"~  c #6C513A",
"^  c #71563F",
"/  c #675140",
"(  c #675240",
")  c #675241",
"_  c #675341",
"`  c #675240",
"'  c #685341",
"]  c #695341",
"[  c #6A5441",
"{  c #6A5542",
"}  c #6D5440",
"|  c #6C5541",
" . c #6E5641",
".. c #6F5641",
"X. c #6D5542",
"o. c #6E5642",
"O. c #6F5642",
"+. c #6F5742",
"@. c #705742",
"#. c #715742",
"$. c #705843",
"%. c #715843",
"&. c #715943",
"*. c #725943",
"=. c #735A42",
"-. c #715944",
";. c #725944",
":. c #725945",
">. c #725A44",
",. c #735A44",
"<. c #725A45",
"1. c #735A45",
"2. c #745B45",
"3. c #745B46",
"4. c #755C47",
"5. c #765C47",
"6. c #765D47",
"7. c #775D47",
"8. c #745B46",
"9. c #765D48",
"0. c #775D48",
"q. c #775D49",
"w. c #775E48",
"e. c #775E49",
"r. c #775E4A",
"t. c #765D48",
"y. c #785E48",
"u. c #785E49",
"i. c #785F49",
"p. c #795F49",
"a. c #785E4A",
"s. c #785F4A",
"d. c #795F4A",
"f. c #795F4B",
"g. c #795F4C",
"h. c #785F49",
"j. c #79604B",
"k. c #7A604A",
"l. c #7B614B",
"z. c #79604C",
"x. c #7A604C",
"c. c #7D634D",
"v. c #7D634E",
"b. c #7D634F",
"n. c #7E634E",
"m. c #7E634F",
"M. c #7E644F",
"N. c #7B604B",
/* pixels */
"C C z C C d C C d C C z z C [ = > m.y.y.k.r.m. .& P C C C M C l ",
"p p p p p p p p 4 p p p p p _ @ % N.;.3.3.;.6.P & l p p p p n , ",
"p p p p p p p p p p p p p p C % - y.3.3.3.;.y.b # n p , p p n , ",
"p p p p p p p p p p p p p 4 z = > y.;.3.3.;.g.1 O l p p p p n , ",
"p p p p 4 p p p p p 4 p p p l = > y.;.3.3.3.y.P $ p p p p p p , ",
"z z p z z z p p z d d z l C _ = > y.3.3.3.;.y.d o p p p p p n , ",
"> > p > > > , 3 > 4 4 , > > p & > y.3.3.3.3.y.g $ l p 4 p p p , ",
". & & & & o $ & & & & & @ . o X 4 y.;.3.3.;.y.P & l p p p p p l ",
" . . . . .Q  . . . . . .Q W ;.* * x.;.3.3.3.y.P $ l p p p p p , ",
"r.r.6.r.r.r.6.6.r.6.6.r.r.y.m.: : y.3.3.3.3.y.P & p p , p p n , ",
";.;.;.;.;.;.;.;.;.;.;.;.;.;.y.: > y.3.3.3.3.y.P & l p p p 4 d 4 ",
"3.3.3.3.6.;.r.;.3.3.3.3.3.3.g.> : x.;.3.3.;.y.1 o M p p p p d p ",
";.3.8.;.8.;.;.6.;.;.3.3.;.3.y.: > y.;.;.3.;.y.d $ l p p p p d , ",
";.;.;.;.;.8.;.;.;.;.;.;.;.;.y.: : r.;.;.;.*.y.P & p p p p 4 z , ",
"x.x.k.x.x.y.y.k.x.y.y.y.y.g.m.3 , M.k.x.y.y.m.[ $ _ C C z z C l ",
"% * : * : > : - : > > > - * : ; % - : * - 3 : % # % % ; ; = ; = ",
"* * : * : > : o $ ; & = # O & & @ $ = O # ; = # ; # # ; ; = ; ; ",
"x.x.g.x.r.y.m.: > C C d _ [ [ ; : [ M _ H n C C C _ C C C C C l ",
"8.;.;.;.;.3.3.= : M p p p 4 l = = C p , > p , p p 8 p > p p C , ",
";.8.3.;.;.3.6.; : M 4 p p p C ; ; p p p p p p p p p p p p p n , ",
"8.4.8.8.6.;.r.; : M , l p 4 z ; ; C p p p p p p p p p p p p n , ",
"8.8.8.8.;.;.6.= : M p l p p C = = p p , p , p , , p , p , > n , ",
"4.;.4.8.8.6.r.= : M p p p p C ; ; P C M M C n C z C C l C C C l ",
"4.4.8.8.;.;.3.; : C , p p l z = = , > > : > > > > : > , > : > > ",
";.4.4.;.;.;.4.= : z p p p p / % o & = @ @ & & & # o $ = $ . O $ ",
";.4.4.;.4.4.y.@ = / 4 p p p z = : r. .@.@.$.;.*.;.;.*.$.-.$.*.[ ",
"4.4.4.4.3.3.r.= : / 4 p p p z ; 4 k.r.r.r.6.r.6.r.r.r.6.6.r.k.;.",
"4.;.;.4.3.3.3.; : z p p p 4 z = : y.;.;.;.;.3.;.;.;.;.;.;.;.3.;.",
"3.3.3.3.;.3.r.O = _ 4 p d l z ; 3 g.3.3.3.3.3.3.3.3.3.3.;.8.r.-.",
"3.3.3.3.3.3.y.& : g z z p z g ; : y.3.3.3.3.3.3.3.3.3.3.6.;.r.+.",
"6.3.6.3.3.6.r.% - / y d z p z & 4 y.3.3.6.3.3.r.6.3.6.3.3.3.r.-.",
"~ ~ ~ b ~ ~ W   + 2 & : - & 2 . + @.~ b ~ ~ b ~ b ~ ~ b ~ 1 ^ d "
};
