/* XPM */
static char *_3222ebe798a4e04b379ce2b18f64846fArDGiIHaydo48pm[] = {
/* columns rows colors chars-per-pixel */
"64 64 235 2 ",
"   c #3E1B12",
".  c #4D1A0F",
"X  c #621B09",
"o  c #492D1B",
"O  c #5D2A19",
"+  c #4D311C",
"@  c #54331D",
"#  c #5C321B",
"$  c #5F3117",
"%  c #56200F",
"&  c #66260E",
"*  c #75250A",
"=  c #7D2B0D",
"-  c #7C330C",
";  c #77300E",
":  c #6C2C14",
">  c #652A18",
",  c #732C12",
"<  c #6D3316",
"1  c #62351B",
"2  c #6B341B",
"3  c #6D3A1B",
"4  c #693717",
"5  c #743514",
"6  c #7C3513",
"7  c #753A14",
"8  c #7D3C15",
"9  c #74341A",
"0  c #7E351B",
"q  c #743C1B",
"w  c #7C3B1A",
"e  c #562B22",
"r  c #593821",
"t  c #5A3827",
"y  c #5B3B3A",
"u  c #573B37",
"i  c #482B2A",
"p  c #663926",
"a  c #733C25",
"s  c #7D3C22",
"d  c #773828",
"f  c #653B34",
"g  c #6A3C36",
"h  c #773D31",
"j  c #7E431B",
"k  c #74421D",
"l  c #5C413A",
"z  c #644126",
"x  c #794327",
"c  c #6C443B",
"v  c #674438",
"b  c #754933",
"n  c #794737",
"m  c #7A5233",
"M  c #3A384C",
"N  c #333C57",
"B  c #3B3D54",
"V  c #373F58",
"C  c #4C3D44",
"Z  c #443E4C",
"A  c #4A3D4C",
"S  c #423A46",
"D  c #573C41",
"F  c #413E51",
"G  c #3D4155",
"H  c #3F4759",
"J  c #44404E",
"K  c #4D424B",
"L  c #5C4344",
"P  c #52434C",
"I  c #58494B",
"U  c #424253",
"Y  c #474958",
"T  c #58565C",
"R  c #504150",
"E  c #664844",
"W  c #6C5349",
"Q  c #765745",
"!  c #70524C",
"~  c #746859",
"^  c #4C5060",
"/  c #615E61",
"(  c #696664",
")  c #7D7261",
"_  c #882609",
"`  c #8D360C",
"'  c #8D3A0D",
"]  c #84360E",
"[  c #9B3C0B",
"{  c #94370B",
"}  c #842E14",
"|  c #833D15",
" . c #883719",
".. c #9C3514",
"X. c #973918",
"o. c #912F0F",
"O. c #A82E08",
"+. c #A43B08",
"@. c #A83A0A",
"#. c #B63B09",
"$. c #A73917",
"%. c #B43A11",
"&. c #8C3C25",
"*. c #843923",
"=. c #983D21",
"-. c #C53C0D",
";. c #9C430B",
":. c #954609",
">. c #854316",
",. c #8B4513",
"<. c #83431D",
"1. c #8D471A",
"2. c #954313",
"3. c #9C4912",
"4. c #984919",
"5. c #9C541B",
"6. c #965319",
"7. c #8B4816",
"8. c #AB430B",
"9. c #A9470B",
"0. c #B2410C",
"q. c #B84908",
"w. c #AE550F",
"e. c #BA520B",
"r. c #AB441D",
"t. c #A64818",
"y. c #B74717",
"u. c #AC5214",
"i. c #A3541B",
"p. c #A85719",
"a. c #B65618",
"s. c #B6641C",
"d. c #AB631E",
"f. c #8C4C2B",
"g. c #864725",
"h. c #984928",
"j. c #86552E",
"k. c #93522A",
"l. c #9B5727",
"z. c #894A33",
"x. c #994E33",
"c. c #875736",
"v. c #975637",
"b. c #A84928",
"n. c #B84C26",
"m. c #AC5A23",
"M. c #A55927",
"N. c #B75727",
"B. c #A65937",
"V. c #B65B35",
"C. c #8E6439",
"Z. c #976039",
"A. c #AA642B",
"S. c #B76627",
"D. c #AA6737",
"F. c #B96735",
"G. c #AD7C3E",
"H. c #B87538",
"J. c #C9460A",
"K. c #DC4A0A",
"L. c #D5450A",
"P. c #C3560E",
"I. c #D8590A",
"U. c #CC4C13",
"Y. c #C44B18",
"T. c #D34B13",
"R. c #CB531C",
"E. c #C25519",
"W. c #D75714",
"Q. c #E65916",
"!. c #E8550A",
"~. c #CA670E",
"^. c #C86715",
"/. c #D0781D",
"(. c #EA6617",
"). c #F5681C",
"_. c #CA5725",
"`. c #DA5E29",
"'. c #D45824",
"]. c #CA5C31",
"[. c #E45E24",
"{. c #C16423",
"}. c #DA6424",
"|. c #C87827",
" X c #D67628",
".X c #D96636",
"XX c #C27737",
"oX c #CE6E3D",
"OX c #E36527",
"+X c #EC7632",
"@X c #8B5B45",
"#X c #A15C4A",
"$X c #8B6443",
"%X c #966946",
"&X c #907553",
"*X c #B97944",
"=X c #AE734B",
"-X c #8A7865",
";X c #B57E66",
":X c #C27944",
">X c #CE7145",
",X c #B28326",
"<X c #F19412",
"1X c #CA863A",
"2X c #D69134",
"3X c #FAB035",
"4X c #F5922A",
"5X c #99825E",
"6X c #B98745",
"7X c #BE8753",
"8X c #B09155",
"9X c #988C65",
"0X c #8D8771",
"qX c #818068",
"wX c #AF8E66",
"eX c #B9A86E",
"rX c #B2A176",
"tX c #C78647",
"yX c #D28A45",
"uX c #C19449",
"iX c #C88A54",
"pX c #CA9C56",
"aX c #DC9F44",
"sX c #EF8C46",
"dX c #DBA54E",
"fX c #CDAE4C",
"gX c #E5B452",
"hX c #CE9965",
"jX c #D4A967",
"kX c #CDB072",
"lX c #FBC55C",
"zX c #EDC976",
"xX c #D3C474",
"cX c #B3AD81",
"vX c #D8AF8D",
/* pixels */
"N N N N N N N N N N N N N N N N N N N N N N N N N N N N N N N N N N N N N N N N N N N N N N N N N N N N N N N N N N N N N N N N ",
"N N N N N N N N N N N N N N N N N N N N N N N N N N N N N N N N N N N N N N N N N N N N N N N N N N N N N N N N N N N N N N N N ",
"N N N N N N N N N N N N N N N N N N N N N N N N N N N N N N V V N N N N N N N N N N G G N G N N N N N N N N N N N N N N N N N N ",
"N N N N N N N N N N N N N N N N N N N N N N N N N N N N N N B F C D B N N N N N N N N E v b m G N N N N N N N N N N N N N N N N ",
"N N N N N N N N N N N N N N N N N N L F F V V N N N N N N Z x Q p & a K N N N N V B n t.9.e.P.$XN N N N N N N N N N N N N N N N ",
"N N N N N N N N N N N N N N N N B c %.&.d *.h F N N N N N p 6 q b   t 4 v N N B l q ;.#.q.I._.B.N N N N N N N N N N N N N N N N ",
"N N N N N N N N N N N N N N N N R x.r.x.> > h A N N N N N g.j.& 2 . # & w U N J 5 ` +.Y.J.(. XH.N N N N N N N N N N N N N N N N ",
"N N N N N N N N N N N N N N N V g x.V.#Xz.&.h L N N N N f f.j.3 t % 4 & f.G N K < { 8.0.e.yX XE N N N N N N N N N N N N N N N N ",
"N N N N N N N N N N N N N N N S d b.;X;X=X#X#X&.N N V c 5.>.j x % . % <.v N N Z p 7 ' ' [ P.|.V N N N N N N N N N N N N N N N N ",
"N N N N N N N N N N N N N N N u e 0 b.>X].n.b.D N N N z 7.' :.` - * X % n N N Z l o $ 7 ; :.C.N N N N N N N N N N N N N N N N N ",
"N N N N N N N N N N N N N N N y *.> X.`.-.K.K.b.n A N e 5 A.5.' ` ` ]  .2.B B a # + 2.a.7 ~.I N N N N N N N N N N N N N N N N N ",
"N N N N N N N N N N N N N N N N N h a.K.-.K.[.'.Q.z.N M M j 7.j j 7.3.| l.B F a 8 >.| ;.I.3X2XJ N N N N N N N N N N N N N N N N ",
"N N N N N N N N N N N N N N N N N h U.K.-.T..X'.Q.E V N i < g.<.- - ' e z.G y 5 1.i.3.^.4X3X XJ N N N N N N N N N N N N N N N N ",
"N N N N N N N N N N N N N N N N N *.#.-.-.%.%.n.b.G N N O 8 >.- ' m.M.v N N f 9 w ,.3.e.~.<X<XN N N N N N N N N N N N N N N N N ",
"N N N N N N N N N N N N N N N N y } O.O.#.O.X.n.#XF N N i 3 :.5.s.iXiXT N N u < o # 3 k 5 ~.,XG N N N N N N N N N N N N N N N N ",
"N N N N N N N N N N N N N N N N f X.%.#.q.@.} X.].P N N M Z q 7.S.iX=XG N N B t + 9 4.3.,.9.c.G N N N N N N N N N N N N N N N N ",
"N N N N N N N N N N N N N N N N f _.y.[ @.{ o.t._.Q N N N Z j.l.S.iX=XG N N N S r 1.w.9.p.X.a.Q N N N N N N N N N N N N N N N N ",
"N N N N N N N N N N N N N N N N g b. ., ..o. .b.y.$.A N N C j 6.A.,X7XU N N S r # a.E.p.A.N.OXz.N N N N N N N N N N N N N N N N ",
"N N N N N N N N N N N N N N N N A 0 > , } :  .$.U.T.A N N B p ,.7.S.D.k.~ N S p ' }.yXD.t.h.W.Q N N N N N N N N N N N N N N N N ",
"N N N N N N N N N N N N N N N N N Z 9 { =  .F.y.Y.W.b.N N u O 5 6.H.*X5 2 M J t 1 4.l.<.q | c B N N N N N N N N N N N N N N N N ",
"N N N N N N N N N N N N N N N N N V d 6 X.r.t.V.`.Q._.M u b >.>.6.A.,Xz.5 g.j j j ' 7 7 x A V N N N N N N N N N N N N N N N N N ",
"N N N N N N N N N N N N N N N N N B h 9 N.U.r.$.B.n.'.v p.5.i.H.*XtXhXh.2.k k e.q.8.8.8.q.Z.V N N N N N N N N N N N N N N N N N ",
"N N N N N N N N N N N N N N N N N L *. .E.U.J.+.X.h.[.y.~.|.s.|.hXyXhX6Xs.<.j q.q.q.+.q.}.(.W N N N N N N N N N N N N N N N N N ",
"N N N N N N N N N N N N N N N N N P ..0.W.I.J.Y.}.].OXQ./.|.^.yXvXH.H.u.S.b # 8 { ] - { Y.B.Z N N N N N N N N N N N N N N N N N ",
"N N N N N N N N N N N N N N N N N g @.U.I.OX}.#.W.oXOX!.~.~.P.XXhXa.t.t.:X! M C f a 9 a L V N N N N N N N N N N N N N N N N N N ",
"N N N N N N N N N N N N N N N N N c } _.!.+XOXa.y.`.T.T.,X/.~.XXiXp.B. .=X! S f  .2.w.c N N N N N N N N N N N N N N N N N N N N ",
"N N N N N N N N N N N N N N N N N Z 2 %.Q.Q.).+XJ.Q.T.R.|.|.s.i.iXi.m.h.f.f.p @ 2.9.I.P.f.N N N N N N N N N N N N N N N N N N N ",
"N N N N N N N N N N N N N N N N N N f a T.+XJ.y.J.(.R.h q.9.u.a.m.2.n C L p 9 4 2 2.u.<.B.N N N N N N N N N N N N N N N N N N N ",
"N N N N N N N N N N N N N N N N N N A h Y.OX#.J.K.!.Q.g ..w.S.vX{.{.M.v.W r 2 7 8 *.B b g.N N N N N N N N N N N N N N N N N N N ",
"N N N N N N N N N N N N N N N N N N N A *.%.P.I.!.).OXc h.u.s.1XyX1X|.XXH.y r 2 5 f P c.c.B N N N N N N N N N N N N N N N N N N ",
"N N N N N N N N N N N N N N N N N N N N s 0.I.!.).sXOXS.A.j 8 s.1X1XtX:XD.I u $ 1 u K v E N N N N N N N N N N N N N N N N N N N ",
"N N N N N N N N N N N N N N N N N N N N h O.-.(.).Q..X{.v.6.3 : :.w.N.H.F.M.k : # p C V N N N N N N N N N N N N N N N N N N N N ",
"N N N N N N N N N N N N N N N N N N N N h #.%.b.&._.`.`., ; f.q k.,.` t.3.q @ 4 1 B.=X! G N N N N N N N N N N N N N N N N N N N ",
"N N N N N N N N N N N N N N N N N N N N h %.q.0.r.'..XY.X.5 6 k.D.x 6 ,.8 p @ r g.1.{.v.N N N N N N N N N N N N N N N N N N N N ",
"N N N N N N N N N N N N N N N N N N N N &.0.@.$.V.N.>XY.&.u 6 l.l.g.' f.1 p @ @ j.v.N.W N N N N N N N N N N N N N N N N N N N N ",
"N N N N N N N N N N N N N N N N N N N V M f 0 o.s &._.x.A 1 , <.k.l.v.x.3 r r z %X%X%XF N N N N N N N N N N N N N N N N N N N N ",
"N N N N N N N N N N N N N N N N N N N N N M e * *.&.r.r.d a : 0 &.x.x.#XJ r # x *XwX! N N N N N N N N N N N N N N N N N N N N N ",
"N N N N N N N N N N N N N N N N N N N N N F *.$.0 d V.-._.n > * * 1.h.&XV E 5 5 g.w A B N N N N N N N N N N N N N N N N N N N N ",
"N N N N N N N N N N N N N N N N N N N N N B d $...r.Y.n._.f.M.6.` i.m.D.f  .}.c.g B N N N N N N N N N N N N N N N N N N N N N N ",
"N N N N N N N N N N N N N N N N N N N N N A r._.$...b.=.=.x M.5.3.2.4.4.# } Y.m.b N N N N N N N N N N N N N N N N N N N N N N N ",
"N N N N N N N N N N N N N N N N N N N N N B X.&.h. .n.n.h X * ' w.* &.$.<.6 | | g.F N N N N N N N N N N N N N N N N N N N N N N ",
"N N N N N N N N N N N N N N N N N N N N N N D } ....$.b.D = = _ @._ _ y.x $ | q 9 v.B N N N N N N N N N N N N N N N N N N N N N ",
"N N N N N N N N N N N N N N N N N N N N N N N g d g.M.D N D } { +.@.O...3 4 t.5.A.F N N N N N N N N N N N N N N N N N N N N N N ",
"N N N N N N N N N N N N N N N N N N N N N N N N G %XkXG N N F d [ 9.u.g.3 7 X.l.s.B N N N N N N N N N N N N N N N N N N N N N N ",
"N N N N N N N N N N N N N N N N N N N N N N N N N Q zXG N N H v 1XE U N E 6Xv f.I N N N N N N N N N N N N N N N N N N N N N N N ",
"N N N N N N N N N N N N N N N N N N N N N N N N N R lX^ N N G m 2XH N N $XcXN N N N N N N N N N N N N N N N N N N N N N N N N N ",
"N N N N N N N N N N N N N N N N N N N N N N N N V V gX( N N G m gXG G N 1XqXN N N N N N N N N N N N N N N N N N N N N N N N N N ",
"N N N N N N N N N N N N N N N N N N N N N N N N V V ,XqXN N G $XjXG N N dX/ N N N N N N N N N N N N N N N N N N N N N N N N N N ",
"N N N N N N N N N N N N N N N N N N N N N N N N N N $XrXN N N %XkXN N R xXH N N N N N N N N N N N N N N N N N N N N N N N N N N ",
"N N N N N N N N N N N N N N N N N N N N N N N N N N ! xXN N N &XeXN N W xXN N N N N N N N N N N N N N N N N N N N N N N N N N N ",
"N N N N N N N N N N N N N N N N N N N N N N N N N N Y lX^ G G &XwXN N $XeXG N N N N N N N N N N N N N N N N N N N N N N N N N N ",
"N N N N N N N N N N N N N N N N N N N N N N N N N N B gX( N N 6XwXN G ,XqXG N N N N N N N N N N N N N N N N N N N N N N N N N N ",
"N N N N N N N N N N N N N N N N N N N N N N N N N N V pX0XN V =X9XN B 2X( G N N N N N N N N N N N N N N N N N N N N N N N N N N ",
"N N N N N N N N N N N N N N N N N N N N N N N N N N B &XkXN G G.-XN L gXV N N N N N N N N N N N N N N N N N N N N N N N N N N N ",
"N N N N N N N N N N N N N N N N N N N N N N N N N N N ! zXN N 6X) G n fXN N N N N N N N N N N N N N N N N N N N N N N N N N N N ",
"N N N N N N N N N N N N N N N N N N N N N N N N N N N F lXY V pX( H C.9XN N N N N N N N N N N N N N N N N N N N N N N N N N N N ",
"N N N N N N N N N N N N N N N N N N N N N N N N N N N N dX/ U 8X/ G 6X) G N N N N N N N N N N N N N N N N N N N N N N N N N N N ",
"N N N N N N N N N N N N N N N N N N N N N N N N N N N N 6X) H fXT G uX^ N N N N N N N N N N N N N N N N N N N N N N N N N N N N ",
"N N N N N N N N N N N N N N N N N N N N N N N N N N N N C.5XH pXT I fXG N N N N N N N N N N N N N N N N N N N N N N N N N N N N ",
"N N N N N N N N N N N N N N N N N N N N N N N N N N N G K &XH 8X^ W wXG N N N N N N N N N N N N N N N N N N N N N N N N N N N N ",
"N N N N N N N N N N N N N N N N N N N N N N N N N N N N N N N H N G H N N N N N N N N N N N N N N N N N N N N N N N N N N N N N ",
"N N N N N N N N N N N N N N N N N N N N N N N N N N N N N N N N N N N N N N N N N N N N N N N N N N N N N N N N N N N N N N N N ",
"N N N N N N N N N N N N N N N N N N N N N N N N N N N N N N N N N N N N N N N N N N N N N N N N N N N N N N N N N N N N N N N N ",
"N N N N N N N N N N N N N N N N N N N N N N N N N N N N N N N N N N N N N N N N N N N N N N N N N N N N N N N N N N N N N N N N "
};
