/* XPM */
static char *ad35c5aa13bc406ce9e9fc9d60177cda6x0cdc4dPjqqL8vd[] = {
/* columns rows colors chars-per-pixel */
"32 32 216 2 ",
"   c #020302",
".  c #080603",
"X  c #060907",
"o  c #0B0A05",
"O  c #0B0C0A",
"+  c #110C06",
"@  c #180F07",
"#  c #110E08",
"$  c #0D110E",
"%  c #14120C",
"&  c #19160E",
"*  c #1D180E",
"=  c #060E1B",
"-  c #0F1111",
";  c #1A1711",
":  c #171A17",
">  c #1B1A12",
",  c #23170D",
"<  c #231D14",
"1  c #281D14",
"2  c #311E11",
"3  c #1D211F",
"4  c #24221B",
"5  c #29251A",
"6  c #2C281D",
"7  c #3A2415",
"8  c #34261B",
"9  c #3B2B1D",
"0  c #1E2221",
"q  c #252A26",
"w  c #2C2A25",
"e  c #2B2E2B",
"r  c #312D22",
"t  c #3D2E22",
"y  c #2D302D",
"u  c #333127",
"i  c #3B3528",
"p  c #3C352A",
"a  c #2F3332",
"s  c #333633",
"d  c #363A35",
"f  c #3B3C3A",
"g  c #422B1B",
"h  c #452A18",
"j  c #4B311E",
"k  c #443323",
"l  c #4C3524",
"z  c #4A3926",
"x  c #49362A",
"c  c #46382A",
"v  c #4C3B2B",
"b  c #553926",
"n  c #523C27",
"m  c #543C2A",
"M  c #593E2B",
"N  c #423E34",
"B  c #4E432F",
"V  c #55402C",
"C  c #5C432C",
"Z  c #4B4134",
"A  c #474338",
"S  c #5B4533",
"D  c #594938",
"F  c #61462E",
"G  c #634532",
"H  c #644A33",
"J  c #694D35",
"K  c #624D3C",
"L  c #694E3A",
"P  c #724F3F",
"I  c #6D5136",
"U  c #66523D",
"Y  c #6C523B",
"T  c #72543C",
"R  c #193968",
"E  c #324147",
"W  c #294E79",
"Q  c #3B5877",
"!  c #444542",
"~  c #474A47",
"^  c #4B4A43",
"/  c #4B4D4B",
"(  c #504E43",
")  c #4E524D",
"_  c #535145",
"`  c #5C5649",
"'  c #565855",
"]  c #6C5442",
"[  c #685746",
"{  c #725740",
"}  c #7A5746",
"|  c #755A44",
" . c #7A5D44",
".. c #745E4A",
"X. c #7D5D4D",
"o. c #625F52",
"O. c #7B5E51",
"+. c #5D645E",
"@. c #7E6146",
"#. c #7E624B",
"$. c #686659",
"%. c #796957",
"&. c #76715F",
"*. c #5D646A",
"=. c #536378",
"-. c #646564",
";. c #666968",
":. c #7E6E61",
">. c #696E74",
",. c #7B7C74",
"<. c #747A7D",
"1. c #845D4D",
"2. c #82644C",
"3. c #876A4E",
"4. c #856451",
"5. c #856A53",
"6. c #8A6C54",
"7. c #876E5A",
"8. c #896A58",
"9. c #936E5D",
"0. c #996E5F",
"q. c #8B705A",
"w. c #8B735C",
"e. c #92745C",
"r. c #926B63",
"t. c #947562",
"y. c #997365",
"u. c #957964",
"i. c #9A7D64",
"p. c #92756A",
"a. c #9E7D6A",
"s. c #857B71",
"d. c #A87F74",
"f. c #9C836A",
"g. c #98877B",
"h. c #A3856C",
"j. c #A4866C",
"k. c #A68B75",
"l. c #AB8C74",
"z. c #A98779",
"x. c #AE937A",
"c. c #B3957D",
"v. c #DBB17E",
"b. c #3A648E",
"n. c #54738E",
"m. c #6D798C",
"M. c #787B82",
"N. c #4D7CA1",
"B. c #527EA4",
"V. c #5F8499",
"C. c #788384",
"Z. c #7F8496",
"A. c #5A88A6",
"S. c #4C82B9",
"D. c #5483B5",
"F. c #6386AD",
"G. c #738FAD",
"H. c #6896B4",
"J. c #7BA3B9",
"K. c #638FC5",
"L. c #7798CB",
"P. c #7BB0C8",
"I. c #838B89",
"U. c #87908E",
"Y. c #8C928A",
"T. c #8F8D90",
"R. c #959B93",
"E. c #999F98",
"W. c #A5958A",
"Q. c #B69A85",
"!. c #B79D84",
"~. c #BB9D83",
"^. c #A8929A",
"/. c #9FA49D",
"(. c #BBA48B",
"). c #8A95A6",
"_. c #969CB6",
"`. c #B99FA4",
"'. c #89A8A8",
"]. c #A4AAA3",
"[. c #A9AFA8",
"{. c #A8A9B7",
"}. c #B7B1B0",
"|. c #C7A78A",
" X c #D0AA8C",
".X c #D6B99E",
"XX c #C7B8A9",
"oX c #DABEA7",
"OX c #D9C29C",
"+X c #EAC783",
"@X c #D2C6B2",
"#X c #E6C9AD",
"$X c #E2C8B7",
"%X c #87ABCE",
"&X c #96AAD8",
"*X c #A7B8C8",
"=X c #A2B0D9",
"-X c #CABDCD",
";X c #8DC2DB",
":X c #96C2D6",
">X c #A7C0D1",
",X c #95C8E1",
"<X c #A3D6EC",
"1X c #C8CBC4",
"2X c #D1D6CF",
"3X c #D5D6CD",
"4X c #EDD8C9",
"5X c #E3DEDC",
"6X c #E1E2D7",
"7X c #E5E4DB",
"8X c #EBEADE",
"9X c #EAEBE2",
"0X c #F0F2E9",
"qX c #F8F7F3",
"wX c #FCFCF4",
"eX c #FFFFFE",
/* pixels */
"+X+X+X+X+X+Xv.v.v.v. X|.c.c.g.s.%.&.s.,.Z.:X<X2X`.T.^.*X,XP.n.W ",
"OXOX@XXXXX}.{.{._._.).Z.M.;.;.;.o.` D N ~ C.'.>X-X*X{.:X;XN.Q R.",
"=X&X=X&X&X&XL.G.F.m.-.A N _ A 6 N ( w % 4 ` ;.M.*X;X,X%XA.b.'.OX",
"&X%XL.K.S.B.B.n.*.^ N i N c > & 5 i u w A A D ( M.J.H.N.N.H.V.n.",
"S.S.D.F.G.).U.,._ i 8 * 4 4 > 5 % + ; r 6 5 r r ) ;.=.H.A.W R R ",
"G.).C.) / / ' ( i 4 % # + O & & # . # & X o X # r Z A E = = = = ",
"E.E.+.      w r , 4 @ o . . + + X . X o . . . . 5 c i 5 .       ",
"R.E.*.    ; N r % * * # o @ 2 8 , + o + o . .   O * 4 N ;       ",
"R.R.$..   % A u # % 9 n V V J w.M j g h 7 , o     . o 4 4       ",
"R.R.$.O X q f 5 6 i ..w.5.#.@.e.1.T J I H b 2 + .   o % &       ",
"Y./.I./ ~ A i > 6 B w.f.w.6.3.e.3.2.2.@.T @.F h 2 + o % %       ",
"@X3X1X*.+.A 4 * < z u.f.e.3.3.e.6.3.3.2.@.@.I C C 9 o o o       ",
"9X6X6X<.;.^ > o * C j.l.f.3.3.l.i.6.3.3.3.3.@.T @.z o O         ",
"( ) _ e e u o . , q.c.c.(.j.f.k.i.e.6.9.f.f.f.e.3.z o o         ",
"        % < X o D k.w.&.%.....%.6.e.e.e.e.f.f.f.3.n o .         ",
"d d s e q V 9 5 e.i.Y U U B 8 j U 2.@.H z Z B V U D o O X       ",
"[.1X6X1X@XQ...Z j.e.J M k k h h H  .J h 7 l m n V D o s $.' ' / ",
"qXeXeXeXeX$X{ B (.|.i.J m g h h T h.#.7 2 8 t l I [ 4 0 e a f ~ ",
"eXeXeXeXeX4X4.K c..X#Xc.{ G G P c..Xl.T l l M | e...c q a 3 : a ",
"eXeXeXeXeX8Xl.%. XOX#XoXz.4.6.~.4X4X|.a.6.4.e.x.l.@.Z d ~ a s f ",
"5XqXeXeXeXqXXXl.c.~.~.l.y.4.c.oX$XoX XQ.a.a.l.Q.l.%.s.>.' E / / ",
"}.6XwXqX8X0X0X(.e.3.6.P T 7.0.1.y.y.1.9.y.4.t.h.y.7.s.M.M.*.<.<.",
"2X9XeXeXwXwXwX(.3.T J b ] z.z.} } P G X.a.} J 1.2.:.M.*.;.' >.>.",
"7X7X7X8X8X9X9X!.2.} G b M t.z.1.P } 9.a.t.L j G Y [ / ! ~ ! ) ^ ",
"o.$.$.$.$.&.&.%.#.@.I U M D p.t.8.1.O.] l b l J T p y f ! f ! ! ",
"        o .   * I  .Y T 8.a.W.W.W.g.T.7.O.X.J T D : 0 e 0 o O - ",
"e e q f 3   X 3 S J Y @.7.a.d.z.r.r.y.r.e.4.G m < O - - X       ",
"R.R.R.Y.e o X & D V H T 8.t.8.1.} 1.O.4.6.U l t o . X .       X ",
"/././.R.q X X 3 [ D n D 7.c.t.X.} O.7.w.#.m v c X               ",
"].].].R.3 X X $ [ T C j D t.k.p.8.p.a.7.v x [ <     X       X   ",
"].].].Y.3 X $ $ v | Y n 9 k S L K ] ] k t L p X   X     X     X ",
"Y.Y.Y.,.3 3 q 3 u @.T I n 7 , , 1 1 < 8 M ] w           X     X "
};
