/* XPM */
static char *_6d75dc5e0dd4ba2f291a229f9ff2a26CYjdKOyGv81ktETE[] = {
/* columns rows colors chars-per-pixel */
"64 64 246 2 ",
"   c #030403",
".  c #080704",
"X  c #060807",
"o  c #0B0A05",
"O  c #060708",
"+  c #070909",
"@  c #0B0C0B",
"#  c #120C05",
"$  c #190E06",
"%  c #130F0A",
"&  c #0D100D",
"*  c #141208",
"=  c #15120B",
"-  c #1B140B",
";  c #1C180E",
":  c #0D0E11",
">  c #0E1212",
",  c #101414",
"<  c #161717",
"1  c #1D1B13",
"2  c #141A1C",
"3  c #210D05",
"4  c #22150C",
"5  c #29160A",
"6  c #231B0E",
"7  c #2B190C",
"8  c #331C0E",
"9  c #381A0D",
"0  c #231D12",
"q  c #281C14",
"w  c #351C11",
"e  c #1F2013",
"r  c #38200E",
"t  c #242113",
"y  c #2B2315",
"u  c #25241A",
"i  c #2C251A",
"p  c #2C291C",
"a  c #372616",
"s  c #3B2412",
"d  c #32251B",
"f  c #352B1C",
"g  c #3D291B",
"h  c #181C23",
"j  c #1C2223",
"k  c #1F2827",
"l  c #1D2329",
"z  c #1F2736",
"x  c #282926",
"c  c #242B2B",
"v  c #342E21",
"b  c #392E24",
"n  c #353223",
"m  c #3B3425",
"M  c #39362B",
"N  c #3B362B",
"B  c #262C33",
"V  c #2C3334",
"C  c #28333D",
"Z  c #373735",
"A  c #343B3D",
"S  c #421E0D",
"D  c #42240F",
"F  c #452615",
"G  c #482716",
"H  c #4B2A15",
"J  c #432C1C",
"K  c #4C2C1B",
"L  c #522E19",
"P  c #47321C",
"I  c #4B321E",
"U  c #54331C",
"Y  c #58351C",
"T  c #58391F",
"R  c #462D22",
"E  c #443324",
"W  c #4B3323",
"Q  c #4D3A25",
"!  c #463A2B",
"~  c #543523",
"^  c #5B3522",
"/  c #553A23",
"(  c #5C3C24",
")  c #543C2B",
"_  c #5B3D2A",
"`  c #443C33",
"'  c #493E36",
"]  c #623D24",
"[  c #633D2A",
"{  c #69392F",
"}  c #3E4138",
"|  c #4B412D",
" . c #5A442A",
".. c #5C422C",
"X. c #454134",
"o. c #4B4333",
"O. c #494639",
"+. c #4B453B",
"@. c #5A4836",
"#. c #524D3D",
"$. c #644226",
"%. c #62442C",
"&. c #6A452C",
"*. c #65492D",
"=. c #6B492E",
"-. c #71472E",
";. c #624532",
":. c #6C4736",
">. c #664B33",
",. c #6D4C32",
"<. c #654D39",
"1. c #744235",
"2. c #724E34",
"3. c #794D3A",
"4. c #6E5135",
"5. c #66533D",
"6. c #6D533B",
"7. c #735135",
"8. c #7A5336",
"9. c #75543A",
"0. c #7A553C",
"q. c #77583E",
"w. c #7B593C",
"e. c #262F42",
"r. c #293345",
"t. c #2B354C",
"y. c #353A41",
"u. c #343C4B",
"i. c #2D3751",
"p. c #2E3A55",
"a. c #2F3B59",
"s. c #323C53",
"d. c #303C59",
"f. c #463C40",
"g. c #3B444B",
"h. c #374157",
"j. c #3C4355",
"k. c #35405A",
"l. c #3B445B",
"z. c #484647",
"x. c #544D45",
"c. c #575449",
"v. c #5A544C",
"b. c #454A58",
"n. c #50515C",
"m. c #575858",
"M. c #734D43",
"N. c #6B5542",
"B. c #675A49",
"V. c #775744",
"C. c #7C5B43",
"Z. c #635D53",
"A. c #7E6146",
"S. c #7D614A",
"D. c #66635A",
"F. c #7C6554",
"G. c #545868",
"H. c #655F64",
"J. c #686865",
"K. c #71716A",
"L. c #757875",
"P. c #83543D",
"I. c #825B3D",
"U. c #84603E",
"Y. c #845644",
"T. c #835D43",
"R. c #835C4A",
"E. c #8B5D4A",
"W. c #8F5950",
"Q. c #955E52",
"!. c #856145",
"~. c #886144",
"^. c #84624A",
"/. c #8B654B",
"(. c #8D6A4D",
"). c #92644F",
"_. c #926B4D",
"`. c #8D6452",
"'. c #8C6B53",
"]. c #856858",
"[. c #936C53",
"{. c #986956",
"}. c #946E5A",
"|. c #8E7256",
" X c #947155",
".X c #9A7356",
"XX c #95745C",
"oX c #9B745B",
"OX c #9D7A5D",
"+X c #A16D5C",
"@X c #A3735E",
"#X c #A17A5E",
"$X c #986A64",
"%X c #897567",
"&X c #9D7B63",
"*X c #987865",
"=X c #92776F",
"-X c #A36B67",
";X c #A37C63",
":X c #A67B67",
">X c #AA7873",
",X c #9B8169",
"<X c #9D826A",
"1X c #998B7B",
"2X c #A58265",
"3X c #A88266",
"4X c #A5846A",
"5X c #AB846B",
"6X c #A5886C",
"7X c #AD896C",
"8X c #B1856D",
"9X c #B28C6D",
"0X c #AA8874",
"qX c #B88975",
"wX c #A7937E",
"eX c #B59175",
"rX c #B4917A",
"tX c #BA9778",
"yX c #BB947A",
"uX c #C28E78",
"iX c #C4987E",
"pX c #C2A07F",
"aX c #9A8F87",
"sX c #A58581",
"dX c #A9988A",
"fX c #BE9481",
"gX c #AFA595",
"hX c #C18986",
"jX c #C29C83",
"kX c #CB9883",
"lX c #C5A284",
"zX c #C9A589",
"xX c #D2AA8D",
"cX c #CBA996",
"vX c #D5AC95",
"bX c #DAB398",
"nX c #E5BE9D",
"mX c #D1A5A0",
"MX c #E5BBA4",
"NX c #EAC4A6",
"BX c #ECC8B2",
"VX c #F1CEB5",
"CX c #F3D3BA",
"ZX c #F4DACB",
"AX c #F9EAD8",
"SX c #FCF8EC",
/* pixels */
"d.d.d.d.d.d.d.d.d.d.d.d.d.d.d.d.d.d.d.d.d.d.a.a.a.d.d.d.a.a.l.h.z.j.j.l.h.k.k.a.k.p.a.k.a.a.k.a.a.a.a.a.d.d.d.d.d.d.d.d.d.a.d.d.",
"d.d.d.d.d.d.d.d.d.d.d.d.d.d.d.d.d.d.d.d.d.d.a.p.a.d.a.a.k.n.J.c.c.v.c.Z.Z.z.h.a.a.a.a.a.a.a.a.a.a.a.a.k.d.d.d.d.d.d.d.d.d.d.d.d.",
"d.d.d.d.d.d.d.d.a.d.d.d.d.d.d.d.d.d.d.d.d.d.d.l.j.h.l.j.m.K.K.D.D.Z.#.X.#.N V p.p.a.k.k.a.k.a.a.k.a.a.a.d.d.d.d.d.d.d.d.d.d.d.d.",
"d.d.d.d.d.d.d.d.d.d.d.d.d.d.d.d.d.d.d.d.d.k.b.v.z.z.m.c.B.#.N X.v.Z.} ; 1 * < Z h.k.k.k.a.a.a.a.a.a.a.a.d.d.d.d.d.d.d.d.d.d.d.d.",
"d.d.a.d.d.d.d.d.d.d.d.d.d.d.d.d.d.d.d.d.d.m.` m n n x.#.n ; - n X.' o.0 @ & t N c.Z.D.n.a.a.a.a.a.a.k.a.a.a.d.d.a.d.d.d.d.d.d.d.",
"d.d.d.d.d.d.d.d.d.d.d.d.d.d.d.d.d.d.k.g.+.x.b ! O.X.X.N 1 & - y #.o.o.m e 1 ` c.B.c.#.c.b.k.a.a.a.a.a.a.a.a.a.d.d.d.d.d.d.d.d.d.",
"d.d.d.d.d.d.d.d.d.d.d.d.d.d.d.d.d.d.j.' N O.f f ' ` f N 1 * t 0 0 v f m v X.x.o.| | m #.D.b.k.a.a.k.a.a.d.d.d.d.d.d.d.d.d.d.d.d.",
"d.d.d.d.d.d.d.d.d.d.d.d.d.d.a.d.d.j.x.` N | 0 ; 7 p i i & - n -   o < = p X.f y n | m m o.m.l.b.k.a.a.a.d.d.d.d.d.d.d.d.d.d.d.d.",
"d.d.d.d.d.d.d.d.d.d.d.d.d.d.d.d.s.v.O.n d y ; $ * 6 = < < u i -     @ = i u # % - - * - v O.z.v.n.l.a.d.d.d.d.d.d.d.d.d.d.d.d.d.",
"d.d.d.d.d.d.d.d.d.d.d.d.a.d.d.d.g.z.M p ; * - o % % . - q - % * o . o = ; @ o X X . + o t n X.o.O.y.e.d.d.d.d.d.d.d.d.d.d.d.d.d.",
"d.d.d.d.d.d.d.d.d.d.d.d.d.d.s.A n n t i ; % % o # .   o * - % % o o . 1 = o # o o o . o ; m X.M m i 2 s.d.d.d.p.d.d.d.d.d.d.d.d.",
"d.d.d.d.d.d.d.d.d.d.d.d.d.a.s.' n 0 - y 1 % # . .       % * # . . . + % o o . . o . X . - f | | N n x s.d.d.d.d.d.d.d.d.d.d.d.d.",
"d.d.d.d.d.d.d.d.d.d.d.d.d.r.z.M M e ; 0 q 6 # o .   . . $ * # o . X   . . . .   . .     o 4 d y f o.o.V a.d.d.d.d.d.d.d.a.d.d.d.",
"d.d.d.d.d.d.d.d.d.d.d.d.a.x +.M M 1 @ * 6 - - * # # $ 5 s E g 5 4 # . # # o .     .   . . # * # 1 n #.Z a.p.d.d.d.d.d.d.d.d.d.d.",
"d.d.d.d.d.d.d.d.d.d.d.d.d.C N +.M 1 o o % 0 J s F F H Y $.].].L H S 9 8 9 8 5 $ . .       . . . o * m N a.a.d.d.d.d.d.d.d.d.d.d.",
"d.d.d.d.d.d.d.d.d.d.d.d.d.e.N x.M 0 * % 4 W >.>.=.,.=.1.8.XX&X-.] ] ^ Y Y Y L F 7 #             . # p X.s.d.d.d.d.d.d.d.d.d.d.d.",
"d.d.d.d.d.d.d.d.d.d.d.d.d.A O.' p 1 t t E 6.|.'.^.'.A.w.w..X#XI.8.2.,.,.-.=.$.] L 9 # .   .     . o ; p r.d.d.d.d.d.d.d.d.d.d.d.",
"d.d.d.d.d.d.d.d.d.d.d.d.d.u.` n 1 i X.! 5.F.XX,XXX|.|.(.~..XOX(.T.Y.0.I.I.w.8.2.=.Y 9 3 # o o o o o * t r.a.d.d.d.d.d.d.d.d.a.d.",
"d.d.d.d.d.d.d.d.d.d.d.d.d.s.X.v ; ; f E 5.'.<X<XXX|.(.(._._..X_.).T.!.~.~.U.w.T.I.=.Y D r 7 # o o * - u t.a.d.d.d.d.d.d.d.d.d.d.",
"d.d.d.d.d.d.d.d.d.d.d.d.d.y.p y 6 * 1 f @.|.2X,XOX|.(.(._.(._._././././.~.T.w.~.~.8.$.Y Y H 6 o +   * 1 t.k.d.d.d.d.d.a.a.d.d.d.",
"d.d.d.d.d.d.d.d.d.d.d.d.a.y.u 1 ; ; 6 y  .XX7X2X.X X(.(./.[. X[./././././.~.w.~.U.8.&.] $.=.Q * o .   > r.a.d.d.d.d.d.d.d.d.d.d.",
"d.d.d.d.d.d.d.d.d.d.d.d.d.y.v ; & * y r *.2X9X7X2X.X(.~._.&X5X#X_._.[./.~.~.I.U.U.8.2.=.7.U.=.6 .   * @ i.a.d.d.d.d.d.d.d.d.d.d.",
"d.d.d.d.d.d.d.d.d.d.d.d.k.g.u @ o o 6 s U.9X7X2X7XOX'.(. X9XyX3X X[./.^.U.(.(._.(.(.U.U.U.(.=.- X o * 2 a.a.a.a.d.d.d.d.d.d.d.d.",
"d.d.d.d.d.d.d.d.d.d.d.a.p.Z % % o o * T .XtX9XtXfXtX&X XOX7XeX2X#X X_./.(. X2X2X2X2X.X_._.(.*.; * X o B k.a.a.a.d.d.d.d.d.d.d.d.",
"d.d.d.d.d.d.d.d.d.d.d.d.d.B % . X o 7 !.eXlXtXgXzXgX9X2X#X;X;X;X#X#X X.X.X#X2X5X6X2X2XOX_.I.*.; . . o e.d.d.d.d.d.d.d.d.d.d.d.d.",
"d.d.d.d.d.d.d.d.d.d.d.d.d.h . . X #  .2XeX6X<X%X<X,X,X|.*X&X.X X.X@XoXoXoX.XOXOX2X6X6X3X.XU.=.; . . , i.d.d.d.d.d.d.d.d.d.d.d.d.",
"d.d.d.d.d.d.d.d.d.d.d.d.a.B # . . a |.9X,X5.@.#.@.o.n f Q 6.!.^.(.[.[. X'.[. XXX2X,X,X,X.X(.w.6 . + 2 a.d.d.d.d.d.d.d.d.d.d.d.d.",
"d.d.d.d.a.d.d.d.d.d.d.d.a.M.K - * @.2X7X X9.6.w.q.@. .f 0 6 J *.w././.!.7.*.Q ! | | Q | *.A.A.y . . h d.d.d.a.d.a.d.d.d.d.d.d.d.",
"d.d.d.d.d.d.d.d.d.d.d.d.d.`.P.<.t 6.7XOX~.w.9.8.9.w.0.,.^ F H ] 9.!.C.,./ r $ $ - 0 d y a | A.d . o z a.d.d.d.d.d.d.d.d.d.d.d.d.",
"d.d.d.d.d.d.d.d.d.d.d.d.d.%X{.N.n S.tX2XI.=.T P I g g K H H L -.w.C.w.%.F 9 F ( *.>.=.%./ / !.m . @ i.a.d.d.d.d.d.d.d.d.d.d.d.d.",
"d.d.d.d.d.d.d.d.d.d.d.a.d.=X-X@.v |.lXpX2X8.*./ J q ; 4 5 9 L ] w.(.}.] S S H ^ ) ;.=.( ( =.^.E o h p.a.d.d.d.d.d.d.d.d.d.d.d.d.",
"d.d.d.d.d.d.d.d.d.d.d.d.d.sX;X~ f *XlXbXbXtX~.8.8.,.[ L H H Y [ .XeX9X3.9 7 w - - ; g J U 7.'.E q y.d.a.d.d.d.d.d.d.d.d.d.d.a.d.",
"d.d.d.d.a.d.d.d.a.a.a.a.k.dX8XW g 3XpXxXnXNXxX/.1.&.] ] ] [ { ^.zXvXiX.X$.F K W R W _ ;.!.(.'.| ) j.d.d.d.d.d.d.d.d.d.d.d.d.d.d.",
"d.d.d.d.d.d.d.d.d.a.a.a.d.dXkX<.I 9XpXxXnXBXVXxX(.7.1.2.2.8.T.jXBXMXzX8X X2.^ ^ [ &.2.'.2XOX(. .' d.d.d.d.d.d.d.d.d.d.d.d.a.d.d.",
"d.d.d.d.d.d.d.d.d.a.a.a.a.aXbX^.@.9XiXnXNXVXCXBXjXOX).Y.P./.kXVXAXZXbXuX;XoXR.0.0.T..XrXtX6XXXI f.d.d.d.d.d.d.d.d.d.d.d.d.d.d.d.",
"d.d.d.d.d.d.d.d.d.d.a.a.a.G.cX0X].tXxXnXNXnXMXbXxXqX.XE.;XvXCXAXSXZXMXzX8X#X-X&X3X5XrXlXtX5X|.| z.a.d.d.d.d.d.d.d.d.d.d.d.d.d.d.",
"d.d.d.d.d.d.d.d.d.d.d.d.a.k.sXfX<XtXlXzXxXlXuXrX5X.X).E.vXVXBXCXZXBXMXbXiX8X:X:X5X8XrXjXtX7X|.5.n.d.d.d.d.d.d.d.d.d.d.d.d.d.d.d.",
"d.d.a.d.d.d.d.d.d.d.d.d.d.a.l.J.6XtX2X#X:X;XOX.XE.P.E.{.uXuXuXiXkXhXuXuXkXiX#X[.#X:X8XyXeX:XXXF.n.d.d.d.d.d.d.d.d.a.d.d.d.d.d.d.",
"d.d.d.d.d.d.d.d.d.d.d.d.d.d.a.l.1X9X_.Y./.).E.1.-.8./.:X`.1.P.Q.@X+XQ.Y.).-X:X/.E..X:X5X3XOX}.F.l.a.d.d.d.d.d.d.d.d.d.d.d.d.d.d.",
"d.d.d.d.d.a.d.d.d.d.d.d.d.d.a.l.1X5X(.8.0.Y.%.[ &.3.oXsX*X3.3.M.Y.P.{ K ^ }.:X{.3.P.)..X[./.'.n.a.d.d.d.d.d.d.d.d.d.d.d.d.d.d.d.",
"d.d.d.d.d.d.d.d.d.d.d.d.d.d.d.d.%X&X^.8.T.-.^ ( _ V.0XzXrXR.C.Y.Y.3.{ &.^.&X*X}.-.] 2.T.T.w.S.b.d.d.d.d.d.d.d.a.d.d.d.d.d.d.d.d.",
"d.d.d.d.d.d.d.d.d.d.d.d.d.d.a.a.J..X!.9.Y.%.( ( _ }.zXbXcX$XY.Y.3.M.E.&X5X4X*X'.;.L Y 2.0.7.V.j.d.d.d.d.d.d.d.a.d.d.d.d.d.d.d.d.",
"d.d.d.d.d.a.d.d.d.d.d.d.d.d.d.a.m.[./.0.Y.-.( ( F F 1.`.@X).Y.3.V.W.$X:X>X>X&XE.%.L K &.2.8.B.a.d.d.d.d.d.d.a.a.d.d.d.d.d.d.d.d.",
"d.d.d.d.d.d.d.d.d.d.d.d.d.d.d.a.b.^./.T.I.0.%.2.{ 9 b ].'.`.Y.3.1.1.1.1.{ { ^ [ K K ^ 2.2.0.v.a.d.d.d.d.d.d.a.a.d.d.d.d.a.d.d.d.",
"d.d.d.d.d.d.d.d.d.d.d.d.d.d.d.d.s.N.!.!.w.w.=.0.Y.M.:.].1XdXdXdX:X<X%X%XV.J q R ~ L =.9.9.0.` r.d.a.d.d.t.z t.p.a.a.t.t.i.d.d.d.",
"d.d.d.d.d.d.d.d.d.d.d.d.d.d.d.d.d.x.w.T.0.8.2.9.^..X>XsXdXaXdXgXdXgXsXaX=XV.`.}.C.-.0.7.9.;.0 h a.d.d.t.> O + , h h : 2 h e.d.d.",
"d.d.d.d.d.d.d.d.d.d.d.d.d.d.d.d.d.f.&.0.0.7.9.9.E.oX>XhXcXcXsX=X].$X=XsX>X$X$XoX^.8.7.2.,.i , 2 e.e.e.2       O O O + @ < < h B ",
"d.d.d.d.d.d.d.d.d.d.d.d.d.d.d.d.d.x.*.&.8.7.0.C.I.@X>X:X-X>XhX>X$X$X-X-X{.$XXX[.C.=.$. .g o @ : : : O           O O + @ > , , , ",
"d.d.a.d.d.d.d.d.d.d.d.d.a.d.d.d.a.z.>.) $.,.9.w.!.'.XX.X{.{.Q.Q.W.W.W.`.`.[.[.(.8.( U J = O   O O +               X O o : : > , ",
"d.d.d.d.d.d.d.d.d.d.d.d.d.d.d.d.a.z.9.../ &.4.9.^.XXoX{.`.`.E.C.R.R.^.R.^.'.'.C.%./ F R %   X o O                 X O O @ , , , ",
"d.d.d.d.d.d.d.d.d.d.d.d.d.d.d.d.a.j.C.6./ T *.4.^.4XyXoX^.E.V.3.:.M.C.R.`.XX(.6. .P W @.,   X O X                     O + > , > ",
"d.d.d.d.d.d.d.d.d.d.d.d.d.d.d.d.a.b.S.9. .P  .%.N.oXjXjX:XR.C.V.C.'.XXXXoX*XC...P J V.! X                           X X + > > * ",
"d.d.d.d.d.d.d.d.d.d.d.d.d.d.d.d.a.n.F.q.7...P /  .S.4XyXlX0X*X}.*X:X0X&X&X|.;.J s V.N.u         X                 O   + + @ > > ",
"d.d.d.d.d.d.d.d.d.d.d.d.d.d.d.d.a.b.V.A.9.4.I a W | C.'.&X<X|.'.].XX&X*X'.@.v g 7.A.m @                             O   + @ > > ",
"d.d.d.d.d.d.d.d.d.d.d.d.a.a.d.d.a.B @.A.w.7.*.Q s s Q ;.<.M.6.M.V.V.R.V...d y ;.C.) 1 .     O .                         O @ & & ",
"d.d.d.d.d.d.d.a.d.d.d.d.a.a.i.i.e.o ) C.C.q.7.=.I r 8 a g g R W ) ) I b 0 w _ 4.9.b :                           +       + @ @ + ",
"a.a.a.a.a.a.a.a.d.d.d.d.C C B V k   E A.9.9.9.4.*.( D 7 6 3 4 4 6 4 ; 5 8 I %.V.<.n ,       +           O       +         + o O ",
"a.k.a.a.a.a.a.a.d.d.t.B x V V V A } P V.w.9.9.7.4.=.T I F r 5 5 7 7 9 F Y ,.V.>.n u *         X             O               O   ",
"a.a.a.a.k.a.k.h.u.k % O h V c c G.L.o.,.9.7.7.7.7.,.=.$.U U H H F H K ( 7.9.,.O.x 2         O           +     O                 ",
"a.a.a.a.a.k.h.r.l + @ 2 V c c c J.gXZ.;.4.4.7.7.7.7.,.*.$./ U U U Y ( &.&.^ b u   1       +             X +                     ",
"k.h.h.u.g.g.A k > + > c c 2 k j m.K.z.E *.4.=.7.7.7.7.>.,.>.*.( ^ ( ( [ ~ 7 % + + , .                                           ",
"y.A A A A Z c >   O j c j 2 k k m.L.D.! / *.=.,.2.,.,.7.7.7.=.%._ $.$.~ d o @ O + <                                             ",
"V V c V V j , O + 2 c c j 2 k c m.J.K.x.) ( %.,.7.4.,.2.,.,.,.4.,.7.%.g o   O . + &     O                                       ",
"c c V k h , O + j c k c j 2 2 c z.J.L.J.i d ) ..=.7.7.2.7.7.7.q.9.9.W % .       : o     O                                       "
};
