/* XPM */
static char *ed397c33f6564450ce26a73e4c3a2b7cn2o7z7SfBEFe6Ngt[] = {
/* columns rows colors chars-per-pixel */
"64 64 209 2 ",
"   c #060303",
".  c #0C0504",
"X  c #0E0906",
"o  c #090709",
"O  c #0C0A0C",
"+  c #100705",
"@  c #120A06",
"#  c #180A06",
"$  c #130D09",
"%  c #190E0B",
"&  c #15110C",
"*  c #1B120D",
"=  c #0F0D10",
"-  c #110E11",
";  c #0F1110",
":  c #141213",
">  c #171717",
",  c #1C1511",
"<  c #1D1814",
"1  c #1C1C1A",
"2  c #23150E",
"3  c #27180F",
"4  c #34190D",
"5  c #211712",
"6  c #241A15",
"7  c #2A1C15",
"8  c #251E19",
"9  c #291F19",
"0  c #341B12",
"q  c #391C12",
"w  c #1F211F",
"e  c #292017",
"r  c #24211D",
"t  c #2C221C",
"y  c #32251D",
"u  c #382419",
"i  c #252422",
"p  c #2B2522",
"a  c #2B2925",
"s  c #27262A",
"d  c #2B2A2B",
"f  c #322621",
"g  c #352A23",
"h  c #3A2D25",
"j  c #332D2A",
"k  c #3B2F29",
"l  c #2F312E",
"z  c #3C3027",
"x  c #33312E",
"c  c #3D312A",
"v  c #2B2C34",
"b  c #292F3B",
"n  c #332F36",
"m  c #2D313C",
"M  c #343433",
"N  c #373936",
"B  c #35353D",
"V  c #3C3738",
"C  c #492617",
"Z  c #40261A",
"A  c #562B19",
"S  c #5D321D",
"D  c #602F1A",
"F  c #64331E",
"G  c #69351F",
"H  c #422E25",
"J  c #502F21",
"K  c #42342C",
"L  c #49372D",
"P  c #5E3422",
"I  c #57392B",
"U  c #443630",
"Y  c #483730",
"T  c #453933",
"R  c #4B3C34",
"E  c #41393A",
"W  c #4B3E39",
"Q  c #523E36",
"!  c #513F38",
"~  c #683A25",
"^  c #723B25",
"/  c #703F2B",
"(  c #3F413E",
")  c #47413C",
"_  c #4E423A",
"`  c #524137",
"'  c #53433B",
"]  c #59463E",
"[  c #56483F",
"{  c #59483F",
"}  c #69402D",
"|  c #74422A",
" . c #7A452B",
".. c #6A4536",
"X. c #7B4933",
"o. c #2F374D",
"O. c #333543",
"+. c #31374A",
"@. c #353A4D",
"#. c #393A48",
"$. c #333C57",
"%. c #393F55",
"&. c #343D58",
"*. c #383F59",
"=. c #453F4B",
"-. c #3B414F",
";. c #3C4155",
":. c #3C435A",
">. c #39526C",
",. c #3B4879",
"<. c #424543",
"1. c #464946",
"2. c #4A4A46",
"3. c #4A4D4B",
"4. c #554542",
"5. c #554942",
"6. c #5C4C43",
"7. c #51444C",
"8. c #5D4E49",
"9. c #4D514E",
"0. c #59524B",
"q. c #5F524A",
"w. c #434554",
"e. c #444854",
"r. c #4C4954",
"t. c #42465A",
"y. c #43495B",
"u. c #4B4C5C",
"i. c #544B51",
"p. c #4E5352",
"a. c #4C505B",
"s. c #525554",
"d. c #545956",
"f. c #5B5A56",
"g. c #52555C",
"h. c #5A565F",
"j. c #555A5B",
"k. c #595D5B",
"l. c #614D45",
"z. c #624F49",
"x. c #6B4E49",
"c. c #635147",
"v. c #64534B",
"b. c #69564D",
"n. c #6B584E",
"m. c #665952",
"M. c #685853",
"N. c #6C5C54",
"B. c #725E54",
"V. c #5E625E",
"C. c #6E6059",
"Z. c #746155",
"A. c #74645B",
"S. c #77665B",
"D. c #79665D",
"F. c #7C695E",
"G. c #535562",
"H. c #595763",
"J. c #5C5C65",
"K. c #564E76",
"L. c #7C546D",
"P. c #5A6162",
"I. c #686667",
"U. c #746767",
"Y. c #746B65",
"T. c #7C6B63",
"R. c #7A6D6B",
"E. c #7E7067",
"W. c #7D7169",
"Q. c #716D73",
"!. c #7D7673",
"~. c #824C35",
"^. c #8D5333",
"/. c #86563E",
"(. c #A5643D",
"). c #865842",
"_. c #8A6956",
"`. c #B47145",
"'. c #A87557",
"]. c #886163",
"[. c #826E64",
"{. c #847165",
"}. c #897266",
"|. c #85746C",
" X c #8C766C",
".X c #8F7B6E",
"XX c #94796C",
"oX c #847973",
"OX c #8C7C73",
"+X c #927F73",
"@X c #927F78",
"#X c #AB7A68",
"$X c #C47F51",
"%X c #8E8379",
"&X c #948176",
"*X c #988170",
"=X c #94847B",
"-X c #A88169",
";X c #A58E7E",
":X c #D18C5A",
">X c #D79467",
",X c #2F64AC",
"<X c #4275AD",
"1X c #72879E",
"2X c #9D8D84",
"3X c #86969D",
"4X c #A28F81",
"5X c #AE9988",
"6X c #98A3AA",
/* pixels */
"$.$.$.$.$.$.$.$.$.$.$.$.$.$.$.$.$.$.$.$.$.$.$.$.$.$.$.$.$.$.$.$.$.$.$.$.$.$.$.$.$.$.$.$.$.$.$.$.$.$.$.$.$.$.$.$.$.$.$.$.$.$.$.$.",
"$.$.$.$.$.$.$.$.$.$.$.$.$.$.$.$.$.$.$.$.$.$.$.:.$.$.$.$.:.$.$.$.$.$.$.$.$.$.$.$.$.$.$.$.$.$.$.$.$.$.&.$.$.$.$.$.$.$.$.$.$.$.$.$.",
"$.$.$.$.$.$.$.$.$.$.$.$.$.$.$.$.$.$.$.$.$.$.:.I.I.I.G.a.g.a.I.a.:.H.G.:.y.y.a.G.u.;.&.&.:.$.$.$.$.$.$.$.$.$.$.$.$.$.$.$.$.$.$.$.",
"$.$.$.$.$.$.$.$.$.$.$.$.$.$.$.$.$.$.$.$.$.$.G.2X2XE.A.Y.Y.E.%XE.q.A.oXP.Y.W.W.|.I.G.u.J.a.u.y.$.$.$.$.$.$.$.$.$.$.$.$.$.$.$.$.$.",
"$.$.$.$.$.$.$.$.$.$.$.$.$.$.$.$.;.$.$.H.!.oXOX&X|.v._ 6.T.oX|.|.E.C.A.T.oX%XoX{.m.y.U.oXoXJ.H.&.$.$.$.$.$.$.$.$.$.$.$.$.$.$.$.$.",
"$.$.$.$.$.$.$.$.$.$.$.$.$.$.$.$.:.h.J.%X5X;X[.Z.Z.Z.6.q.N.%X=X%XW.v.6.N.E.=XoXq.<.7.M.oXQ.u.J.:.$.$.$.$.$.$.$.$.&.$.$.$.$.$.$.$.",
"$.$.$.$.$.$.$.$.$.$.$.$.$.$.:.u.T.*X;X;X5X4X*X}.F.A.T.oX|.n.N.v.v.N.5.v.T.E.Z.R K 5.v.B.N.N.].U.y.$.$.$.$.$.$.$.$.$.$.$.$.$.$.$.",
"$.$.$.$.$.$.$.$.$.$.$.$.$.$.t.N. X}.XX+X.X%X&X.XF.A.=X|.|.n.' 6.q.N.T.A.v.5.5.5.v.6.4.4.' v.T.[.Q.:.$.$.$.$.$.$.$.$.$.$.$.$.$.$.",
"$.$.$.$.$.$.$.$.$.$.$.$.$.:.r.N.B.Z.{.[.B.+X;X.XF.n.0.A.=XZ.{ N.q.v.Y.N.[ v.[ 5.[ ' v.` ' v.B.T.@XQ.y.&.$.$.$.$.$.$.$.$.$.$.$.$.",
"$.$.$.$.$.$.$.$.$.$.$.$.:.R.b.M.6.v.c.5.b.+X;X[.N.q._ ' E.F.{.S.' 6.N.N.T.|.T.m.A.T ` 6.z.x.T.OX2XR.u.&.$.$.$.$.$.$.$.$.$.$.$.$.",
"$.$.$.$.$.$.$.$.$.$.$.$.H.2X|.n.] b.q.L c.Z.[.6.[ ( ) _ q.[ { ` c c 6.v.[.&X}.[.[.` Q 6.M.B.B.[.OXT.M.7.%.$.$.$.$.$.$.$.$.$.$.$.",
"$.$.$.$.$.$.$.$.$.$.$.:.M. XT.b.{.{.v.T ' 6.N.v.` y a g z _ z e a z c _ l.B.B.N.[.[.Z.M.T.b.] z.v.b.l.z.z.7.$.$.$.$.$.$.$.$.$.$.",
"$.$.$.$.$.$.$.$.$.$.$.r.6.B.[.l.N.N.8.' 6.6.n.q.g e e e a g ) ` [ [ ` c.S.Z.}.}.[.[.b.z.z.4.! K H 6.l.b.M.b.$.$.$.$.$.$.$.$.$.$.",
"$.$.$.$.$.$.$.$.$.&.u.u.' 6.@XU.q.q.8.N.%XZ.T.` z a e w g a y ) b.E.Z.Z.F._.n.6.6.] ' l.] ] Q K R 4.6.x.b.B.i.*.$.$.$.$.$.&.$.$.",
"$.&.$.$.$.$.$.$.$.y.oX Xc.b.A.Q R _ 6.S.S.v.' ) z g a y z z e e ` c.{ { ` [ R _ Y T Y ` ] Q z.|.D.] z.z.b.B.v.w.$.$.$.$.$.$.$.$.",
"$.$.$.$.$.$.$.$.$.y.R.}.N.].b.z.R K q.6.` _ c g e < 2 y y e e z ` Z.{.A.Z.{ .._ H 9 h Y h y h D.[.] ! z.B.M.Y.I.&.$.$.$.$.$.$.$.",
"$.$.$.$.$.$.$.$.$.G.T.T.B.l.=.x.u f Y W R R k 9 2 & * * e c ) [ c.F.}.Z.{ [ ` ) y % t Y h 5 6 6.T.Q ] ] ] 8.v.J.$.$.$.$.$.$.$.$.",
"$.$.$.$.$.$.$.$.*.Q.A.v.] Y Y K f U k Y h H k h e $ & < e z ) ` { [ ` [ { K y g 2 9 g h h g f ' 4.] ! K L ' K #.$.$.$.$.$.$.$.$.",
"$.$.$.&.$.$.$.$.G.@XB.R f K R Y f j g U H f g h ` ` { ` g y y y L K h { { ` y y t H f h H Y c z c ' 4.K h g k %.$.$.$.$.$.$.$.$.",
"$.$.$.$.$.$.$.$.u.N.! h H k Y 4.K 7 9 k h g 9 f { A.;X{ g t e z ` c z y y ` _ g g T f e 8 9 h g t g W U f 6 j +.$.$.$.$.$.$.$.$.",
"$.$.$.$.$.$.$.$.w._ T Y ! W z.4.4.U ' T U 7 7 g ` { {.( e , < c [ ` g y z z [ c f 8 & * < e t t 6 8 f T x y B $.$.$.$.$.$.&.$.$.",
"$.$.$.$.$.$.$.$.%.4.4.Q W M.8.h p U 4.v.R g 7 H L ( ` z t * * c v.q.) z c y g y y e 6 e e t r 8 5 , t c t j @.$.$.$.$.$.$.$.$.$.",
"$.$.$.$.$.$.$.$.%.M.8.H R T.U.9 6 T 5.z.! k g q z y t t y t e [ Z.b.` ` ' z g g 6 * p h j a t t t r 6 t e v $.$.$.$.$.$.$.$.$.$.",
"$.$.$.$.$.$.$.$.$.8.K 9 k M.M.9 2 f c Y h U h Y N.[ z z c c y ` Z.b.H [ c._ e e < * t e t t e & , * & * 6 s $.$.$.$.$.$.$.$.$.$.",
"$.$.$.$.$.$.$.$.&.W K 9 6 t f 9 * 6 9 h L ' T T R [ _ N.{ ` ` n.b.` z ` n.` t e e * * < e e e & X @ $ * 9 v $.$.$.$.$.$.$.$.$.$.",
"$.$.$.$.$.$.$.$.&.#.u 6 * , t g g t H g h k h R u 5 y { b.n.c.c.` ` ` z z z g ) ' g $ * e e e , 6 5 8 8 6 b &.$.$.$.$.$.$.$.$.$.",
"$.$.$.$.$.$.$.$.$.=.U 9 , 2 U M.B.' U.4.f 7 f k t * e T _ y t e y ` n.` y e e z ) e * , & , & X @ & % $ & v &.$.$.$.$.$.$.$.$.$.",
"$.$.$.$.$.$.$.$.$.#.g y p t W C.8.T N.M.c 5 % , * * e * e y g y z c ` z g 2 & * e e * , < , & , < & , 8 i +.$.$.$.$.$.$.$.$.$.$.",
"$.$.$.$.$.$.$.$.$.#.j e 9 g h T c f 9 9 t t 6 % # * g z y e t z z ) c g 3 2 < < , * X $ * & $ < e r s O.+.$.$.$.$.$.$.$.$.$.$.$.",
"$.$.$.$.$.$.$.$.&.@.j k 6 g H K K , @ , , % 6 , % 6 c _ g e e y g y e a e r 2 r , @ & & & & @ 5 6 i $.$.&.$.$.$.$.$.$.$.$.$.$.$.",
"$.$.$.$.$.$.$.$.&.o.E 4.5 9 f K h 5 @ % % # p 9 y _ v._ e 6 < < * * 2 g c t & < e w & & & , < < 6 i $.$.$.$.$.$.$.$.$.$.$.$.$.$.",
"$.$.$.$.$.$.$.$.$.$.7.Y 7 t y K g 6 % . . * g U c z y e * & % * & $ , e a < X X * w & X $ < < , 6 d $.$.$.$.$.$.$.$.$.$.$.$.$.$.",
"$.$.$.$.$.$.$.$.$.$.W k f 6 , # - % + . # # 5 9 g g 7 & $ & X . X & < * * * < X & & . $ , t < 6 r d $.$.$.$.$.$.$.$.$.$.$.$.$.$.",
"$.$.$.$.$.$.$.$.$.$.E Q K , # + % 5 $ % R j * , & & & $ X   . . X * < X X & * X $ X $ & < r e 6 e m $.$.$.$.$.$.$.$.$.$.$.$.$.$.",
"&.$.$.$.$.&.$.$.$.$.w...H g 6 # k W 6 8 n t % @   @ & $ X X & , , & & $ & * & X X $ $ < w e < e t O.$.$.$.$.$.$.$.$.$.$.$.$.$.$.",
"$.$.$.$.$.$.$.$.$.$.*.x.P Y f 9 =.R 6 , % * % o   . . & $ & & & X   . $ w w & X X X $ < 5 e e 6 s $.$.$.$.$.$.$.$.$.$.$.$.$.$.$.",
"$.$.$.$.$.$.$.&.$.$.$.=./ I H h Q f % % + , 5 @           . % $         X X X X X X , 6 6 9 6 5 O.$.$.$.$.$.$.$.$.$.$.$.$.$.$.$.",
"$.$.$.$.$.$.$.$.$.$.$.$.=.I H h 9 7 # # 5 p 5 , X         @ , 6 , & X $ & . X $ $ , < * 6 t 5 6 +.$.$.$.$.$.$.$.$.$.$.$.$.$.$.$.",
"$.$.$.$.$.$.$.$.$.$.$.$.*.=.H 9 u 9 , 6 5 6 t p < * $ $ @ - 6 g [ T t r & X X $ $ : : % < 6 2 M $.$.$.$.$.$.$.$.$.$.$.$.$.$.$.$.",
"$.$.$.&.$.$.$.$.$.$.$.$.&.*.E u f g 9 9 7 9 f 6 * * $ $ @ - 5 6 r 6 6 < X X & ; $ < $ % 5 6 f %.$.$.$.$.$.$.$.$.$.$.$.$.$.$.$.$.",
"$.$.$.$.$.$.$.$.$.$.$.$.$.$.$.H 0 7 9 7 7 2 7 % . + . . . @ * $ $ & * # X X $ & , , & , 5 9 +.$.$.$.$.$.$.$.$.$.$.$.$.$.$.$.$.&.",
"$.$.$.$.$.$.$.$.$.$.$.$.$.$.&.V q 2 7 3 7 7 L %     . . . @ $ , * * , $ $ $ X $ * , 6 , 2 j $.$.$.$.$.$.$.$.$.$.$.$.$.$.$.$.$.$.",
"$.$.$.$.$.$.$.$.$.$.$.$.$.$.$.$.c 3 2 2 7 0 h 8 . . . @ @ @ * , & $ @ $ O $ $ $ $ & * 2 5 O.$.$.$.$.$.$.$.&.$.$.$.$.$.$.$.$.$.$.",
"$.$.$.$.$.$.$.$.$.$.$.$.$.$.$.$.@.g 0 2 5 9 7 6 % # + + @ . @ $ @ X X O $ X $ $ @ $ & * n $.$.$.$.$.$.$.$.$.$.$.$.&.$.$.$.$.$.$.",
"$.$.$.$.$.$.$.$.$.$.$.$.$.$.$.$.&.V 0 5 2 2 % $ , % # + + . X . X X X X $ o X X @ & * t $.$.$.$.$.$.$.$.$.$.$.&.$.$.$.$.$.&.$.$.",
"$.$.$.$.$.$.$.$.$.$.$.$.$.$.$.$.$.$.g 0 2 % % # + @ $ o @ @ X @ X @ $ X X . . X $ * 5 O.$.$.$.$.$.$.$.$.$.$.$.$.$.$.$.$.$.$.$.$.",
"$.$.$.$.$.$.$.$.$.$.$.$.$.$.&.$.$.*.' 0 2 * % % % X @ # + @ + . X @ @ X X . . X @ * u w.$.$.$.$.$.$.$.$.$.$.$.$.$.$.&.$.$.$.$.$.",
"$.$.$.$.$.$.$.$.$.$.$.$.$.$.&.&.&.=._.~ q % 2 * # + @ o @ @ + . X o . . . . X @ @ 3 ..u.$.$.$.$.$.$.$.$.$.$.$.&.$.$.$.$.$.$.$.$.",
"$.$.$.$.$.&.$.$.$.$.$.$.$.$.$.$.&.t.'.).~ 4 * % @ @ @ + + . + + . + . . + @ @ @ 5 J ).w.$.$.$.$.$.$.$.$.$.$.$.$.$.$.$.$.$.$.$.$.",
"$.$.$.$.$.$.$.$.$.$.$.$.$.$.$.$.&.*.'.`.^.C 2 # # @ + + + + . + + . + . + # % 5 u ~ /.r.$.$.$.$.$.$.$.$.$.$.$.$.$.$.$.$.$.$.$.$.",
"$.$.$.$.$.$.$.$.$.$.$.$.$.$.&.$.$.&.#X$X(.| u 2 * % % # # + . . + + + 2 q Z u J / | /.r.$.$.$.$.$.$.$.$.$.$.$.$.$.$.$.$.$.$.$.$.",
"$.$.$.$.$.$.$.$.$.$.&.$.$.$.$.$.&.&.#X:X`.^.F u 4 4 q q 4 2 + # 2 4 C S ~ ~ ~ | X.X./.i.$.$.$.$.$.$.$.$.$.$.$.$.$.$.$.$.$.$.$.$.",
"$.$.$.$.$.$.$.$.$.$.$.$.$.$.$.$.&.&.XX>X:X(. .S C C A S F C 4 C A D ^ ^  .|  .~.~.| Q T #.&.&.$.$.$.$.$.$.$.$.$.$.$.$.$.$.$.$.$.",
"$.$.$.$.$.$.$.&.$.$.$.$.$.$.$.&.&.u.].].-X'.^.~ F F F F G F S D D ^ ^  . .~.~.X...R T z x %.%.$.$.$.$.$.$.$.$.$.$.$.$.$.$.$.$.$.",
"$.$.$.$.$.$.$.$.$.$.$.$.$.$.$.$.g.U.L.K.,.>.) ` P P F ~ G G G G ~ ^ ^ ^ } I J c _ Y.=X) k p p O.$.@.$.$.$.$.$.$.$.$.$.$.$.$.$.$.",
"$.$.$.$.$.$.$.$.$.$.$.$.$.$.+.b i.f.H.K.,X<X1X>.b y 0 0 q q q q 0 0 0 9 i w i x f.!.Y.E 1 > < i n n B $.$.$.$.$.$.$.$.$.$.$.$.$.",
"$.$.$.$.$.$.:.;.$.$.$.$.+.w.p.d.V.3.) -.>.1X6X3Xg.i : o       o o = - - > 1 i d 2.3.j < & ; > < r i a B @.$.$.$.&.&.$.$.$.$.$.$.",
"$.$.$.$.$.$.$.:.$.$.o.b <.g.V.I.V.V.3.( ( ( -.P.f.i , X     o   o o o - - - - $ > ; O $ O : > > 1 w i p x M j M @.%.%.&.$.&.$.$.",
"$.$.-.:.$.:.:.:.y.p.1.p.d.p.s.d.V.d.d.) ( l a w > : O O o o   o . o o o o o o o O O = ; : : : > > < < w i p p a a x M N B #.@.$.",
"$.$.:.-.-.j.V.s.d.j.j.k.d.p.p.9.p.d.p.9.3.( ( w > ; o o o o   o o     o o o O O O O ; ; ; : : : : : > < w r i p a a a a a a a M ",
":.>.d.V.j.V.V.p.d.d.s.d.p.s.9.3.-.9.9.9.1.( -.( d w & ; O O o o o o o o X O X O = O = ; - - - - : : : > > 1 1 w i a i a p p r a ",
"j.V.V.j.j.j.j.p.j.j.s.9.p.p.9.9.[ -.( ) 1.( ( l d w > ; = = O o o O o o o O o O o O O = ; = = - ; : - : , > 1 1 w r r r p i r r ",
"j.P.j.j.j.j.j.p.s.s.9.9.9.9.3.2.1.) ( ( ( l ( l l i w : ; = = o o o o O o o o o o = = O O O = = - - - : : , , > w 1 w r i r i r ",
"a.p.j.p.a.d.d.p.p.p.9.3.3.1.1.1.( ( ( ( ( l s i i w w > ; ; = O o o o o O o o o o o o o O O O X = - - - : : : , > 1 1 1 w w r r "
};
