/* XPM */
static char *_f4c29a1ad01447caa8816d9bfd1773bc2F7tSMlqEB541Fh[] = {
/* columns rows colors chars-per-pixel */
"32 32 232 2 ",
"   c #020201",
".  c #0B0201",
"X  c #050901",
"o  c #0A0C05",
"O  c #0B0B0D",
"+  c #130400",
"@  c #1B0500",
"#  c #1B0B04",
"$  c #110F0D",
"%  c #1A0C07",
"&  c #1C1106",
"*  c #14110C",
"=  c #16150A",
"-  c #0F0F12",
";  c #141415",
":  c #1B1C1C",
">  c #191916",
",  c #0B100C",
"<  c #250A01",
"1  c #251608",
"2  c #371808",
"3  c #231E1B",
"4  c #271D15",
"5  c #3A1B11",
"6  c #1C211A",
"7  c #2B241A",
"8  c #28241B",
"9  c #332416",
"0  c #342A1C",
"q  c #3B2C1C",
"w  c #372717",
"e  c #3E2817",
"r  c #1D2926",
"t  c #2D2A25",
"y  c #2A2A2B",
"u  c #292524",
"i  c #342B22",
"p  c #392E24",
"a  c #322D29",
"s  c #3E392A",
"d  c #393428",
"f  c #2A3633",
"g  c #2D3A34",
"h  c #2A3937",
"j  c #333D3B",
"k  c #3C3D3B",
"l  c #363533",
"z  c #302E31",
"x  c #48230C",
"c  c #56290B",
"v  c #4A2C13",
"b  c #422718",
"n  c #522C1A",
"m  c #5B2D16",
"M  c #48321D",
"N  c #59341C",
"B  c #67381A",
"V  c #703F1E",
"C  c #442F25",
"Z  c #433324",
"A  c #42372B",
"S  c #433B2D",
"D  c #4D3829",
"F  c #513B2C",
"G  c #5A3726",
"H  c #433D33",
"J  c #413E3A",
"K  c #403730",
"L  c #54362C",
"P  c #673925",
"I  c #35413C",
"U  c #3A423D",
"Y  c #3D4037",
"T  c #48402E",
"R  c #58452E",
"E  c #4B4533",
"W  c #454439",
"Q  c #4A473C",
"!  c #534935",
"~  c #584838",
"^  c #5B513C",
"/  c #664429",
"(  c #794929",
")  c #654C3C",
"_  c #674635",
"`  c #754B35",
"'  c #7A5639",
"]  c #6E5038",
"[  c #3F3D40",
"{  c #403E41",
"}  c #344242",
"|  c #394543",
" . c #3E4944",
".. c #3C4848",
"X. c #4B4944",
"o. c #454947",
"O. c #544D44",
"+. c #564C47",
"@. c #4E5247",
"#. c #545145",
"$. c #53544A",
"%. c #5B554C",
"&. c #5A584B",
"*. c #485352",
"=. c #535653",
"-. c #595A52",
";. c #535C5A",
":. c #5A5D59",
">. c #555B57",
",. c #674C42",
"<. c #685846",
"1. c #765A45",
"2. c #615D53",
"3. c #635C59",
"4. c #795F50",
"5. c #5C6157",
"6. c #75624C",
"7. c #79604A",
"8. c #65655D",
"9. c #6B6B5D",
"0. c #676558",
"q. c #726B5E",
"w. c #766556",
"e. c #61634D",
"r. c #5F6665",
"t. c #656B64",
"y. c #6D6B62",
"u. c #686A67",
"i. c #736D62",
"p. c #6D746B",
"a. c #68716A",
"s. c #73736B",
"d. c #7C7C6D",
"f. c #7A7669",
"g. c #6C7673",
"h. c #757A73",
"j. c #7C7E7A",
"k. c #787873",
"l. c #834C35",
"z. c #8A5837",
"x. c #945E3A",
"c. c #825E49",
"v. c #976746",
"b. c #89695A",
"n. c #976B56",
"m. c #8C745C",
"M. c #977356",
"N. c #8B6649",
"B. c #A5704C",
"V. c #A47859",
"C. c #AB7252",
"Z. c #8A7963",
"A. c #867967",
"S. c #957C69",
"D. c #897E78",
"F. c #826F60",
"G. c #B17E61",
"H. c #7D827B",
"J. c #B7815B",
"K. c #8A826E",
"L. c #94806E",
"P. c #848477",
"I. c #87897D",
"U. c #9A8C7B",
"Y. c #97927D",
"T. c #AC8364",
"R. c #BA8765",
"E. c #A58A79",
"W. c #B59172",
"Q. c #AF9079",
"!. c #C8926E",
"~. c #CA9A76",
"^. c #C99570",
"/. c #D2A07B",
"(. c #7E8480",
"). c #838581",
"_. c #8A8B83",
"`. c #8A8D87",
"'. c #8E9186",
"]. c #9A9984",
"[. c #9C9B8C",
"{. c #97948A",
"}. c #939C95",
"|. c #9A9B95",
" X c #90918C",
".X c #AB9C8C",
"XX c #A39788",
"oX c #A59E92",
"OX c #B19891",
"+X c #9DA19A",
"@X c #ACA48E",
"#X c #ABA186",
"$X c #BBA48D",
"%X c #A9A499",
"&X c #B5AC96",
"*X c #B4AA9B",
"=X c #BBAB9D",
"-X c #B3A697",
";X c #BBB19E",
":X c #A8ABA7",
">X c #B8AEA5",
",X c #BBB6A7",
"<X c #AFB4B2",
"1X c #B4B7B2",
"2X c #B7BBB6",
"3X c #CB9F89",
"4X c #D59C81",
"5X c #C1B59C",
"6X c #D3AC92",
"7X c #E7B69D",
"8X c #E2AE89",
"9X c #C3B4A4",
"0X c #C8BCAB",
"qX c #C9BFB8",
"wX c #BEC0BB",
"eX c #F1C09F",
"rX c #D3CBAD",
"tX c #CAC5B6",
"yX c #D2CABB",
"uX c #DCD4B8",
"iX c #C6C0A6",
"pX c #FFD9B8",
"aX c #F5CEB0",
"sX c #CDC8C2",
"dX c #C2C8C4",
"fX c #D7CEC8",
"gX c #D9D3C7",
"hX c #DFDED9",
"jX c #E5DCD4",
"kX c #E0D9CF",
"lX c #E7E1D3",
"zX c #FFF7F0",
/* pixels */
"r h j } } } } } } | ..*.| [ r.<X<Xg.} | o.j j o.f f g g j g f f ",
"| | | } j [ } } *.j h } } [ ..;.*...[ h [ =.=. .j j g f f f f g ",
";.;...| } | ....o.} } ;.r.H.g.(.j.(.h.u.:.*.Y r j j g f I I I I ",
"dX<X}.(.a.5.*.o.=.t.h.(.(.(.(.<X(.s.g.}.}.h.5.t.k U U j I U U U ",
"h.s.s.h.`.}.%X+Xh.I.).p.5.:.p.j.8.+.=.D. X).H.`.+X}.}.}.}.}.'.}.",
"_.d.t.8.8.0.@.Y s.y.-.W W $.-.+.y.u.t.%.:.3.$.Y H.H.H.H.H.t.t.H.",
"|.I.i.i.s.9.-.W %.#.W i J -.%.H { %.%.O.X.O.X.k H.e.e.*.@.@.5.H.",
">XoXD.f.f.q.%.W #.2.O.s i s i % 7 7 K 2.%.H W &.@. .E I @.e.H.H.",
">X*X{.i.~ %.+.0 K 4 W i.O.i d d 0 = = 1 0 s s 0 ^ @.^ E @.H.H.H.",
"gXoXA.y.2.+.+.H 4 7 %.q.K 4 H +.0 w 7 0 s Y T s s T T Y e.H.Y.Y.",
"qX3.z X.%.Q +.3.4 i J Q 4 = a A = 1 1 0 T T T s s s T E e.Y.Y.Y.",
"fXy.i J l 3 3 u a u > % > a t % 1 1 w q s M q 0 E E E e.H.Y.Y.H.",
"wXs.{ { { y 3 ; y 3 O   u o.{ 7 T D R ^ R R M w ^ ! ! e.H.Y.Y.H.",
" X:.[ [ { { { z : y ;   : z z l T T ! ] e.6.e.] ^ ! R e.K.W.#XY.",
":Xr.[ [ u : ; - - y ;   - O O u 9 e M ! 6.K.K.K.e.^ R ^ H.#X5X&X",
"+X{ ; : : - - - O : O   ; - . u 0 w q ! 6.M.K.M.K.6.R ^ e.Y.5XiX",
"[.Q 8 X > 6   O   ; - . . . . . + # 9 ,.E.$XS./ / M.6.T q.%X:X,X",
"Y.e.Y   o > X > O     . + # @ % & . 7 S.$XV.` / N v < 2 6.I.+XwX",
"].H.e.X X X X X ;   . p 4 < < % 1 @ L XX5XN.N B / ' M 1 Q [.wX<X",
"K.H.9.o 6   X   $ . p F.+.5 5 < < 2 _ Q.6X/.T.v.N.W.m.b s {.wX:X",
"9.@.Y X 3   O ; . . O.OXb.L L L 2 2 G V.7XpXpXaXT.N.R e s y.:XdX",
"H.Q   X     . . + . L S.c.n m l.` c c B.8XeXaXpXW.7.v 1 0 d.1X2X",
":X XX o - J 3 . < + C b.n.l.P l.G.l.l.B.~./.~.~.T.N.6.M p P.2X%X",
"hXgXa o.+.oX3.; + @ 2 b.3X!.n.C.!.!.J.B.R.8X/.M.z.] b.S.%.$.`.1X",
":XtX3.J D.fXqX$ + @ 5 P n.7XeX4Xx.B.C.J.^./.R.N.] ' m.S.d.i.k.{.",
"d. XJ Q k.>XjXD.1 < b G P P l.l.x.x.x.z.v.B.N.z.] 1.Z.Y.XX'.{.%X",
"oX[.0.I.9XsXzXjXD.C 5 _ P P m P l.V B V ( / ` ' ] 7.L.@X>X*X%XoX",
"*XY.q.>XjXkXjXqXqX~ < G c.P m m c c m B V N G / M ] m.#X-X*XoXXX",
"Y.K.d.;XjXjXyX*XfXq.C G L N n N B N c N v 2 2 b e ) S..X-X-X-X%X",
"Y.Q.&XiXsXgXyXqXfXi.C L ) ,.] G ' / N 5 x b ~ 1.F.U.=X9X,X9X9X=X",
"&XiXrXiX;XwX,XtXoXA + A 1.4.1._ b.1.F b L w.E.=X9X0XyX0X9X9X5X-X",
"uXrXuXuXuXgXyXgXf.p p 4.w.,.4.E.S.b.] D L S.>X0X=X>X*X.X$X5X=X.X"
};
