/* XPM */
static char *b13e976e30364374fb68771345e8279cxvllJiP85QmTESny[] = {
/* columns rows colors chars-per-pixel */
"64 64 67 1 ",
"  c #060C0A",
". c #080D09",
"X c #07100F",
"o c #0D110E",
"O c #12110D",
"+ c #061011",
"@ c #0D1414",
"# c #0F1817",
"$ c #0F1719",
"% c #131613",
"& c #1A1613",
"* c #161915",
"= c #1A1916",
"- c #121619",
"; c #151B1A",
": c #1C1D1B",
"> c #211816",
", c #231D1C",
"< c #291F1E",
"1 c #17201F",
"2 c #1E211D",
"3 c #23221E",
"4 c #29221E",
"5 c #1C1E21",
"6 c #211F20",
"7 c #1E2323",
"8 c #242422",
"9 c #2A2524",
"0 c #262825",
"q c #2B2926",
"w c #242629",
"e c #292728",
"r c #25292A",
"t c #2D2C2A",
"y c #312725",
"u c #322A26",
"i c #302728",
"p c #332D2B",
"a c #392E2C",
"s c #2F302D",
"d c #34312E",
"f c #3A312E",
"g c #312F30",
"h c #392F30",
"j c #353331",
"k c #3B3533",
"l c #363834",
"z c #3D3936",
"x c #3E3A39",
"c c #413634",
"v c #423936",
"b c #403738",
"n c #443C3A",
"m c #493E3C",
"M c #45413D",
"N c #4A413E",
"B c #413F40",
"V c #454141",
"C c #4C4342",
"Z c #4E4946",
"A c #4E4848",
"S c #514644",
"D c #524847",
"F c #544C4A",
"G c #594F4D",
"H c #5C524F",
"J c #5C5351",
/* pixels */
"**O*O%*======&=&33::6::5:55>7889883qqq33334q0q4444343333322*****",
"83330qususdufffftdpgggggxkkggteeqqqtuqspuuq43333qq40433022*2***%",
"222320qq00qsdusufjffxxbxBBBBnnvvnMMMMzMMMMMfdsuuluuuqquuqqq0q032",
"333303q034quusuuddfckkxkhiphdflfkkfduduuduuadffdfluuquuu3300q003",
"400000qq00quuuquuuuufccahkcfffcacauuu44&><yafaaufuuuuuu4,3380032",
"222334qq04q0qquqaaccvvccmmNNNNvmNmvvMku44uccNMcavffffffupputsqq3",
"2230ssddussuudlfaaccMNvvafccmcvvmvccmvcauaacccaavvvfffffuq99443>",
"*2330qsq04440udfuyucvNvcvvmvmcvvcccvvNNNNvcccaccuuuuuuuuyy404344",
"22330qssudzMMMMMcvvmmmmmvvNNmccccvvmNNccccccffffaaauauu4uuiie966",
"0333334400udfduuuuuuuyuucccfaaacafaccccuucccMMcaNcMcau449968996<",
"00qsssdddddlkzzzvvnvvcccccffacccvvccMvMMcNNNNNMMfccacuuqvzkzkjha",
"***=2340dllfMMMMvnnmmNNNNMNNNNBnFDDDHHNNHHHHHNNNNNNNNMMMpptee08,",
"**===2==33444udfckbknnxnNNMCAACmvzzMMzMlkczMzMMMccvvzlddldddgpee",
"qqqqqssssddpdadd669e6e8w44,:,666u4qupuu044qsduu4uuuuuqq433770888",
"33000qtszzMMMMzfBBBVVBVVVVMMBxBBMzzzMzMzMMMMMlfslfffzzzldttssstr",
"q00032324qudddpqttghjkkklxxxkkkhMzzdlMzMMMMMMMMMzzzzlpqqq08322;%",
"ls404342qfMFFCcauaauuahkcycccvcvmBmmmmmBSBmmmBBcvvMvMzlfuddlsq03",
"2220sdlzvkdppdkkcnmmmccvccccvccchaacBSmmBSSBSSScffffffduu0003332",
"qusq4344qq9999uuuakcckkacccccccchayhcmmccmcccmccMMMZMMMMMdqqsduu",
"*=3332344qfzvvckmmCBmmmmSmmmmmmmmmcccmmBSSGDSSBmvzzzlffdMlddllll",
"4qulllzzzzzvNNDFGGFSSCBmGBmcccccmchhhhcmmmmmcmccvMMcMMMMddsuq443",
"dllldsuuy44qufkvaauuuaaccccc<ccchcmccccBccchyacavfMMfulzzzldu033",
"**=330q4,34ququuyyyacvvvvvmmvmSDSDDGSSSSSGGSGGGGNHNNNMNNMMMzzlss",
"ddslzzMzMMMnMNDNDBSSFFSSmmmBmmmmSBchhaayacmBmBBBNNMMMMMzMldsllds",
"ldlzMMMMMMllcMMvmmSSBFBBGGSSBSmcBmmccch<ycmBBBccMMMMMMfduuqusqus",
"ussdlzMzMMzMvMvMmmmmmmmmmmmmmmmcccccmBmccbbcvmmcvvfMflduus000uqs",
"qqusdlllzzzzcfccvvvmmvvvmSmmcmmvccccBmSSbvcaccccfaffddq4du00qssd",
"030qudfuuuffacvMmmmmmmvcmSBmccccccchayihchchccccffkfzflfsusqqqsq",
"340qdddsdzMMMfMMmmmmvcccccccycccyyhy<<<<<<<<<<,>3>>42>>=======OO",
"ssslzMMzMMNMMzcMvvvcccaaccccyccvccmBmmmSFBmmSSCNvvvvfdffMMzzzzds",
"lllMMMzzMMMMMMMMmmmmcccvcmmmcmmmmmSGGGGJSvmmSBNmCZNNMMMMzlflldds",
"usudsdsuufMMNNNNSSSSSSBSmmmmmmSmSSbSSbmmmvmDGDMnMNNNfMfMzMllzlld",
"suuuuauaafcNNNHHSSNNNNmvmvcvNNNNSSSSSSmmBBFFFBmmmBBSBBbxhkjtttgt",
"uudlvvMMMcccmcmNNmNNHNNNmvccvvccbbbccbhyhhmmGBBmmbmmkkhhggjjgjjt",
"00usflllMMMccfccccfffffuaaaaaaaahhccchy<>><9ccyccBbckhhhhhhhjjje",
"q0uuuuuufuffaccvvvvvccffuauaaffkchcbcbchvmvncvvvhcbcxkgheggeete0",
"334uqq4q444uafkauuuuuuuuccccMMMNcccccccckkhaauuuiiihhigett908900",
"2233q4444uufkkcavvmvvfMzafffdzafcccchihhuaapaaapiiiihhggtte08000",
"3ququsduauffcvckffffsuuufuau4499hhhhahhh9uuajkkfchhhhkhgtpte8088",
"q303qquuuu4uyuuqufffddulfvvfptpd6yahhhhhkknnnnnnBbbbBbbgegtee98:",
"223333qqknnkzaupuu0sdq33jdjdddppchaapppdptquflfdi9eee90800880008",
"330030q49etutqiusuuddqqs88880389iiueuuppfq9qflpu99etpgjs9088872:",
"23003343=,:,,,66uusduudlhhhklzxxzzkklzzzzlfdkzlpxkzklzjsttteqq02",
"23333030etpteahkqsdlu0qdeeripdjkjzxnxnzznzzzzzkljhpte08:88722211",
"003230qspjgahjkngkzxlq4shhhhhkkk99qqtuqupflfuqudtttgdsss02227222",
"03223000trttggxnxxmMMddu6i6i6i6699999q99qtdp999pjljllxxlllsssr07",
"2*223000jjjkkxBBxkznMkffBbbbBbbkjfdadddfddddadddgtttsrs000070221",
"**=0sssqttggpghhhafffffMhbhhchhhzlladdlkvlflxnxljjjjllss00002221",
"==23ssssqsdptptu9iihhbkhkkhhy6achjkptjkxjjgpggaet9880q8308878822",
"*%%23330334qpdfjhkhhbhhhhhhhkbbbgxkxlkkkxxkjkkpege09te088:::::;*",
"%%%*200440qsddddtgahhhkxbbBBBCbzBBVBBxj9gjhgtpt8teettr8886::22;*",
"%*=*2032sstspsusghjlhkBBbmBBBnxgphjhgp6*hxxxxxkkzxxxljgg0808321;",
"%***222=:,0eetdjlzklddllikxxxllzxBVVVABkhzkxxbxkgkxxljttq0003321",
"%21*233*880etdpdsstgtpjljxxljtjlkxzgjhpeepgtette99ttte8800000021",
"*11*1001ereeeew80etdlxlxjljgtw0txxkjgpt9epgttpggtettjge00830432*",
".o*o%21168666:;=:**:772185:57888ehjgtppa,9e669ua,::,882=***121%o",
"%@@#@$$$;:6558e822128077080w000e8ette99eee66e9w6p6=:qte8380ww3;o",
"  o#-577:8858etrsrqsssssw00w00er9tte9etuetuhjxnxzp00ete838880031",
"@@##-;5557ww6wrttrtsdslljljlllllttgphjjkjjkjkzzxkge90q88:8:=2321",
";#;;1;$1576556wwe00etsgstssssgtjjppjjkpehjjhpeeuhpe0888,88:%o**o",
"@@#1577wwrw556w6eetetsjj0tttpttrptptge9=epagtpppee998e800q3222%o",
"X+@#557wwrrwwwewetttttjjsssjjjjjpgghgt6=eetppetu8888888838322=1o",
"+#@@$$$$5www6rre89990epg99ttte9etgjkatyeptetee6,6,=::::=*:*%%*oo",
"+++++$$$$15556ww89ee89epettpgppu9ete999ipueuue9698:,8,:&**%ooOo."
};
